{
.appVersion = "1342";
DisplayStrings = (
"T/tcedilla/commaaccent g/gbreve/gdotaccent/gcommaaccent/gcommaaccent L/Lcommaaccent/lcommaaccent/uni0145/uni0146/Kcommaaccent k/kcommaaccent/Gcommaaccent/Scommaaccent/Tcommaaccent/scommaaccent/tcommaaccent/Tcommaaccent/Tcedilla/tcedilla",
"25BRSaefgijlqrst/circumflex/caron/ogonek/quoteleft/quoteright/quotesinglbase/quotedblleft/quotedblright/quotedblbase ª³/mu ¸¾?@.;,{}~£?¿/circumflex ß/florin/integral/approxequal/partialdiff/uni2113 øæ/oe Ð/Aogonek/eogonek/commaaccent/uogonek/hbar/dcroat",
"69Jbpº$&§æðþDÐ/ogonek/Aogonek/commaaccent/hbar d/dcroat",
"/commaaccent/dieresiscomb/dotaccentcomb/gravecomb/acutecomb/circumflexcomb/caroncomb/brevecomb/ringcomb/macroncomb/cedillacomb/ogonekcomb",
"aâãäå´/acutecomb aá",
"AÂÃÄÅÀÁ/Amacron/amacron",
"cçE/gravecomb EÈÉÊËe/gravecomb è/acutecomb éêë",
"AÂÃÄÅÀÁ/Amacron/Abreve/Aogonek",
"ACÇ/Cacute/Cdotaccent/Ccaron",
"µalp",
"T/tcedilla/commaaccent g/gbreve/gdotaccent/gcommaaccent/gcommaaccent L/Lcommaaccent/lcommaaccent/uni0145/uni0146/Kcommaaccent k/kcommaaccent/Gcommaaccent/Scommaaccent/Tcommaaccent/scommaaccent/tcommaaccent/Tcommaaccent/Tcedilla/tcedilla SS/Scaron/Sacute/commaaccent/Scommaaccent/Scommaaccent S/Scedilla s/scommaaccent/scedilla",
"l/lcaron/lcaron/Lcaron/tcaron/dcaron/Lcaron",
"lo/dcaron ka\012naj/dcaron alej/space há/dcaron atko/space dá/zcaron/dcaron/space po/dcaron akoval/space pä/tcaron lo/dcaron ová/space/lcaron u/dcaron mi\012lo/dcaron stvo/space/zcaron er/dcaron ové/space objí/zcaron/dcaron ková/space bu/dcaron to/space p/rcaron ij/dcaron/space/zcaron/dcaron árských\012devät/tcaron desiatych/space pätnás/tcaron násobok/space svi/scaron/tcaron/space pä/tcaron cípej\012zne/ccaron i/scaron/tcaron ovateli/space tlou/scaron/tcaron ce/space ob/ecaron/tcaron mi/space za/scaron ti/tcaron oval/space pe/ccaron e/tcaron",
"8"
);
classes = (
{
automatic = 1;

glyphs = (
{
glyphname = .notdef;
lastChange = "2021-04-29 22:51:25 +0000";
layers = (
{
background = {
paths = (
{
closed = 1;
nodes = (
"477 0 LINE",
"477 700 LINE",
"50 700 LINE",
"50 0 LINE"
);
},
{
closed = 1;
nodes = (
"264 329 LINE",
"449 21 LINE",
"79 21 LINE"
);
},
{
closed = 1;
nodes = (
"71 650 LINE",
"251 350 LINE",
"71 49 LINE"
);
},
{
closed = 1;
nodes = (
"276 350 LINE",
"457 652 LINE",
"457 47 LINE"
);
},
{
closed = 1;
nodes = (
"78 680 LINE",
"449 680 LINE",
"263 371 LINE"
);
}
);
};
layerId = "678C5AFE-F8DA-443A-BB17-9B03ED7099AB";
paths = (
{
closed = 1;
nodes = (
"477 0 LINE",
"477 700 LINE",
"50 700 LINE",
"50 0 LINE"
);
},
{
closed = 1;
nodes = (
"264 329 LINE",
"449 21 LINE",
"79 21 LINE"
);
},
{
closed = 1;
nodes = (
"71 650 LINE",
"251 350 LINE",
"71 49 LINE"
);
},
{
closed = 1;
nodes = (
"276 350 LINE",
"457 652 LINE",
"457 47 LINE"
);
},
{
closed = 1;
nodes = (
"78 680 LINE",
"449 680 LINE",
"263 371 LINE"
);
}
);
width = 527;
},
{
background = {
paths = (
{
closed = 1;
nodes = (
"556 0 LINE",
"556 700 LINE",
"129 700 LINE",
"129 0 LINE"
);
},
{
closed = 1;
nodes = (
"343 329 LINE",
"528 21 LINE",
"158 21 LINE"
);
},
{
closed = 1;
nodes = (
"150 650 LINE",
"330 350 LINE",
"150 49 LINE"
);
},
{
closed = 1;
nodes = (
"355 350 LINE",
"536 652 LINE",
"536 47 LINE"
);
},
{
closed = 1;
nodes = (
"157 680 LINE",
"528 680 LINE",
"342 371 LINE"
);
}
);
};
layerId = "30D4BC2E-225F-4273-AE59-0FC741A5E71E";
paths = (
{
closed = 1;
nodes = (
"556 0 LINE",
"556 700 LINE",
"129 700 LINE",
"129 0 LINE"
);
},
{
closed = 1;
nodes = (
"343 329 LINE",
"528 21 LINE",
"158 21 LINE"
);
},
{
closed = 1;
nodes = (
"150 650 LINE",
"330 350 LINE",
"150 49 LINE"
);
},
{
closed = 1;
nodes = (
"355 350 LINE",
"536 652 LINE",
"536 47 LINE"
);
},
{
closed = 1;
nodes = (
"157 680 LINE",
"528 680 LINE",
"342 371 LINE"
);
}
);
width = 676;
}
);
},
{
color = (255,153,254,255);
glyphname = zero;
lastChange = "2021-04-29 22:51:25 +0000";
layers = (
{
background = {
paths = (
{
closed = 1;
nodes = (
"465 -12 OFFCURVE",
"572 112 OFFCURVE",
"600 334 CURVE SMOOTH",
"604 364 OFFCURVE",
"606 391 OFFCURVE",
"606 417 CURVE SMOOTH",
"606 587 OFFCURVE",
"527 680 OFFCURVE",
"378 680 CURVE SMOOTH",
"207 680 OFFCURVE",
"100 556 OFFCURVE",
"72 334 CURVE SMOOTH",
"68 304 OFFCURVE",
"66 277 OFFCURVE",
"66 251 CURVE SMOOTH",
"66 81 OFFCURVE",
"145 -12 OFFCURVE",
"293 -12 CURVE SMOOTH"
);
},
{
closed = 1;
nodes = (
"192 63 OFFCURVE",
"158 151 OFFCURVE",
"158 257 CURVE SMOOTH",
"158 282 OFFCURVE",
"160 308 OFFCURVE",
"163 334 CURVE SMOOTH",
"172 403 OFFCURVE",
"187 460 OFFCURVE",
"211 503 CURVE",
"408 98 LINE",
"379 75 OFFCURVE",
"344 63 OFFCURVE",
"302 63 CURVE SMOOTH"
);
},
{
closed = 1;
nodes = (
"270 574 LINE",
"297 594 OFFCURVE",
"330 605 OFFCURVE",
"369 605 CURVE SMOOTH",
"486 605 OFFCURVE",
"514 507 OFFCURVE",
"514 411 CURVE SMOOTH",
"514 384 OFFCURVE",
"512 358 OFFCURVE",
"509 334 CURVE SMOOTH",
"501 269 OFFCURVE",
"486 215 OFFCURVE",
"465 172 CURVE"
);
}
);
};
layerId = "678C5AFE-F8DA-443A-BB17-9B03ED7099AB";
paths = (
{
closed = 1;
nodes = (
"465 -12 OFFCURVE",
"572 112 OFFCURVE",
"600 334 CURVE SMOOTH",
"604 364 OFFCURVE",
"606 391 OFFCURVE",
"606 417 CURVE SMOOTH",
"606 587 OFFCURVE",
"527 680 OFFCURVE",
"378 680 CURVE SMOOTH",
"207 680 OFFCURVE",
"100 556 OFFCURVE",
"72 334 CURVE SMOOTH",
"68 304 OFFCURVE",
"66 277 OFFCURVE",
"66 251 CURVE SMOOTH",
"66 81 OFFCURVE",
"145 -12 OFFCURVE",
"293 -12 CURVE SMOOTH"
);
},
{
closed = 1;
nodes = (
"192 63 OFFCURVE",
"158 151 OFFCURVE",
"158 257 CURVE SMOOTH",
"158 282 OFFCURVE",
"160 308 OFFCURVE",
"163 334 CURVE SMOOTH",
"172 403 OFFCURVE",
"187 460 OFFCURVE",
"211 503 CURVE",
"408 98 LINE",
"379 75 OFFCURVE",
"344 63 OFFCURVE",
"302 63 CURVE SMOOTH"
);
},
{
closed = 1;
nodes = (
"270 574 LINE",
"297 594 OFFCURVE",
"330 605 OFFCURVE",
"369 605 CURVE SMOOTH",
"486 605 OFFCURVE",
"514 507 OFFCURVE",
"514 411 CURVE SMOOTH",
"514 384 OFFCURVE",
"512 358 OFFCURVE",
"509 334 CURVE SMOOTH",
"501 269 OFFCURVE",
"486 215 OFFCURVE",
"465 172 CURVE"
);
}
);
width = 654;
},
{
background = {
paths = (
{
closed = 1;
nodes = (
"487 -12 OFFCURVE",
"600 122 OFFCURVE",
"622 335 CURVE SMOOTH",
"644 549 OFFCURVE",
"559 680 OFFCURVE",
"372 680 CURVE SMOOTH",
"185 680 OFFCURVE",
"72 549 OFFCURVE",
"50 335 CURVE SMOOTH",
"28 122 OFFCURVE",
"112 -12 OFFCURVE",
"300 -12 CURVE SMOOTH"
);
},
{
closed = 1;
nodes = (
"217 101 OFFCURVE",
"192 207 OFFCURVE",
"206 335 CURVE",
"210 380 OFFCURVE",
"219 418 OFFCURVE",
"230 450 CURVE",
"385 128 LINE",
"363 110 OFFCURVE",
"338 101 OFFCURVE",
"312 101 CURVE SMOOTH"
);
},
{
closed = 1;
nodes = (
"291 544 LINE",
"312 559 OFFCURVE",
"335 567 OFFCURVE",
"360 567 CURVE SMOOTH",
"475 567 OFFCURVE",
"475 416 OFFCURVE",
"466 335 CURVE SMOOTH",
"462 294 OFFCURVE",
"454 258 OFFCURVE",
"444 227 CURVE"
);
}
);
};
layerId = "30D4BC2E-225F-4273-AE59-0FC741A5E71E";
paths = (
{
closed = 1;
nodes = (
"487 -12 OFFCURVE",
"600 122 OFFCURVE",
"622 335 CURVE SMOOTH",
"624 357 OFFCURVE",
"625 378 OFFCURVE",
"625 398 CURVE SMOOTH",
"625 575 OFFCURVE",
"540 680 OFFCURVE",
"372 680 CURVE SMOOTH",
"185 680 OFFCURVE",
"72 549 OFFCURVE",
"50 335 CURVE SMOOTH",
"48 313 OFFCURVE",
"47 292 OFFCURVE",
"47 271 CURVE SMOOTH",
"47 96 OFFCURVE",
"132 -12 OFFCURVE",
"300 -12 CURVE SMOOTH"
);
},
{
closed = 1;
nodes = (
"233 101 OFFCURVE",
"202 174 OFFCURVE",
"202 273 CURVE SMOOTH",
"202 293 OFFCURVE",
"204 313 OFFCURVE",
"206 335 CURVE",
"210 380 OFFCURVE",
"219 418 OFFCURVE",
"230 450 CURVE",
"385 128 LINE",
"363 110 OFFCURVE",
"338 101 OFFCURVE",
"312 101 CURVE SMOOTH"
);
},
{
closed = 1;
nodes = (
"291 544 LINE",
"312 559 OFFCURVE",
"335 567 OFFCURVE",
"360 567 CURVE SMOOTH",
"450 567 OFFCURVE",
"470 475 OFFCURVE",
"470 396 CURVE SMOOTH",
"470 374 OFFCURVE",
"468 353 OFFCURVE",
"466 335 CURVE SMOOTH",
"462 294 OFFCURVE",
"454 258 OFFCURVE",
"444 227 CURVE"
);
}
);
width = 659;
}
);
unicode = 0030;
},
{
color = (255,153,254,255);
glyphname = one;
lastChange = "2021-04-29 22:51:25 +0000";
layers = (
{
background = {
paths = (
{
closed = 1;
nodes = (
"243 0 LINE",
"385 668 LINE",
"327 668 LINE",
"299 609 OFFCURVE",
"242 571 OFFCURVE",
"101 571 CURVE",
"87 503 LINE",
"265 503 LINE",
"158 0 LINE"
);
}
);
};
layerId = "678C5AFE-F8DA-443A-BB17-9B03ED7099AB";
paths = (
{
closed = 1;
nodes = (
"243 0 LINE",
"385 668 LINE",
"327 668 LINE",
"299 609 OFFCURVE",
"242 571 OFFCURVE",
"101 571 CURVE",
"87 503 LINE",
"265 503 LINE",
"158 0 LINE"
);
}
);
width = 403;
},
{
background = {
paths = (
{
closed = 1;
nodes = (
"287 0 LINE",
"428 668 LINE",
"310 668 LINE",
"260 587 OFFCURVE",
"206 571 OFFCURVE",
"98 571 CURVE",
"72 449 LINE",
"228 449 LINE",
"132 0 LINE"
);
}
);
};
layerId = "30D4BC2E-225F-4273-AE59-0FC741A5E71E";
paths = (
{
closed = 1;
nodes = (
"287 0 LINE",
"428 668 LINE",
"310 668 LINE",
"260 587 OFFCURVE",
"206 571 OFFCURVE",
"98 571 CURVE",
"72 449 LINE",
"228 449 LINE",
"132 0 LINE"
);
}
);
width = 455;
}
);
unicode = 0031;
},
{
color = 4;
glyphname = two;
lastChange = "2021-04-29 22:51:25 +0000";
layers = (
{
background = {
paths = (
{
closed = 1;
nodes = (
"463 0 LINE",
"479 77 LINE",
"131 77 LINE",
"322 184 OFFCURVE",
"548 326 OFFCURVE",
"548 510 CURVE SMOOTH",
"548 627 OFFCURVE",
"453 680 OFFCURVE",
"344 680 CURVE SMOOTH",
"227 680 OFFCURVE",
"143 626 OFFCURVE",
"96 522 CURVE",
"174 498 LINE",
"210 584 OFFCURVE",
"279 610 OFFCURVE",
"341 610 CURVE SMOOTH",
"400 610 OFFCURVE",
"455 572 OFFCURVE",
"455 501 CURVE SMOOTH",
"455 347 OFFCURVE",
"211 196 OFFCURVE",
"-2 76 CURVE",
"-18 0 LINE"
);
}
);
};
layerId = "678C5AFE-F8DA-443A-BB17-9B03ED7099AB";
paths = (
{
closed = 1;
nodes = (
"463 0 LINE",
"479 77 LINE",
"131 77 LINE",
"322 184 OFFCURVE",
"548 326 OFFCURVE",
"548 510 CURVE SMOOTH",
"548 627 OFFCURVE",
"453 680 OFFCURVE",
"344 680 CURVE SMOOTH",
"227 680 OFFCURVE",
"143 626 OFFCURVE",
"96 522 CURVE",
"174 498 LINE",
"210 584 OFFCURVE",
"279 610 OFFCURVE",
"341 610 CURVE SMOOTH",
"400 610 OFFCURVE",
"455 572 OFFCURVE",
"455 501 CURVE SMOOTH",
"455 347 OFFCURVE",
"211 196 OFFCURVE",
"-2 76 CURVE",
"-18 0 LINE"
);
}
);
width = 565;
},
{
background = {
paths = (
{
closed = 1;
nodes = (
"478 0 LINE",
"504 125 LINE",
"204 125 LINE",
"404 223 OFFCURVE",
"570 347 OFFCURVE",
"578 491 CURVE SMOOTH",
"591 720 OFFCURVE",
"200 747 OFFCURVE",
"81 539 CURVE",
"208 489 LINE",
"270 596 OFFCURVE",
"405 586 OFFCURVE",
"419 507 CURVE SMOOTH",
"439 394 OFFCURVE",
"257 262 OFFCURVE",
"-9 125 CURVE",
"-35 0 LINE"
);
}
);
};
layerId = "30D4BC2E-225F-4273-AE59-0FC741A5E71E";
paths = (
{
closed = 1;
nodes = (
"478 0 LINE",
"504 125 LINE",
"204 125 LINE",
"409 226 OFFCURVE",
"578 354 OFFCURVE",
"578 502 CURVE SMOOTH",
"578 619 OFFCURVE",
"469 680 OFFCURVE",
"350 680 CURVE SMOOTH",
"247 680 OFFCURVE",
"135 634 OFFCURVE",
"81 539 CURVE",
"208 489 LINE",
"240 544 OFFCURVE",
"290 568 OFFCURVE",
"334 568 CURVE SMOOTH",
"381 568 OFFCURVE",
"420 541 OFFCURVE",
"420 490 CURVE SMOOTH",
"420 381 OFFCURVE",
"244 255 OFFCURVE",
"-9 125 CURVE",
"-35 0 LINE"
);
}
);
width = 587;
}
);
unicode = 0032;
},
{
color = (255,153,254,255);
glyphname = three;
lastChange = "2021-04-29 22:51:25 +0000";
layers = (
{
background = {
paths = (
{
closed = 1;
nodes = (
"424 -12 OFFCURVE",
"505 92 OFFCURVE",
"505 198 CURVE SMOOTH",
"505 264 OFFCURVE",
"480 321 OFFCURVE",
"403 347 CURVE",
"483 373 OFFCURVE",
"538 430 OFFCURVE",
"538 520 CURVE SMOOTH",
"538 639 OFFCURVE",
"425 680 OFFCURVE",
"323 680 CURVE SMOOTH",
"201 680 OFFCURVE",
"119 616 OFFCURVE",
"91 523 CURVE",
"169 498 LINE",
"191 566 OFFCURVE",
"237 610 OFFCURVE",
"318 610 CURVE SMOOTH",
"387 610 OFFCURVE",
"446 575 OFFCURVE",
"446 506 CURVE SMOOTH",
"446 399 OFFCURVE",
"336 390 OFFCURVE",
"230 390 CURVE",
"214 315 LINE",
"294 315 OFFCURVE",
"416 311 OFFCURVE",
"416 187 CURVE SMOOTH",
"416 109 OFFCURVE",
"344 58 OFFCURVE",
"261 58 CURVE SMOOTH",
"176 58 OFFCURVE",
"128 108 OFFCURVE",
"118 181 CURVE",
"32 158 LINE",
"49 61 OFFCURVE",
"124 -12 OFFCURVE",
"259 -12 CURVE SMOOTH"
);
}
);
};
layerId = "678C5AFE-F8DA-443A-BB17-9B03ED7099AB";
paths = (
{
closed = 1;
nodes = (
"424 -12 OFFCURVE",
"505 92 OFFCURVE",
"505 198 CURVE SMOOTH",
"505 264 OFFCURVE",
"480 321 OFFCURVE",
"403 347 CURVE",
"483 373 OFFCURVE",
"538 430 OFFCURVE",
"538 520 CURVE SMOOTH",
"538 639 OFFCURVE",
"425 680 OFFCURVE",
"323 680 CURVE SMOOTH",
"201 680 OFFCURVE",
"119 616 OFFCURVE",
"91 523 CURVE",
"169 498 LINE",
"191 566 OFFCURVE",
"237 610 OFFCURVE",
"318 610 CURVE SMOOTH",
"387 610 OFFCURVE",
"446 575 OFFCURVE",
"446 506 CURVE SMOOTH",
"446 399 OFFCURVE",
"336 390 OFFCURVE",
"230 390 CURVE",
"214 315 LINE",
"294 315 OFFCURVE",
"416 311 OFFCURVE",
"416 187 CURVE SMOOTH",
"416 109 OFFCURVE",
"344 58 OFFCURVE",
"261 58 CURVE SMOOTH",
"176 58 OFFCURVE",
"128 108 OFFCURVE",
"118 181 CURVE",
"32 158 LINE",
"49 61 OFFCURVE",
"124 -12 OFFCURVE",
"259 -12 CURVE SMOOTH"
);
}
);
width = 580;
},
{
background = {
paths = (
{
closed = 1;
nodes = (
"405 -12 OFFCURVE",
"527 59 OFFCURVE",
"539 200 CURVE SMOOTH",
"544 263 OFFCURVE",
"520 318 OFFCURVE",
"465 349 CURVE",
"526 373 OFFCURVE",
"579 417 OFFCURVE",
"579 513 CURVE SMOOTH",
"579 620 OFFCURVE",
"472 680 OFFCURVE",
"344 680 CURVE SMOOTH",
"231 680 OFFCURVE",
"135 645 OFFCURVE",
"77 535 CURVE",
"204 485 LINE",
"221 548 OFFCURVE",
"272 567 OFFCURVE",
"326 567 CURVE SMOOTH",
"376 567 OFFCURVE",
"417 542 OFFCURVE",
"419 492 CURVE SMOOTH",
"422 423 OFFCURVE",
"341 397 OFFCURVE",
"227 397 CURVE",
"205 291 LINE",
"283 291 OFFCURVE",
"381 278 OFFCURVE",
"381 190 CURVE SMOOTH",
"381 135 OFFCURVE",
"329 101 OFFCURVE",
"268 101 CURVE SMOOTH",
"216 101 OFFCURVE",
"166 125 OFFCURVE",
"155 190 CURVE",
"6 140 LINE",
"52 22 OFFCURVE",
"155 -12 OFFCURVE",
"267 -12 CURVE SMOOTH"
);
}
);
};
layerId = "30D4BC2E-225F-4273-AE59-0FC741A5E71E";
paths = (
{
closed = 1;
nodes = (
"405 -12 OFFCURVE",
"527 59 OFFCURVE",
"539 200 CURVE SMOOTH",
"544 263 OFFCURVE",
"520 318 OFFCURVE",
"465 349 CURVE",
"526 373 OFFCURVE",
"579 417 OFFCURVE",
"579 513 CURVE SMOOTH",
"579 620 OFFCURVE",
"472 680 OFFCURVE",
"344 680 CURVE SMOOTH",
"231 680 OFFCURVE",
"135 645 OFFCURVE",
"77 535 CURVE",
"204 485 LINE",
"221 548 OFFCURVE",
"272 567 OFFCURVE",
"326 567 CURVE SMOOTH",
"377 567 OFFCURVE",
"419 541 OFFCURVE",
"419 488 CURVE SMOOTH",
"419 422 OFFCURVE",
"339 397 OFFCURVE",
"227 397 CURVE",
"205 291 LINE",
"283 291 OFFCURVE",
"381 278 OFFCURVE",
"381 190 CURVE SMOOTH",
"381 135 OFFCURVE",
"329 101 OFFCURVE",
"268 101 CURVE SMOOTH",
"216 101 OFFCURVE",
"166 125 OFFCURVE",
"155 190 CURVE",
"6 140 LINE",
"52 22 OFFCURVE",
"155 -12 OFFCURVE",
"267 -12 CURVE SMOOTH"
);
}
);
width = 619;
}
);
unicode = 0033;
},
{
color = (255,153,254,255);
glyphname = four;
lastChange = "2021-04-29 22:51:25 +0000";
layers = (
{
background = {
paths = (
{
closed = 1;
nodes = (
"407 0 LINE",
"442 165 LINE",
"566 165 LINE",
"583 244 LINE",
"459 244 LINE",
"549 668 LINE",
"462 668 LINE",
"34 244 LINE",
"17 165 LINE",
"356 165 LINE",
"320 0 LINE"
);
},
{
closed = 1;
nodes = (
"438 552 LINE",
"372 244 LINE",
"127 244 LINE"
);
}
);
};
layerId = "678C5AFE-F8DA-443A-BB17-9B03ED7099AB";
paths = (
{
closed = 1;
nodes = (
"407 0 LINE",
"442 165 LINE",
"566 165 LINE",
"583 244 LINE",
"459 244 LINE",
"549 668 LINE",
"462 668 LINE",
"34 244 LINE",
"17 165 LINE",
"356 165 LINE",
"320 0 LINE"
);
},
{
closed = 1;
nodes = (
"438 552 LINE",
"372 244 LINE",
"127 244 LINE"
);
}
);
width = 636;
},
{
background = {
paths = (
{
closed = 1;
nodes = (
"450 0 LINE",
"480 141 LINE",
"572 141 LINE",
"600 275 LINE",
"508 275 LINE",
"592 668 LINE",
"421 668 LINE",
"7 252 LINE",
"-16 141 LINE",
"324 141 LINE",
"294 0 LINE"
);
},
{
closed = 1;
nodes = (
"394 469 LINE",
"352 275 LINE",
"193 275 LINE"
);
}
);
};
layerId = "30D4BC2E-225F-4273-AE59-0FC741A5E71E";
paths = (
{
closed = 1;
nodes = (
"450 0 LINE",
"480 141 LINE",
"572 141 LINE",
"600 275 LINE",
"508 275 LINE",
"592 668 LINE",
"421 668 LINE",
"7 252 LINE",
"-16 141 LINE",
"324 141 LINE",
"294 0 LINE"
);
},
{
closed = 1;
nodes = (
"394 469 LINE",
"352 275 LINE",
"193 275 LINE"
);
}
);
width = 646;
}
);
unicode = 0034;
},
{
color = 4;
glyphname = five;
lastChange = "2021-04-29 22:51:25 +0000";
layers = (
{
background = {
paths = (
{
closed = 1;
nodes = (
"397 -12 OFFCURVE",
"501 93 OFFCURVE",
"501 247 CURVE SMOOTH",
"501 379 OFFCURVE",
"403 450 OFFCURVE",
"301 450 CURVE SMOOTH",
"246 450 OFFCURVE",
"203 434 OFFCURVE",
"166 400 CURVE",
"229 587 LINE",
"543 587 LINE",
"561 668 LINE",
"176 668 LINE",
"63 329 LINE",
"141 305 LINE",
"163 344 OFFCURVE",
"209 377 OFFCURVE",
"274 377 CURVE SMOOTH",
"355 377 OFFCURVE",
"410 334 OFFCURVE",
"410 238 CURVE SMOOTH",
"410 129 OFFCURVE",
"345 57 OFFCURVE",
"242 60 CURVE SMOOTH",
"177 63 OFFCURVE",
"129 98 OFFCURVE",
"108 177 CURVE",
"25 154 LINE",
"48 59 OFFCURVE",
"120 -12 OFFCURVE",
"252 -12 CURVE SMOOTH"
);
}
);
};
layerId = "678C5AFE-F8DA-443A-BB17-9B03ED7099AB";
paths = (
{
closed = 1;
nodes = (
"397 -12 OFFCURVE",
"501 93 OFFCURVE",
"501 247 CURVE SMOOTH",
"501 379 OFFCURVE",
"403 450 OFFCURVE",
"301 450 CURVE SMOOTH",
"246 450 OFFCURVE",
"203 434 OFFCURVE",
"166 400 CURVE",
"229 587 LINE",
"543 587 LINE",
"561 668 LINE",
"176 668 LINE",
"63 329 LINE",
"141 305 LINE",
"163 344 OFFCURVE",
"209 377 OFFCURVE",
"274 377 CURVE SMOOTH",
"355 377 OFFCURVE",
"410 334 OFFCURVE",
"410 238 CURVE SMOOTH",
"410 129 OFFCURVE",
"345 57 OFFCURVE",
"242 60 CURVE SMOOTH",
"177 63 OFFCURVE",
"129 98 OFFCURVE",
"108 177 CURVE",
"25 154 LINE",
"48 59 OFFCURVE",
"120 -12 OFFCURVE",
"252 -12 CURVE SMOOTH"
);
}
);
width = 575;
},
{
background = {
paths = (
{
closed = 1;
nodes = (
"77 -71 OFFCURVE",
"504 -73 OFFCURVE",
"541 198 CURVE SMOOTH",
"574 438 OFFCURVE",
"341 489 OFFCURVE",
"217 419 CURVE",
"259 544 LINE",
"560 544 LINE",
"586 668 LINE",
"156 668 LINE",
"41 327 LINE",
"168 276 LINE",
"219 372 OFFCURVE",
"407 361 OFFCURVE",
"386 199 CURVE SMOOTH",
"369 70 OFFCURVE",
"179 68 OFFCURVE",
"156 189 CURVE",
"17 142 LINE"
);
}
);
};
layerId = "30D4BC2E-225F-4273-AE59-0FC741A5E71E";
paths = (
{
closed = 1;
nodes = (
"422 -12 OFFCURVE",
"544 81 OFFCURVE",
"544 242 CURVE SMOOTH",
"544 386 OFFCURVE",
"437 448 OFFCURVE",
"333 448 CURVE SMOOTH",
"292 448 OFFCURVE",
"250 438 OFFCURVE",
"217 419 CURVE",
"259 544 LINE",
"560 544 LINE",
"586 668 LINE",
"156 668 LINE",
"41 327 LINE",
"168 276 LINE",
"189 316 OFFCURVE",
"233 337 OFFCURVE",
"277 337 CURVE SMOOTH",
"333 337 OFFCURVE",
"388 301 OFFCURVE",
"388 223 CURVE SMOOTH",
"388 149 OFFCURVE",
"339 100 OFFCURVE",
"269 100 CURVE SMOOTH",
"218 100 OFFCURVE",
"167 130 OFFCURVE",
"156 189 CURVE",
"17 142 LINE",
"45 41 OFFCURVE",
"155 -12 OFFCURVE",
"268 -12 CURVE SMOOTH"
);
}
);
width = 616;
}
);
unicode = 0035;
},
{
color = 4;
glyphname = six;
lastChange = "2021-04-29 22:51:25 +0000";
layers = (
{
background = {
paths = (
{
closed = 1;
nodes = (
"445 -12 OFFCURVE",
"534 105 OFFCURVE",
"534 240 CURVE SMOOTH",
"534 362 OFFCURVE",
"453 445 OFFCURVE",
"336 445 CURVE SMOOTH",
"257 445 OFFCURVE",
"197 410 OFFCURVE",
"164 361 CURVE",
"191 514 OFFCURVE",
"261 610 OFFCURVE",
"363 610 CURVE SMOOTH",
"417 610 OFFCURVE",
"450 587 OFFCURVE",
"465 548 CURVE",
"553 573 LINE",
"531 633 OFFCURVE",
"472 680 OFFCURVE",
"372 680 CURVE SMOOTH",
"174 680 OFFCURVE",
"62 466 OFFCURVE",
"62 238 CURVE SMOOTH",
"62 83 OFFCURVE",
"133 -12 OFFCURVE",
"281 -12 CURVE SMOOTH"
);
},
{
closed = 1;
nodes = (
"203 58 OFFCURVE",
"151 123 OFFCURVE",
"151 205 CURVE SMOOTH",
"151 303 OFFCURVE",
"216 370 OFFCURVE",
"310 370 CURVE SMOOTH",
"394 370 OFFCURVE",
"444 314 OFFCURVE",
"444 232 CURVE SMOOTH",
"444 131 OFFCURVE",
"377 58 OFFCURVE",
"284 58 CURVE SMOOTH"
);
}
);
};
layerId = "678C5AFE-F8DA-443A-BB17-9B03ED7099AB";
paths = (
{
closed = 1;
nodes = (
"445 -12 OFFCURVE",
"534 105 OFFCURVE",
"534 240 CURVE SMOOTH",
"534 362 OFFCURVE",
"453 445 OFFCURVE",
"336 445 CURVE SMOOTH",
"257 445 OFFCURVE",
"197 410 OFFCURVE",
"164 361 CURVE",
"191 514 OFFCURVE",
"261 610 OFFCURVE",
"363 610 CURVE SMOOTH",
"417 610 OFFCURVE",
"450 587 OFFCURVE",
"465 548 CURVE",
"553 573 LINE",
"531 633 OFFCURVE",
"472 680 OFFCURVE",
"372 680 CURVE SMOOTH",
"174 680 OFFCURVE",
"62 466 OFFCURVE",
"62 238 CURVE SMOOTH",
"62 83 OFFCURVE",
"133 -12 OFFCURVE",
"281 -12 CURVE SMOOTH"
);
},
{
closed = 1;
nodes = (
"203 58 OFFCURVE",
"151 123 OFFCURVE",
"151 205 CURVE SMOOTH",
"151 303 OFFCURVE",
"216 370 OFFCURVE",
"310 370 CURVE SMOOTH",
"394 370 OFFCURVE",
"444 314 OFFCURVE",
"444 232 CURVE SMOOTH",
"444 131 OFFCURVE",
"377 58 OFFCURVE",
"284 58 CURVE SMOOTH"
);
}
);
width = 605;
},
{
background = {
paths = (
{
closed = 1;
nodes = (
"440 -12 OFFCURVE",
"555 91 OFFCURVE",
"562 229 CURVE SMOOTH",
"569 367 OFFCURVE",
"469 452 OFFCURVE",
"349 452 CURVE SMOOTH",
"289 452 OFFCURVE",
"254 435 OFFCURVE",
"220 409 CURVE",
"233 506 OFFCURVE",
"282 570 OFFCURVE",
"352 570 CURVE SMOOTH",
"389 570 OFFCURVE",
"414 557 OFFCURVE",
"429 535 CURVE",
"567 583 LINE",
"533 640 OFFCURVE",
"469 680 OFFCURVE",
"370 680 CURVE SMOOTH",
"170 680 OFFCURVE",
"66 509 OFFCURVE",
"46 318 CURVE SMOOTH",
"26 130 OFFCURVE",
"95 -12 OFFCURVE",
"289 -12 CURVE SMOOTH"
);
},
{
closed = 1;
nodes = (
"226 101 OFFCURVE",
"185 155 OFFCURVE",
"193 227 CURVE SMOOTH",
"201 300 OFFCURVE",
"243 339 OFFCURVE",
"308 339 CURVE SMOOTH",
"368 339 OFFCURVE",
"407 303 OFFCURVE",
"407 227 CURVE",
"406 155 OFFCURVE",
"357 101 OFFCURVE",
"293 101 CURVE SMOOTH"
);
}
);
};
layerId = "30D4BC2E-225F-4273-AE59-0FC741A5E71E";
paths = (
{
closed = 1;
nodes = (
"445 -12 OFFCURVE",
"562 98 OFFCURVE",
"562 243 CURVE SMOOTH",
"562 373 OFFCURVE",
"465 452 OFFCURVE",
"349 452 CURVE SMOOTH",
"289 452 OFFCURVE",
"254 435 OFFCURVE",
"220 409 CURVE",
"233 506 OFFCURVE",
"282 570 OFFCURVE",
"352 570 CURVE SMOOTH",
"389 570 OFFCURVE",
"414 557 OFFCURVE",
"429 535 CURVE",
"567 583 LINE",
"533 640 OFFCURVE",
"469 680 OFFCURVE",
"370 680 CURVE SMOOTH",
"162 680 OFFCURVE",
"43 486 OFFCURVE",
"43 258 CURVE SMOOTH",
"43 100 OFFCURVE",
"116 -12 OFFCURVE",
"289 -12 CURVE SMOOTH"
);
},
{
closed = 1;
nodes = (
"232 101 OFFCURVE",
"192 146 OFFCURVE",
"192 209 CURVE SMOOTH",
"192 283 OFFCURVE",
"231 339 OFFCURVE",
"308 339 CURVE SMOOTH",
"368 339 OFFCURVE",
"407 303 OFFCURVE",
"407 227 CURVE SMOOTH",
"406 155 OFFCURVE",
"357 101 OFFCURVE",
"293 101 CURVE SMOOTH"
);
}
);
width = 629;
}
);
unicode = 0036;
},
{
color = (255,153,254,255);
glyphname = seven;
lastChange = "2021-04-29 22:51:25 +0000";
layers = (
{
background = {
paths = (
{
closed = 1;
nodes = (
"139 0 LINE",
"550 587 LINE",
"567 668 LINE",
"96 668 LINE",
"78 587 LINE",
"445 587 LINE",
"31 0 LINE"
);
}
);
};
layerId = "678C5AFE-F8DA-443A-BB17-9B03ED7099AB";
paths = (
{
closed = 1;
nodes = (
"139 0 LINE",
"550 587 LINE",
"567 668 LINE",
"96 668 LINE",
"78 587 LINE",
"445 587 LINE",
"31 0 LINE"
);
}
);
width = 537;
},
{
background = {
paths = (
{
closed = 1;
nodes = (
"194 0 LINE",
"567 543 LINE",
"593 668 LINE",
"80 668 LINE",
"53 543 LINE",
"400 543 LINE",
"13 0 LINE"
);
}
);
};
layerId = "30D4BC2E-225F-4273-AE59-0FC741A5E71E";
paths = (
{
closed = 1;
nodes = (
"194 0 LINE",
"567 543 LINE",
"593 668 LINE",
"80 668 LINE",
"53 543 LINE",
"400 543 LINE",
"13 0 LINE"
);
}
);
width = 561;
}
);
unicode = 0037;
},
{
color = (255,153,254,255);
glyphname = eight;
lastChange = "2021-04-29 22:51:25 +0000";
layers = (
{
background = {
paths = (
{
closed = 1;
nodes = (
"411 -12 OFFCURVE",
"534 67 OFFCURVE",
"534 212 CURVE SMOOTH",
"534 286 OFFCURVE",
"493 339 OFFCURVE",
"429 365 CURVE",
"473 402 OFFCURVE",
"501 457 OFFCURVE",
"501 516 CURVE SMOOTH",
"501 608 OFFCURVE",
"432 680 OFFCURVE",
"338 680 CURVE SMOOTH",
"232 680 OFFCURVE",
"137 587 OFFCURVE",
"137 479 CURVE SMOOTH",
"137 435 OFFCURVE",
"153 394 OFFCURVE",
"181 365 CURVE",
"98 334 OFFCURVE",
"38 265 OFFCURVE",
"38 166 CURVE SMOOTH",
"38 52 OFFCURVE",
"134 -12 OFFCURVE",
"266 -12 CURVE SMOOTH"
);
},
{
closed = 1;
nodes = (
"184 63 OFFCURVE",
"129 104 OFFCURVE",
"129 174 CURVE SMOOTH",
"129 261 OFFCURVE",
"200 317 OFFCURVE",
"299 317 CURVE SMOOTH",
"389 317 OFFCURVE",
"444 273 OFFCURVE",
"444 203 CURVE SMOOTH",
"444 116 OFFCURVE",
"374 63 OFFCURVE",
"274 63 CURVE SMOOTH"
);
},
{
closed = 1;
nodes = (
"252 391 OFFCURVE",
"211 433 OFFCURVE",
"211 487 CURVE SMOOTH",
"211 552 OFFCURVE",
"267 605 OFFCURVE",
"329 605 CURVE SMOOTH",
"385 605 OFFCURVE",
"427 564 OFFCURVE",
"427 509 CURVE SMOOTH",
"427 445 OFFCURVE",
"370 391 OFFCURVE",
"307 391 CURVE SMOOTH"
);
}
);
};
layerId = "678C5AFE-F8DA-443A-BB17-9B03ED7099AB";
paths = (
{
closed = 1;
nodes = (
"411 -12 OFFCURVE",
"534 67 OFFCURVE",
"534 212 CURVE SMOOTH",
"534 286 OFFCURVE",
"493 339 OFFCURVE",
"429 365 CURVE",
"473 402 OFFCURVE",
"501 457 OFFCURVE",
"501 516 CURVE SMOOTH",
"501 608 OFFCURVE",
"432 680 OFFCURVE",
"338 680 CURVE SMOOTH",
"232 680 OFFCURVE",
"137 587 OFFCURVE",
"137 479 CURVE SMOOTH",
"137 435 OFFCURVE",
"153 394 OFFCURVE",
"181 365 CURVE",
"98 334 OFFCURVE",
"38 265 OFFCURVE",
"38 166 CURVE SMOOTH",
"38 52 OFFCURVE",
"134 -12 OFFCURVE",
"266 -12 CURVE SMOOTH"
);
},
{
closed = 1;
nodes = (
"184 63 OFFCURVE",
"129 104 OFFCURVE",
"129 174 CURVE SMOOTH",
"129 261 OFFCURVE",
"200 317 OFFCURVE",
"299 317 CURVE SMOOTH",
"389 317 OFFCURVE",
"444 273 OFFCURVE",
"444 203 CURVE SMOOTH",
"444 116 OFFCURVE",
"374 63 OFFCURVE",
"274 63 CURVE SMOOTH"
);
},
{
closed = 1;
nodes = (
"252 391 OFFCURVE",
"211 433 OFFCURVE",
"211 487 CURVE SMOOTH",
"211 552 OFFCURVE",
"267 605 OFFCURVE",
"329 605 CURVE SMOOTH",
"385 605 OFFCURVE",
"427 564 OFFCURVE",
"427 509 CURVE SMOOTH",
"427 445 OFFCURVE",
"370 391 OFFCURVE",
"307 391 CURVE SMOOTH"
);
}
);
width = 617;
},
{
background = {
paths = (
{
closed = 1;
nodes = (
"441 -12 OFFCURVE",
"544 73 OFFCURVE",
"556 201 CURVE SMOOTH",
"564 288 OFFCURVE",
"513 342 OFFCURVE",
"455 373 CURVE",
"481 399 OFFCURVE",
"501 444 OFFCURVE",
"507 494 CURVE SMOOTH",
"518 585 OFFCURVE",
"446 680 OFFCURVE",
"334 680 CURVE SMOOTH",
"208 680 OFFCURVE",
"127 585 OFFCURVE",
"121 486 CURVE SMOOTH",
"119 446 OFFCURVE",
"130 409 OFFCURVE",
"147 378 CURVE",
"67 336 OFFCURVE",
"19 283 OFFCURVE",
"13 201 CURVE SMOOTH",
"4 76 OFFCURVE",
"105 -12 OFFCURVE",
"274 -12 CURVE SMOOTH"
);
},
{
closed = 1;
nodes = (
"210 114 OFFCURVE",
"162 151 OFFCURVE",
"167 206 CURVE SMOOTH",
"172 262 OFFCURVE",
"221 294 OFFCURVE",
"291 294 CURVE SMOOTH",
"359 294 OFFCURVE",
"408 262 OFFCURVE",
"402 206 CURVE SMOOTH",
"396 152 OFFCURVE",
"348 114 OFFCURVE",
"280 114 CURVE SMOOTH"
);
},
{
closed = 1;
nodes = (
"270 417 OFFCURVE",
"242 448 OFFCURVE",
"246 486 CURVE SMOOTH",
"250 525 OFFCURVE",
"284 555 OFFCURVE",
"321 555 CURVE SMOOTH",
"359 555 OFFCURVE",
"386 525 OFFCURVE",
"382 486 CURVE SMOOTH",
"378 448 OFFCURVE",
"344 417 OFFCURVE",
"307 417 CURVE SMOOTH"
);
}
);
};
layerId = "30D4BC2E-225F-4273-AE59-0FC741A5E71E";
paths = (
{
closed = 1;
nodes = (
"441 -12 OFFCURVE",
"556 83 OFFCURVE",
"556 211 CURVE SMOOTH",
"556 298 OFFCURVE",
"513 342 OFFCURVE",
"455 373 CURVE",
"486 404 OFFCURVE",
"508 466 OFFCURVE",
"508 512 CURVE SMOOTH",
"508 597 OFFCURVE",
"438 680 OFFCURVE",
"334 680 CURVE SMOOTH",
"204 680 OFFCURVE",
"121 579 OFFCURVE",
"121 477 CURVE SMOOTH",
"121 440 OFFCURVE",
"131 407 OFFCURVE",
"147 378 CURVE",
"62 333 OFFCURVE",
"12 276 OFFCURVE",
"12 186 CURVE SMOOTH",
"12 69 OFFCURVE",
"112 -12 OFFCURVE",
"274 -12 CURVE SMOOTH"
);
},
{
closed = 1;
nodes = (
"213 114 OFFCURVE",
"167 148 OFFCURVE",
"167 198 CURVE SMOOTH",
"167 259 OFFCURVE",
"218 294 OFFCURVE",
"291 294 CURVE SMOOTH",
"355 294 OFFCURVE",
"402 265 OFFCURVE",
"402 215 CURVE SMOOTH",
"402 156 OFFCURVE",
"352 114 OFFCURVE",
"280 114 CURVE SMOOTH"
);
},
{
closed = 1;
nodes = (
"272 417 OFFCURVE",
"246 444 OFFCURVE",
"246 479 CURVE SMOOTH",
"246 521 OFFCURVE",
"282 555 OFFCURVE",
"321 555 CURVE SMOOTH",
"356 555 OFFCURVE",
"382 529 OFFCURVE",
"382 494 CURVE SMOOTH",
"382 452 OFFCURVE",
"346 417 OFFCURVE",
"307 417 CURVE SMOOTH"
);
}
);
width = 623;
}
);
unicode = 0038;
},
{
color = 4;
glyphname = nine;
lastChange = "2021-04-29 22:51:25 +0000";
layers = (
{
background = {
paths = (
{
closed = 1;
nodes = (
"267 0 LINE",
"304 44 OFFCURVE",
"453 217 OFFCURVE",
"531 335 CURVE SMOOTH",
"561 380 OFFCURVE",
"574 426 OFFCURVE",
"574 468 CURVE SMOOTH",
"574 585 OFFCURVE",
"484 680 OFFCURVE",
"359 680 CURVE SMOOTH",
"209 680 OFFCURVE",
"92 561 OFFCURVE",
"92 416 CURVE SMOOTH",
"92 305 OFFCURVE",
"167 209 OFFCURVE",
"302 209 CURVE SMOOTH",
"313 209 OFFCURVE",
"324 210 OFFCURVE",
"335 211 CURVE",
"151 0 LINE"
);
},
{
closed = 1;
nodes = (
"234 288 OFFCURVE",
"179 346 OFFCURVE",
"179 423 CURVE SMOOTH",
"179 527 OFFCURVE",
"263 596 OFFCURVE",
"353 596 CURVE SMOOTH",
"446 596 OFFCURVE",
"487 528 OFFCURVE",
"487 467 CURVE SMOOTH",
"487 377 OFFCURVE",
"410 288 OFFCURVE",
"312 288 CURVE SMOOTH"
);
}
);
};
layerId = "678C5AFE-F8DA-443A-BB17-9B03ED7099AB";
paths = (
{
closed = 1;
nodes = (
"267 0 LINE",
"304 44 OFFCURVE",
"453 217 OFFCURVE",
"531 335 CURVE SMOOTH",
"561 380 OFFCURVE",
"574 426 OFFCURVE",
"574 468 CURVE SMOOTH",
"574 585 OFFCURVE",
"484 680 OFFCURVE",
"359 680 CURVE SMOOTH",
"209 680 OFFCURVE",
"92 561 OFFCURVE",
"92 416 CURVE SMOOTH",
"92 305 OFFCURVE",
"167 209 OFFCURVE",
"302 209 CURVE SMOOTH",
"313 209 OFFCURVE",
"324 210 OFFCURVE",
"335 211 CURVE",
"151 0 LINE"
);
},
{
closed = 1;
nodes = (
"234 288 OFFCURVE",
"179 346 OFFCURVE",
"179 423 CURVE SMOOTH",
"179 527 OFFCURVE",
"263 596 OFFCURVE",
"353 596 CURVE SMOOTH",
"446 596 OFFCURVE",
"487 528 OFFCURVE",
"487 467 CURVE SMOOTH",
"487 377 OFFCURVE",
"410 288 OFFCURVE",
"312 288 CURVE SMOOTH"
);
}
);
width = 601;
},
{
background = {
paths = (
{
closed = 1;
nodes = (
"280 0 LINE",
"280 0 OFFCURVE",
"441 232 OFFCURVE",
"502 319 CURVE SMOOTH",
"617 482 OFFCURVE",
"529 627 OFFCURVE",
"418 666 CURVE SMOOTH",
"324 700 OFFCURVE",
"190 678 OFFCURVE",
"111 567 CURVE SMOOTH",
"4 416 OFFCURVE",
"81 216 OFFCURVE",
"271 222 CURVE",
"106 0 LINE"
);
},
{
closed = 1;
nodes = (
"240 333 OFFCURVE",
"194 376 OFFCURVE",
"203 437 CURVE SMOOTH",
"212 501 OFFCURVE",
"258 540 OFFCURVE",
"315 545 CURVE SMOOTH",
"382 551 OFFCURVE",
"422 507 OFFCURVE",
"417 441 CURVE SMOOTH",
"413 389 OFFCURVE",
"370 341 OFFCURVE",
"301 336 CURVE"
);
}
);
};
layerId = "30D4BC2E-225F-4273-AE59-0FC741A5E71E";
paths = (
{
closed = 1;
nodes = (
"280 0 LINE",
"306 36 OFFCURVE",
"441 232 OFFCURVE",
"502 319 CURVE SMOOTH",
"540 373 OFFCURVE",
"556 425 OFFCURVE",
"556 472 CURVE SMOOTH",
"556 590 OFFCURVE",
"460 681 OFFCURVE",
"332 681 CURVE SMOOTH",
"186 681 OFFCURVE",
"62 562 OFFCURVE",
"62 420 CURVE SMOOTH",
"62 317 OFFCURVE",
"133 226 OFFCURVE",
"254 222 CURVE SMOOTH",
"260 222 OFFCURVE",
"265 222 OFFCURVE",
"271 222 CURVE",
"106 0 LINE"
);
},
{
closed = 1;
nodes = (
"246 336 OFFCURVE",
"202 366 OFFCURVE",
"202 422 CURVE SMOOTH",
"202 489 OFFCURVE",
"253 546 OFFCURVE",
"327 546 CURVE SMOOTH",
"383 546 OFFCURVE",
"417 508 OFFCURVE",
"417 452 CURVE SMOOTH",
"417 396 OFFCURVE",
"371 336 OFFCURVE",
"297 336 CURVE SMOOTH"
);
}
);
width = 576;
}
);
unicode = 0039;
},
{
color = 4;
glyphname = A;
lastChange = "2021-04-29 22:51:25 +0000";
layers = (
{
anchors = (
{
name = bottom;
position = "{261, 0}";
},
{
name = ogonek;
position = "{513, 10}";
},
{
name = top;
position = "{387, 668}";
}
);
background = {
anchors = (
{
name = bottom;
position = "{261, 0}";
},
{
name = ogonek;
position = "{513, 10}";
},
{
name = top;
position = "{387, 668}";
}
);
paths = (
{
closed = 1;
nodes = (
"56 0 LINE",
"139 146 LINE",
"441 146 LINE",
"462 0 LINE",
"565 0 LINE",
"456 668 LINE",
"340 668 LINE",
"-52 0 LINE"
);
},
{
closed = 1;
nodes = (
"381 573 LINE",
"430 226 LINE",
"184 226 LINE"
);
}
);
};
layerId = "678C5AFE-F8DA-443A-BB17-9B03ED7099AB";
paths = (
{
closed = 1;
nodes = (
"56 0 LINE",
"139 146 LINE",
"441 146 LINE",
"462 0 LINE",
"565 0 LINE",
"456 668 LINE",
"340 668 LINE",
"-52 0 LINE"
);
},
{
closed = 1;
nodes = (
"381 573 LINE",
"430 226 LINE",
"184 226 LINE"
);
}
);
width = 627;
},
{
anchors = (
{
name = bottom;
position = "{296, 0}";
},
{
name = ogonek;
position = "{577, 10}";
},
{
name = top;
position = "{427, 668}";
}
);
background = {
paths = (
{
closed = 1;
nodes = (
"121 0 LINE",
"187 119 LINE",
"442 119 LINE",
"458 0 LINE",
"623 0 LINE",
"512 668 LINE",
"329 668 LINE",
"-65 0 LINE"
);
},
{
closed = 1;
nodes = (
"395 501 LINE",
"427 247 LINE",
"255 247 LINE"
);
}
);
};
layerId = "30D4BC2E-225F-4273-AE59-0FC741A5E71E";
paths = (
{
closed = 1;
nodes = (
"121 0 LINE",
"187 119 LINE",
"442 119 LINE",
"458 0 LINE",
"623 0 LINE",
"512 668 LINE",
"329 668 LINE",
"-65 0 LINE"
);
},
{
closed = 1;
nodes = (
"395 501 LINE",
"427 247 LINE",
"255 247 LINE"
);
}
);
width = 698;
}
);
leftKerningGroup = A1;
rightKerningGroup = A_2;
unicode = 0041;
},
{
color = 4;
glyphname = B;
lastChange = "2021-04-29 22:51:25 +0000";
layers = (
{
background = {
paths = (
{
closed = 1;
nodes = (
"300 0 LINE SMOOTH",
"485 0 OFFCURVE",
"572 119 OFFCURVE",
"572 221 CURVE SMOOTH",
"572 279 OFFCURVE",
"544 331 OFFCURVE",
"490 352 CURVE",
"564 387 OFFCURVE",
"604 454 OFFCURVE",
"604 518 CURVE SMOOTH",
"604 596 OFFCURVE",
"543 668 OFFCURVE",
"407 668 CURVE SMOOTH",
"156 668 LINE",
"14 0 LINE"
);
},
{
closed = 1;
nodes = (
"176 308 LINE",
"348 308 LINE SMOOTH",
"431 308 OFFCURVE",
"468 263 OFFCURVE",
"468 213 CURVE SMOOTH",
"468 150 OFFCURVE",
"409 79 OFFCURVE",
"308 79 CURVE SMOOTH",
"127 79 LINE"
);
},
{
closed = 1;
nodes = (
"235 588 LINE",
"400 588 LINE SMOOTH",
"470 588 OFFCURVE",
"504 545 OFFCURVE",
"504 499 CURVE SMOOTH",
"504 443 OFFCURVE",
"456 382 OFFCURVE",
"364 382 CURVE SMOOTH",
"192 382 LINE"
);
}
);
};
layerId = "678C5AFE-F8DA-443A-BB17-9B03ED7099AB";
paths = (
{
closed = 1;
nodes = (
"300 0 LINE SMOOTH",
"485 0 OFFCURVE",
"572 119 OFFCURVE",
"572 221 CURVE SMOOTH",
"572 279 OFFCURVE",
"544 331 OFFCURVE",
"490 352 CURVE",
"564 387 OFFCURVE",
"604 454 OFFCURVE",
"604 518 CURVE SMOOTH",
"604 596 OFFCURVE",
"543 668 OFFCURVE",
"407 668 CURVE SMOOTH",
"156 668 LINE",
"14 0 LINE"
);
},
{
closed = 1;
nodes = (
"176 308 LINE",
"348 308 LINE SMOOTH",
"431 308 OFFCURVE",
"468 263 OFFCURVE",
"468 213 CURVE SMOOTH",
"468 150 OFFCURVE",
"409 79 OFFCURVE",
"308 79 CURVE SMOOTH",
"127 79 LINE"
);
},
{
closed = 1;
nodes = (
"235 588 LINE",
"400 588 LINE SMOOTH",
"470 588 OFFCURVE",
"504 545 OFFCURVE",
"504 499 CURVE SMOOTH",
"504 443 OFFCURVE",
"456 382 OFFCURVE",
"364 382 CURVE SMOOTH",
"192 382 LINE"
);
}
);
width = 625;
},
{
background = {
paths = (
{
closed = 1;
nodes = (
"283 0 LINE SMOOTH",
"463 0 OFFCURVE",
"576 73 OFFCURVE",
"596 185 CURVE SMOOTH",
"612 277 OFFCURVE",
"580 329 OFFCURVE",
"523 355 CURVE",
"584 383 OFFCURVE",
"623 433 OFFCURVE",
"631 495 CURVE SMOOTH",
"649 634 OFFCURVE",
"540 668 OFFCURVE",
"413 668 CURVE SMOOTH",
"119 668 LINE",
"-23 0 LINE"
);
},
{
closed = 1;
nodes = (
"198 282 LINE",
"339 282 LINE SMOOTH",
"406 282 OFFCURVE",
"441 254 OFFCURVE",
"431 207 CURVE SMOOTH",
"422 163 OFFCURVE",
"377 131 OFFCURVE",
"313 131 CURVE SMOOTH",
"166 131 LINE"
);
},
{
closed = 1;
nodes = (
"253 539 LINE",
"391 539 LINE SMOOTH",
"446 539 OFFCURVE",
"469 512 OFFCURVE",
"463 472 CURVE SMOOTH",
"457 430 OFFCURVE",
"417 404 OFFCURVE",
"363 404 CURVE SMOOTH",
"224 404 LINE"
);
}
);
};
layerId = "30D4BC2E-225F-4273-AE59-0FC741A5E71E";
paths = (
{
closed = 1;
nodes = (
"283 0 LINE SMOOTH",
"455 0 OFFCURVE",
"600 69 OFFCURVE",
"600 229 CURVE SMOOTH",
"600 294 OFFCURVE",
"570 334 OFFCURVE",
"523 355 CURVE",
"593 387 OFFCURVE",
"633 449 OFFCURVE",
"633 524 CURVE SMOOTH",
"633 639 OFFCURVE",
"531 668 OFFCURVE",
"413 668 CURVE SMOOTH",
"119 668 LINE",
"-23 0 LINE"
);
},
{
closed = 1;
nodes = (
"198 282 LINE",
"339 282 LINE SMOOTH",
"398 282 OFFCURVE",
"433 260 OFFCURVE",
"433 222 CURVE SMOOTH",
"433 171 OFFCURVE",
"384 131 OFFCURVE",
"313 131 CURVE SMOOTH",
"166 131 LINE"
);
},
{
closed = 1;
nodes = (
"253 539 LINE",
"391 539 LINE SMOOTH",
"440 539 OFFCURVE",
"464 517 OFFCURVE",
"464 484 CURVE SMOOTH",
"464 435 OFFCURVE",
"422 404 OFFCURVE",
"363 404 CURVE SMOOTH",
"224 404 LINE"
);
}
);
width = 643;
}
);
leftKerningGroup = B;
leftMetricsKey = H;
rightMetricsKey = "=H/2";
unicode = 0042;
},
{
color = 4;
glyphname = C;
lastChange = "2021-04-29 22:51:25 +0000";
layers = (
{
anchors = (
{
name = bottom;
position = "{295, 0}";
},
{
name = top;
position = "{420, 668}";
}
);
background = {
anchors = (
{
name = bottom;
position = "{295, 0}";
},
{
name = top;
position = "{420, 668}";
}
);
paths = (
{
closed = 1;
nodes = (
"433 -12 OFFCURVE",
"532 39 OFFCURVE",
"595 140 CURVE",
"516 171 LINE",
"468 99 OFFCURVE",
"412 67 OFFCURVE",
"325 67 CURVE SMOOTH",
"218 67 OFFCURVE",
"149 151 OFFCURVE",
"149 272 CURVE SMOOTH",
"149 435 OFFCURVE",
"251 600 OFFCURVE",
"411 600 CURVE SMOOTH",
"487 600 OFFCURVE",
"544 565 OFFCURVE",
"566 498 CURVE",
"655 528 LINE",
"623 631 OFFCURVE",
"537 680 OFFCURVE",
"421 680 CURVE SMOOTH",
"204 680 OFFCURVE",
"53 485 OFFCURVE",
"53 263 CURVE SMOOTH",
"53 123 OFFCURVE",
"124 -12 OFFCURVE",
"315 -12 CURVE SMOOTH"
);
}
);
};
layerId = "678C5AFE-F8DA-443A-BB17-9B03ED7099AB";
paths = (
{
closed = 1;
nodes = (
"433 -12 OFFCURVE",
"532 39 OFFCURVE",
"595 140 CURVE",
"516 171 LINE",
"468 99 OFFCURVE",
"412 67 OFFCURVE",
"325 67 CURVE SMOOTH",
"218 67 OFFCURVE",
"149 151 OFFCURVE",
"149 272 CURVE SMOOTH",
"149 435 OFFCURVE",
"251 600 OFFCURVE",
"411 600 CURVE SMOOTH",
"487 600 OFFCURVE",
"544 565 OFFCURVE",
"566 498 CURVE",
"655 528 LINE",
"623 631 OFFCURVE",
"537 680 OFFCURVE",
"421 680 CURVE SMOOTH",
"204 680 OFFCURVE",
"53 485 OFFCURVE",
"53 263 CURVE SMOOTH",
"53 123 OFFCURVE",
"124 -12 OFFCURVE",
"315 -12 CURVE SMOOTH"
);
}
);
width = 661;
},
{
anchors = (
{
name = bottom;
position = "{311, 0}";
},
{
name = top;
position = "{428, 668}";
}
);
background = {
paths = (
{
closed = 1;
nodes = (
"448 -18 OFFCURVE",
"552 41 OFFCURVE",
"616 141 CURVE",
"480 194 LINE",
"437 138 OFFCURVE",
"388 120 OFFCURVE",
"338 120 CURVE",
"245 121 OFFCURVE",
"184 192 OFFCURVE",
"204 334 CURVE",
"225 474 OFFCURVE",
"308 550 OFFCURVE",
"401 550 CURVE SMOOTH",
"455 550 OFFCURVE",
"501 532 OFFCURVE",
"525 476 CURVE",
"671 525 LINE",
"633 641 OFFCURVE",
"521 680 OFFCURVE",
"417 680 CURVE SMOOTH",
"223 680 OFFCURVE",
"72 563 OFFCURVE",
"37 334 CURVE SMOOTH",
"4 111 OFFCURVE",
"128 -5 OFFCURVE",
"302 -12 CURVE SMOOTH"
);
}
);
};
layerId = "30D4BC2E-225F-4273-AE59-0FC741A5E71E";
paths = (
{
closed = 1;
nodes = (
"458 -12 OFFCURVE",
"555 46 OFFCURVE",
"616 141 CURVE",
"480 194 LINE",
"437 138 OFFCURVE",
"388 120 OFFCURVE",
"338 120 CURVE",
"257 121 OFFCURVE",
"200 175 OFFCURVE",
"200 283 CURVE SMOOTH",
"200 418 OFFCURVE",
"276 550 OFFCURVE",
"401 550 CURVE SMOOTH",
"455 550 OFFCURVE",
"501 532 OFFCURVE",
"525 476 CURVE",
"671 525 LINE",
"633 641 OFFCURVE",
"521 680 OFFCURVE",
"417 680 CURVE SMOOTH",
"181 680 OFFCURVE",
"32 501 OFFCURVE",
"32 265 CURVE SMOOTH",
"32 79 OFFCURVE",
"157 -12 OFFCURVE",
"322 -12 CURVE SMOOTH"
);
}
);
width = 673;
}
);
leftKerningGroup = C;
leftMetricsKey = O;
rightKerningGroup = C_2;
rightMetricsKey = "=H/2";
unicode = 0043;
},
{
color = 4;
glyphname = D;
lastChange = "2021-04-29 22:51:25 +0000";
layers = (
{
anchors = (
{
name = bottom;
position = "{285, 0}";
},
{
name = center;
position = "{356, 334}";
},
{
name = top;
position = "{397, 668}";
}
);
background = {
anchors = (
{
name = bottom;
position = "{285, 0}";
},
{
name = center;
position = "{356, 334}";
},
{
name = top;
position = "{397, 668}";
}
);
paths = (
{
closed = 1;
nodes = (
"199 0 LINE SMOOTH",
"427 0 OFFCURVE",
"595 104 OFFCURVE",
"631 319 CURVE SMOOTH",
"670 552 OFFCURVE",
"577 668 OFFCURVE",
"340 668 CURVE SMOOTH",
"156 668 LINE",
"14 0 LINE"
);
},
{
closed = 1;
nodes = (
"235 588 LINE",
"320 588 LINE SMOOTH",
"503 588 OFFCURVE",
"568 513 OFFCURVE",
"536 325 CURVE SMOOTH",
"505 143 OFFCURVE",
"376 79 OFFCURVE",
"213 79 CURVE SMOOTH",
"127 79 LINE"
);
}
);
};
layerId = "678C5AFE-F8DA-443A-BB17-9B03ED7099AB";
paths = (
{
closed = 1;
nodes = (
"199 0 LINE SMOOTH",
"427 0 OFFCURVE",
"595 104 OFFCURVE",
"631 319 CURVE SMOOTH",
"670 552 OFFCURVE",
"577 668 OFFCURVE",
"340 668 CURVE SMOOTH",
"156 668 LINE",
"14 0 LINE"
);
},
{
closed = 1;
nodes = (
"235 588 LINE",
"320 588 LINE SMOOTH",
"503 588 OFFCURVE",
"568 513 OFFCURVE",
"536 325 CURVE SMOOTH",
"505 143 OFFCURVE",
"376 79 OFFCURVE",
"213 79 CURVE SMOOTH",
"127 79 LINE"
);
}
);
width = 674;
},
{
anchors = (
{
name = bottom;
position = "{292, 0}";
},
{
name = center;
position = "{363, 334}";
},
{
name = top;
position = "{404, 668}";
}
);
background = {
paths = (
{
closed = 1;
nodes = (
"200 0 LINE SMOOTH",
"397 0 OFFCURVE",
"608 74 OFFCURVE",
"651 312 CURVE SMOOTH",
"690 527 OFFCURVE",
"583 668 OFFCURVE",
"313 668 CURVE SMOOTH",
"119 668 LINE",
"-23 0 LINE"
);
},
{
closed = 1;
nodes = (
"253 537 LINE",
"311 537 LINE SMOOTH",
"471 537 OFFCURVE",
"502 476 OFFCURVE",
"488 355 CURVE SMOOTH",
"473 226 OFFCURVE",
"392 133 OFFCURVE",
"230 133 CURVE SMOOTH",
"167 133 LINE"
);
}
);
};
layerId = "30D4BC2E-225F-4273-AE59-0FC741A5E71E";
paths = (
{
closed = 1;
nodes = (
"200 0 LINE SMOOTH",
"397 0 OFFCURVE",
"608 74 OFFCURVE",
"651 312 CURVE SMOOTH",
"693 544 OFFCURVE",
"564 668 OFFCURVE",
"313 668 CURVE SMOOTH",
"119 668 LINE",
"-23 0 LINE"
);
},
{
closed = 1;
nodes = (
"253 537 LINE",
"311 537 LINE SMOOTH",
"455 537 OFFCURVE",
"504 491 OFFCURVE",
"488 355 CURVE SMOOTH",
"473 226 OFFCURVE",
"392 133 OFFCURVE",
"230 133 CURVE SMOOTH",
"167 133 LINE"
);
}
);
width = 690;
}
);
leftKerningGroup = B;
leftMetricsKey = H;
rightKerningGroup = D;
rightMetricsKey = O;
unicode = 0044;
},
{
color = 4;
glyphname = E;
lastChange = "2021-04-29 22:51:25 +0000";
layers = (
{
anchors = (
{
name = bottom;
position = "{230, 0}";
},
{
name = ogonek;
position = "{438, 0}";
},
{
name = top;
position = "{381, 668}";
},
{
name = topleft;
position = "{109, 668}";
}
);
background = {
anchors = (
{
name = bottom;
position = "{230, 0}";
},
{
name = ogonek;
position = "{438, 0}";
},
{
name = top;
position = "{381, 668}";
},
{
name = topleft;
position = "{109, 668}";
}
);
paths = (
{
closed = 1;
nodes = (
"469 0 LINE",
"486 81 LINE",
"127 81 LINE",
"175 304 LINE",
"439 304 LINE",
"457 384 LINE",
"192 384 LINE",
"235 587 LINE",
"594 587 LINE",
"611 668 LINE",
"156 668 LINE",
"14 0 LINE"
);
}
);
};
layerId = "678C5AFE-F8DA-443A-BB17-9B03ED7099AB";
paths = (
{
closed = 1;
nodes = (
"469 0 LINE",
"486 81 LINE",
"127 81 LINE",
"175 304 LINE",
"439 304 LINE",
"457 384 LINE",
"192 384 LINE",
"235 587 LINE",
"594 587 LINE",
"611 668 LINE",
"156 668 LINE",
"14 0 LINE"
);
}
);
width = 565;
},
{
anchors = (
{
name = bottom;
position = "{238, 0}";
},
{
name = ogonek;
position = "{463, -12}";
},
{
name = top;
position = "{384, 668}";
},
{
name = topleft;
position = "{109, 668}";
}
);
background = {
paths = (
{
closed = 1;
nodes = (
"495 0 LINE",
"524 139 LINE",
"168 139 LINE",
"197 274 LINE",
"414 274 LINE",
"443 413 LINE",
"226 413 LINE",
"251 529 LINE",
"607 529 LINE",
"637 668 LINE",
"119 668 LINE",
"-23 0 LINE"
);
}
);
};
layerId = "30D4BC2E-225F-4273-AE59-0FC741A5E71E";
paths = (
{
closed = 1;
nodes = (
"495 0 LINE",
"524 139 LINE",
"168 139 LINE",
"197 274 LINE",
"414 274 LINE",
"443 413 LINE",
"226 413 LINE",
"251 529 LINE",
"607 529 LINE",
"637 668 LINE",
"119 668 LINE",
"-23 0 LINE"
);
}
);
width = 582;
}
);
leftKerningGroup = B;
leftMetricsKey = H;
rightKerningGroup = E;
rightMetricsKey = "=H/2";
unicode = 0045;
},
{
color = (255,153,254,255);
glyphname = F;
lastChange = "2021-04-29 22:51:25 +0000";
layers = (
{
background = {
paths = (
{
closed = 1;
nodes = (
"110 0 LINE",
"175 304 LINE",
"514 304 LINE",
"531 384 LINE",
"192 384 LINE",
"235 587 LINE",
"574 587 LINE",
"592 668 LINE",
"156 668 LINE",
"14 0 LINE"
);
}
);
};
layerId = "678C5AFE-F8DA-443A-BB17-9B03ED7099AB";
paths = (
{
closed = 1;
nodes = (
"110 0 LINE",
"175 304 LINE",
"514 304 LINE",
"531 384 LINE",
"192 384 LINE",
"235 587 LINE",
"574 587 LINE",
"592 668 LINE",
"156 668 LINE",
"14 0 LINE"
);
}
);
width = 546;
},
{
background = {
paths = (
{
closed = 1;
nodes = (
"138 0 LINE",
"197 274 LINE",
"517 274 LINE",
"546 413 LINE",
"226 413 LINE",
"251 529 LINE",
"571 529 LINE",
"600 668 LINE",
"119 668 LINE",
"-23 0 LINE"
);
}
);
};
layerId = "30D4BC2E-225F-4273-AE59-0FC741A5E71E";
paths = (
{
closed = 1;
nodes = (
"138 0 LINE",
"197 274 LINE",
"517 274 LINE",
"546 413 LINE",
"226 413 LINE",
"251 529 LINE",
"571 529 LINE",
"600 668 LINE",
"119 668 LINE",
"-23 0 LINE"
);
}
);
width = 545;
}
);
leftKerningGroup = B;
leftMetricsKey = H;
rightMetricsKey = "=H/2";
unicode = 0046;
},
{
color = 4;
glyphname = G;
lastChange = "2021-04-29 22:51:25 +0000";
layers = (
{
anchors = (
{
name = bottom;
position = "{303, 0}";
},
{
name = top;
position = "{445, 668}";
}
);
background = {
anchors = (
{
name = bottom;
position = "{303, 0}";
},
{
name = top;
position = "{445, 668}";
}
);
paths = (
{
closed = 1;
nodes = (
"390 -12 OFFCURVE",
"462 18 OFFCURVE",
"519 82 CURVE",
"525 0 LINE",
"581 0 LINE",
"655 344 LINE",
"368 344 LINE",
"351 264 LINE",
"547 264 LINE",
"542 243 LINE SMOOTH",
"509 106 OFFCURVE",
"417 63 OFFCURVE",
"317 67 CURVE SMOOTH",
"221 70 OFFCURVE",
"150 145 OFFCURVE",
"150 273 CURVE SMOOTH",
"150 437 OFFCURVE",
"249 600 OFFCURVE",
"411 600 CURVE SMOOTH",
"503 600 OFFCURVE",
"552 549 OFFCURVE",
"566 498 CURVE",
"655 528 LINE",
"625 629 OFFCURVE",
"542 680 OFFCURVE",
"418 680 CURVE SMOOTH",
"204 680 OFFCURVE",
"54 489 OFFCURVE",
"54 265 CURVE SMOOTH",
"54 101 OFFCURVE",
"144 -12 OFFCURVE",
"300 -12 CURVE SMOOTH"
);
}
);
};
layerId = "678C5AFE-F8DA-443A-BB17-9B03ED7099AB";
paths = (
{
closed = 1;
nodes = (
"390 -12 OFFCURVE",
"462 18 OFFCURVE",
"519 82 CURVE",
"525 0 LINE",
"581 0 LINE",
"655 344 LINE",
"368 344 LINE",
"351 264 LINE",
"547 264 LINE",
"542 243 LINE SMOOTH",
"509 106 OFFCURVE",
"417 63 OFFCURVE",
"317 67 CURVE SMOOTH",
"221 70 OFFCURVE",
"150 145 OFFCURVE",
"150 273 CURVE SMOOTH",
"150 437 OFFCURVE",
"249 600 OFFCURVE",
"411 600 CURVE SMOOTH",
"503 600 OFFCURVE",
"552 549 OFFCURVE",
"566 498 CURVE",
"655 528 LINE",
"625 629 OFFCURVE",
"542 680 OFFCURVE",
"418 680 CURVE SMOOTH",
"204 680 OFFCURVE",
"54 489 OFFCURVE",
"54 265 CURVE SMOOTH",
"54 101 OFFCURVE",
"144 -12 OFFCURVE",
"300 -12 CURVE SMOOTH"
);
}
);
width = 712;
},
{
anchors = (
{
name = bottom;
position = "{304, 0}";
},
{
name = top;
position = "{440, 668}";
}
);
background = {
paths = (
{
closed = 1;
nodes = (
"377 -12 OFFCURVE",
"448 16 OFFCURVE",
"504 74 CURVE",
"510 0 LINE",
"617 0 LINE",
"698 378 LINE",
"386 378 LINE",
"359 250 LINE",
"509 250 LINE",
"505 231 LINE SMOOTH",
"487 146 OFFCURVE",
"398 111 OFFCURVE",
"326 118 CURVE SMOOTH",
"234 127 OFFCURVE",
"182 200 OFFCURVE",
"204 336 CURVE SMOOTH",
"226 474 OFFCURVE",
"304 550 OFFCURVE",
"400 550 CURVE SMOOTH",
"469 550 OFFCURVE",
"515 513 OFFCURVE",
"529 478 CURVE",
"677 535 LINE",
"634 637 OFFCURVE",
"539 680 OFFCURVE",
"422 680 CURVE SMOOTH",
"220 680 OFFCURVE",
"73 554 OFFCURVE",
"37 336 CURVE SMOOTH",
"0 110 OFFCURVE",
"130 -12 OFFCURVE",
"282 -12 CURVE SMOOTH"
);
}
);
};
layerId = "30D4BC2E-225F-4273-AE59-0FC741A5E71E";
paths = (
{
closed = 1;
nodes = (
"377 -12 OFFCURVE",
"448 16 OFFCURVE",
"504 74 CURVE",
"510 0 LINE",
"617 0 LINE",
"698 378 LINE",
"386 378 LINE",
"359 250 LINE",
"509 250 LINE",
"505 231 LINE SMOOTH",
"489 153 OFFCURVE",
"412 117 OFFCURVE",
"344 117 CURVE SMOOTH",
"256 117 OFFCURVE",
"199 171 OFFCURVE",
"199 278 CURVE SMOOTH",
"199 411 OFFCURVE",
"269 550 OFFCURVE",
"400 550 CURVE SMOOTH",
"469 550 OFFCURVE",
"515 513 OFFCURVE",
"529 478 CURVE",
"677 535 LINE",
"634 637 OFFCURVE",
"539 680 OFFCURVE",
"422 680 CURVE SMOOTH",
"185 680 OFFCURVE",
"31 499 OFFCURVE",
"31 261 CURVE SMOOTH",
"31 83 OFFCURVE",
"148 -12 OFFCURVE",
"282 -12 CURVE SMOOTH"
);
}
);
width = 733;
}
);
leftKerningGroup = C;
leftMetricsKey = O;
unicode = 0047;
},
{
color = 4;
glyphname = H;
lastChange = "2021-04-29 22:51:25 +0000";
layers = (
{
background = {
paths = (
{
closed = 1;
nodes = (
"110 0 LINE",
"175 304 LINE",
"524 304 LINE",
"460 0 LINE",
"556 0 LINE",
"698 668 LINE",
"602 668 LINE",
"542 384 LINE",
"192 384 LINE",
"252 668 LINE",
"156 668 LINE",
"14 0 LINE"
);
}
);
};
guideLines = (
{
position = "{0, 224}";
showMeasurement = 1;
}
);
layerId = "678C5AFE-F8DA-443A-BB17-9B03ED7099AB";
paths = (
{
closed = 1;
nodes = (
"110 0 LINE",
"175 304 LINE",
"524 304 LINE",
"460 0 LINE",
"556 0 LINE",
"698 668 LINE",
"602 668 LINE",
"542 384 LINE",
"192 384 LINE",
"252 668 LINE",
"156 668 LINE",
"14 0 LINE"
);
}
);
width = 694;
},
{
background = {
paths = (
{
closed = 1;
nodes = (
"138 0 LINE",
"197 274 LINE",
"472 274 LINE",
"414 0 LINE",
"575 0 LINE",
"717 668 LINE",
"556 668 LINE",
"502 413 LINE",
"226 413 LINE",
"279 668 LINE",
"119 668 LINE",
"-23 0 LINE"
);
}
);
};
layerId = "30D4BC2E-225F-4273-AE59-0FC741A5E71E";
paths = (
{
closed = 1;
nodes = (
"138 0 LINE",
"197 274 LINE",
"472 274 LINE",
"414 0 LINE",
"575 0 LINE",
"717 668 LINE",
"556 668 LINE",
"502 413 LINE",
"226 413 LINE",
"279 668 LINE",
"119 668 LINE",
"-23 0 LINE"
);
}
);
width = 695;
}
);
leftKerningGroup = B;
rightKerningGroup = H;
unicode = 0048;
},
{
color = 4;
glyphname = I;
lastChange = "2021-04-29 22:51:25 +0000";
layers = (
{
anchors = (
{
name = bottom;
position = "{150, 0}";
},
{
name = ogonek;
position = "{196, 0}";
},
{
name = top;
position = "{287, 668}";
},
{
name = topleft;
position = "{109, 668}";
}
);
background = {
anchors = (
{
name = bottom;
position = "{150, 0}";
},
{
name = ogonek;
position = "{196, 0}";
},
{
name = top;
position = "{287, 668}";
},
{
name = topleft;
position = "{109, 668}";
}
);
paths = (
{
closed = 1;
nodes = (
"285 0 LINE",
"301 75 LINE",
"209 75 LINE",
"318 593 LINE",
"412 593 LINE",
"427 668 LINE",
"146 668 LINE",
"130 593 LINE",
"223 593 LINE",
"113 75 LINE",
"20 75 LINE",
"4 0 LINE"
);
}
);
};
layerId = "678C5AFE-F8DA-443A-BB17-9B03ED7099AB";
paths = (
{
closed = 1;
nodes = (
"285 0 LINE",
"301 75 LINE",
"209 75 LINE",
"318 593 LINE",
"412 593 LINE",
"427 668 LINE",
"146 668 LINE",
"130 593 LINE",
"223 593 LINE",
"113 75 LINE",
"20 75 LINE",
"4 0 LINE"
);
}
);
width = 414;
},
{
anchors = (
{
name = bottom;
position = "{151, 0}";
},
{
name = ogonek;
position = "{242, 0}";
},
{
name = top;
position = "{301, 668}";
},
{
name = topleft;
position = "{109, 668}";
}
);
background = {
paths = (
{
closed = 1;
nodes = (
"331 0 LINE",
"358 124 LINE",
"267 124 LINE",
"355 544 LINE",
"447 544 LINE",
"474 668 LINE",
"129 668 LINE",
"103 544 LINE",
"195 544 LINE",
"105 124 LINE",
"13 124 LINE",
"-13 0 LINE"
);
}
);
};
layerId = "30D4BC2E-225F-4273-AE59-0FC741A5E71E";
paths = (
{
closed = 1;
nodes = (
"331 0 LINE",
"358 124 LINE",
"267 124 LINE",
"355 544 LINE",
"447 544 LINE",
"474 668 LINE",
"129 668 LINE",
"103 544 LINE",
"195 544 LINE",
"105 124 LINE",
"13 124 LINE",
"-13 0 LINE"
);
}
);
width = 459;
}
);
rightKerningGroup = I;
unicode = 0049;
},
{
color = 4;
glyphname = J;
lastChange = "2021-04-29 22:51:25 +0000";
layers = (
{
background = {
paths = (
{
closed = 1;
nodes = (
"245 -12 OFFCURVE",
"370 -5 OFFCURVE",
"416 212 CURVE SMOOTH",
"513 668 LINE",
"417 668 LINE",
"320 213 LINE SMOOTH",
"294 93 OFFCURVE",
"239 65 OFFCURVE",
"175 65 CURVE SMOOTH",
"109 65 OFFCURVE",
"78 101 OFFCURVE",
"78 166 CURVE SMOOTH",
"78 180 OFFCURVE",
"80 197 OFFCURVE",
"83 214 CURVE",
"-7 190 LINE",
"-20 68 OFFCURVE",
"46 -12 OFFCURVE",
"163 -12 CURVE SMOOTH"
);
}
);
};
layerId = "678C5AFE-F8DA-443A-BB17-9B03ED7099AB";
paths = (
{
closed = 1;
nodes = (
"245 -12 OFFCURVE",
"370 -5 OFFCURVE",
"416 212 CURVE SMOOTH",
"513 668 LINE",
"417 668 LINE",
"320 213 LINE SMOOTH",
"294 93 OFFCURVE",
"239 65 OFFCURVE",
"175 65 CURVE SMOOTH",
"109 65 OFFCURVE",
"78 101 OFFCURVE",
"78 166 CURVE SMOOTH",
"78 180 OFFCURVE",
"80 197 OFFCURVE",
"83 214 CURVE",
"-7 190 LINE",
"-20 68 OFFCURVE",
"46 -12 OFFCURVE",
"163 -12 CURVE SMOOTH"
);
}
);
width = 509;
},
{
background = {
paths = (
{
closed = 1;
nodes = (
"357 -12 OFFCURVE",
"456 49 OFFCURVE",
"500 256 CURVE SMOOTH",
"588 668 LINE",
"426 668 LINE",
"339 256 LINE SMOOTH",
"316 147 OFFCURVE",
"283 111 OFFCURVE",
"206 113 CURVE SMOOTH",
"138 115 OFFCURVE",
"123 161 OFFCURVE",
"129 228 CURVE",
"-28 176 LINE",
"-22 70 OFFCURVE",
"58 -12 OFFCURVE",
"195 -12 CURVE SMOOTH"
);
}
);
};
layerId = "30D4BC2E-225F-4273-AE59-0FC741A5E71E";
paths = (
{
closed = 1;
nodes = (
"357 -12 OFFCURVE",
"456 49 OFFCURVE",
"500 256 CURVE SMOOTH",
"588 668 LINE",
"426 668 LINE",
"339 256 LINE SMOOTH",
"317 150 OFFCURVE",
"285 113 OFFCURVE",
"212 113 CURVE SMOOTH",
"148 113 OFFCURVE",
"128 148 OFFCURVE",
"128 203 CURVE SMOOTH",
"128 211 OFFCURVE",
"128 219 OFFCURVE",
"129 228 CURVE",
"-28 176 LINE",
"-22 70 OFFCURVE",
"58 -12 OFFCURVE",
"195 -12 CURVE SMOOTH"
);
}
);
width = 566;
}
);
rightMetricsKey = H;
unicode = 004A;
},
{
color = 4;
glyphname = K;
lastChange = "2021-04-29 22:51:25 +0000";
layers = (
{
anchors = (
{
name = bottom;
position = "{259, 0}";
},
{
name = top;
position = "{401, 668}";
}
);
background = {
anchors = (
{
name = bottom;
position = "{259, 0}";
},
{
name = top;
position = "{401, 668}";
}
);
paths = (
{
closed = 1;
nodes = (
"110 0 LINE",
"155 210 LINE",
"281 324 LINE",
"446 0 LINE",
"551 0 LINE",
"351 385 LINE",
"670 668 LINE",
"540 668 LINE",
"183 345 LINE",
"252 668 LINE",
"156 668 LINE",
"14 0 LINE"
);
}
);
};
layerId = "678C5AFE-F8DA-443A-BB17-9B03ED7099AB";
paths = (
{
closed = 1;
nodes = (
"110 0 LINE",
"155 210 LINE",
"281 324 LINE",
"446 0 LINE",
"551 0 LINE",
"351 385 LINE",
"670 668 LINE",
"540 668 LINE",
"183 345 LINE",
"252 668 LINE",
"156 668 LINE",
"14 0 LINE"
);
}
);
width = 623;
},
{
anchors = (
{
name = bottom;
position = "{265, 0}";
},
{
name = top;
position = "{418, 668}";
}
);
background = {
paths = (
{
closed = 1;
nodes = (
"138 0 LINE",
"180 197 LINE",
"270 277 LINE",
"411 0 LINE",
"577 0 LINE",
"384 377 LINE",
"715 668 LINE",
"501 668 LINE",
"229 426 LINE",
"279 668 LINE",
"119 668 LINE",
"-23 0 LINE"
);
}
);
};
layerId = "30D4BC2E-225F-4273-AE59-0FC741A5E71E";
paths = (
{
closed = 1;
nodes = (
"138 0 LINE",
"180 197 LINE",
"270 277 LINE",
"411 0 LINE",
"577 0 LINE",
"384 377 LINE",
"715 668 LINE",
"501 668 LINE",
"229 426 LINE",
"279 668 LINE",
"119 668 LINE",
"-23 0 LINE"
);
}
);
width = 657;
}
);
leftKerningGroup = B;
leftMetricsKey = H;
rightMetricsKey = V;
unicode = 004B;
},
{
color = 4;
glyphname = L;
lastChange = "2021-04-29 22:51:25 +0000";
layers = (
{
anchors = (
{
name = bottom;
position = "{218, 0}";
},
{
name = center;
position = "{289, 334}";
},
{
name = top;
position = "{360, 668}";
},
{
name = topright;
position = "{460, 648}";
}
);
background = {
anchors = (
{
name = bottom;
position = "{218, 0}";
},
{
name = center;
position = "{289, 334}";
},
{
name = top;
position = "{360, 668}";
},
{
name = topright;
position = "{460, 648}";
}
);
paths = (
{
closed = 1;
nodes = (
"469 0 LINE",
"486 81 LINE",
"127 81 LINE",
"252 668 LINE",
"156 668 LINE",
"14 0 LINE"
);
}
);
};
layerId = "678C5AFE-F8DA-443A-BB17-9B03ED7099AB";
paths = (
{
closed = 1;
nodes = (
"469 0 LINE",
"486 81 LINE",
"127 81 LINE",
"252 668 LINE",
"156 668 LINE",
"14 0 LINE"
);
}
);
width = 541;
},
{
anchors = (
{
name = bottom;
position = "{219, 0}";
},
{
name = center;
position = "{290, 334}";
},
{
name = top;
position = "{361, 668}";
},
{
name = topright;
position = "{408, 657}";
}
);
background = {
paths = (
{
closed = 1;
nodes = (
"458 0 LINE",
"488 139 LINE",
"168 139 LINE",
"279 668 LINE",
"119 668 LINE",
"-23 0 LINE"
);
}
);
};
layerId = "30D4BC2E-225F-4273-AE59-0FC741A5E71E";
paths = (
{
closed = 1;
nodes = (
"458 0 LINE",
"488 139 LINE",
"168 139 LINE",
"279 668 LINE",
"119 668 LINE",
"-23 0 LINE"
);
}
);
width = 543;
}
);
leftKerningGroup = B;
leftMetricsKey = H;
rightKerningGroup = L;
unicode = 004C;
},
{
color = 4;
glyphname = M;
lastChange = "2021-04-29 22:51:25 +0000";
layers = (
{
background = {
paths = (
{
closed = 1;
nodes = (
"110 0 LINE",
"233 575 LINE",
"305 0 LINE",
"400 0 LINE",
"709 559 LINE",
"590 0 LINE",
"686 0 LINE",
"828 668 LINE",
"666 668 LINE",
"374 126 LINE",
"312 668 LINE",
"156 668 LINE",
"14 0 LINE"
);
}
);
};
layerId = "678C5AFE-F8DA-443A-BB17-9B03ED7099AB";
paths = (
{
closed = 1;
nodes = (
"110 0 LINE",
"233 575 LINE",
"305 0 LINE",
"400 0 LINE",
"709 559 LINE",
"590 0 LINE",
"686 0 LINE",
"828 668 LINE",
"666 668 LINE",
"374 126 LINE",
"312 668 LINE",
"156 668 LINE",
"14 0 LINE"
);
}
);
width = 824;
},
{
background = {
paths = (
{
closed = 1;
nodes = (
"134 0 LINE",
"247 533 LINE",
"294 0 LINE",
"426 0 LINE",
"690 510 LINE",
"581 0 LINE",
"737 0 LINE",
"880 668 LINE",
"635 668 LINE",
"394 193 LINE",
"356 668 LINE",
"119 668 LINE",
"-23 0 LINE"
);
}
);
};
layerId = "30D4BC2E-225F-4273-AE59-0FC741A5E71E";
paths = (
{
closed = 1;
nodes = (
"134 0 LINE",
"247 533 LINE",
"294 0 LINE",
"426 0 LINE",
"690 510 LINE",
"581 0 LINE",
"737 0 LINE",
"880 668 LINE",
"635 668 LINE",
"394 193 LINE",
"356 668 LINE",
"119 668 LINE",
"-23 0 LINE"
);
}
);
width = 858;
}
);
leftKerningGroup = B;
leftMetricsKey = H;
rightKerningGroup = H;
rightMetricsKey = H;
unicode = 004D;
},
{
color = 4;
glyphname = N;
lastChange = "2021-04-29 22:51:25 +0000";
layers = (
{
anchors = (
{
name = bottom;
position = "{264, 0}";
},
{
name = top;
position = "{436, 668}";
}
);
background = {
anchors = (
{
name = bottom;
position = "{264, 0}";
},
{
name = top;
position = "{436, 668}";
}
);
paths = (
{
closed = 1;
nodes = (
"110 0 LINE",
"233 576 LINE",
"418 0 LINE",
"555 0 LINE",
"697 668 LINE",
"601 668 LINE",
"479 94 LINE",
"293 668 LINE",
"156 668 LINE",
"14 0 LINE"
);
}
);
};
layerId = "678C5AFE-F8DA-443A-BB17-9B03ED7099AB";
paths = (
{
closed = 1;
nodes = (
"110 0 LINE",
"233 576 LINE",
"418 0 LINE",
"555 0 LINE",
"697 668 LINE",
"601 668 LINE",
"479 94 LINE",
"293 668 LINE",
"156 668 LINE",
"14 0 LINE"
);
}
);
width = 693;
},
{
anchors = (
{
name = bottom;
position = "{285, 0}";
},
{
name = top;
position = "{456, 668}";
}
);
background = {
paths = (
{
closed = 1;
nodes = (
"133 0 LINE",
"236 485 LINE",
"396 0 LINE",
"595 0 LINE",
"737 668 LINE",
"582 668 LINE",
"478 183 LINE",
"318 668 LINE",
"119 668 LINE",
"-23 0 LINE"
);
}
);
};
layerId = "30D4BC2E-225F-4273-AE59-0FC741A5E71E";
paths = (
{
closed = 1;
nodes = (
"133 0 LINE",
"236 485 LINE",
"396 0 LINE",
"595 0 LINE",
"737 668 LINE",
"582 668 LINE",
"478 183 LINE",
"318 668 LINE",
"119 668 LINE",
"-23 0 LINE"
);
}
);
width = 715;
}
);
leftKerningGroup = B;
leftMetricsKey = H;
rightKerningGroup = H;
rightMetricsKey = H;
unicode = 004E;
},
{
color = 4;
glyphname = O;
lastChange = "2021-04-29 22:51:25 +0000";
layers = (
{
anchors = (
{
name = bottom;
position = "{311, 0}";
},
{
name = center;
position = "{382, 334}";
},
{
name = ogonek;
position = "{604, 10}";
},
{
name = top;
position = "{438, 668}";
},
{
name = topleft;
position = "{109, 668}";
},
{
name = topright;
position = "{797, 668}";
}
);
background = {
anchors = (
{
name = bottom;
position = "{311, 0}";
},
{
name = center;
position = "{382, 334}";
},
{
name = ogonek;
position = "{604, 10}";
},
{
name = top;
position = "{438, 668}";
},
{
name = topleft;
position = "{109, 668}";
},
{
name = topright;
position = "{797, 668}";
}
);
paths = (
{
closed = 1;
nodes = (
"537 -12 OFFCURVE",
"691 172 OFFCURVE",
"691 401 CURVE SMOOTH",
"691 558 OFFCURVE",
"597 680 OFFCURVE",
"433 680 CURVE SMOOTH",
"205 680 OFFCURVE",
"55 499 OFFCURVE",
"55 268 CURVE SMOOTH",
"55 107 OFFCURVE",
"149 -12 OFFCURVE",
"312 -12 CURVE SMOOTH"
);
},
{
closed = 1;
nodes = (
"227 67 OFFCURVE",
"150 138 OFFCURVE",
"150 269 CURVE SMOOTH",
"150 444 OFFCURVE",
"251 600 OFFCURVE",
"420 600 CURVE SMOOTH",
"518 600 OFFCURVE",
"596 529 OFFCURVE",
"596 399 CURVE SMOOTH",
"596 228 OFFCURVE",
"494 67 OFFCURVE",
"325 67 CURVE SMOOTH"
);
}
);
};
layerId = "678C5AFE-F8DA-443A-BB17-9B03ED7099AB";
paths = (
{
closed = 1;
nodes = (
"537 -12 OFFCURVE",
"691 172 OFFCURVE",
"691 401 CURVE SMOOTH",
"691 558 OFFCURVE",
"597 680 OFFCURVE",
"433 680 CURVE SMOOTH",
"205 680 OFFCURVE",
"55 499 OFFCURVE",
"55 268 CURVE SMOOTH",
"55 107 OFFCURVE",
"149 -12 OFFCURVE",
"312 -12 CURVE SMOOTH"
);
},
{
closed = 1;
nodes = (
"227 67 OFFCURVE",
"150 138 OFFCURVE",
"150 269 CURVE SMOOTH",
"150 444 OFFCURVE",
"251 600 OFFCURVE",
"420 600 CURVE SMOOTH",
"518 600 OFFCURVE",
"596 529 OFFCURVE",
"596 399 CURVE SMOOTH",
"596 228 OFFCURVE",
"494 67 OFFCURVE",
"325 67 CURVE SMOOTH"
);
}
);
width = 728;
},
{
anchors = (
{
name = bottom;
position = "{329, 0}";
},
{
name = center;
position = "{400, 334}";
},
{
name = ogonek;
position = "{636, 10}";
},
{
name = top;
position = "{456, 668}";
},
{
name = topleft;
position = "{109, 668}";
},
{
name = topright;
position = "{832, 668}";
}
);
background = {
paths = (
{
closed = 1;
nodes = (
"547 -12 OFFCURVE",
"706 134 OFFCURVE",
"729 345 CURVE SMOOTH",
"752 560 OFFCURVE",
"622 680 OFFCURVE",
"426 680 CURVE SMOOTH",
"221 680 OFFCURVE",
"63 539 OFFCURVE",
"35 321 CURVE SMOOTH",
"10 127 OFFCURVE",
"124 -12 OFFCURVE",
"335 -12 CURVE SMOOTH"
);
},
{
closed = 1;
nodes = (
"237 118 OFFCURVE",
"189 215 OFFCURVE",
"203 321 CURVE SMOOTH",
"223 473 OFFCURVE",
"317 550 OFFCURVE",
"414 550 CURVE SMOOTH",
"498 550 OFFCURVE",
"577 486 OFFCURVE",
"562 345 CURVE SMOOTH",
"548 213 OFFCURVE",
"461 118 OFFCURVE",
"349 118 CURVE SMOOTH"
);
}
);
};
layerId = "30D4BC2E-225F-4273-AE59-0FC741A5E71E";
paths = (
{
closed = 1;
nodes = (
"565 -12 OFFCURVE",
"732 162 OFFCURVE",
"732 393 CURVE SMOOTH",
"732 578 OFFCURVE",
"607 680 OFFCURVE",
"426 680 CURVE SMOOTH",
"196 680 OFFCURVE",
"32 498 OFFCURVE",
"32 269 CURVE SMOOTH",
"32 103 OFFCURVE",
"143 -12 OFFCURVE",
"335 -12 CURVE SMOOTH"
);
},
{
closed = 1;
nodes = (
"250 118 OFFCURVE",
"201 194 OFFCURVE",
"201 286 CURVE SMOOTH",
"201 417 OFFCURVE",
"282 550 OFFCURVE",
"414 550 CURVE SMOOTH",
"491 550 OFFCURVE",
"564 496 OFFCURVE",
"564 379 CURVE SMOOTH",
"564 242 OFFCURVE",
"478 118 OFFCURVE",
"349 118 CURVE SMOOTH"
);
}
);
width = 763;
}
);
leftKerningGroup = C;
rightKerningGroup = D;
unicode = 004F;
},
{
color = 4;
glyphname = P;
lastChange = "2021-04-29 22:51:25 +0000";
layers = (
{
background = {
paths = (
{
closed = 1;
nodes = (
"110 0 LINE",
"166 265 LINE",
"287 265 LINE SMOOTH",
"475 265 OFFCURVE",
"601 322 OFFCURVE",
"601 497 CURVE SMOOTH",
"601 649 OFFCURVE",
"457 668 OFFCURVE",
"342 668 CURVE SMOOTH",
"156 668 LINE",
"14 0 LINE"
);
},
{
closed = 1;
nodes = (
"235 588 LINE",
"351 588 LINE SMOOTH",
"443 588 OFFCURVE",
"503 568 OFFCURVE",
"503 488 CURVE SMOOTH",
"503 379 OFFCURVE",
"428 346 OFFCURVE",
"311 346 CURVE SMOOTH",
"184 346 LINE"
);
}
);
};
layerId = "678C5AFE-F8DA-443A-BB17-9B03ED7099AB";
paths = (
{
closed = 1;
nodes = (
"110 0 LINE",
"166 265 LINE",
"287 265 LINE SMOOTH",
"475 265 OFFCURVE",
"601 322 OFFCURVE",
"601 497 CURVE SMOOTH",
"601 649 OFFCURVE",
"457 668 OFFCURVE",
"342 668 CURVE SMOOTH",
"156 668 LINE",
"14 0 LINE"
);
},
{
closed = 1;
nodes = (
"235 588 LINE",
"351 588 LINE SMOOTH",
"443 588 OFFCURVE",
"503 568 OFFCURVE",
"503 488 CURVE SMOOTH",
"503 379 OFFCURVE",
"428 346 OFFCURVE",
"311 346 CURVE SMOOTH",
"184 346 LINE"
);
}
);
width = 597;
},
{
background = {
paths = (
{
closed = 1;
nodes = (
"138 0 LINE",
"187 232 LINE",
"304 232 LINE SMOOTH",
"518 232 OFFCURVE",
"616 316 OFFCURVE",
"635 443 CURVE",
"654 580 OFFCURVE",
"598 668 OFFCURVE",
"379 668 CURVE SMOOTH",
"119 668 LINE",
"-23 0 LINE"
);
},
{
closed = 1;
nodes = (
"252 535 LINE",
"355 535 LINE SMOOTH",
"443 535 OFFCURVE",
"478 507 OFFCURVE",
"468 450 CURVE SMOOTH",
"458 391 OFFCURVE",
"410 363 OFFCURVE",
"319 363 CURVE SMOOTH",
"216 363 LINE"
);
}
);
};
layerId = "30D4BC2E-225F-4273-AE59-0FC741A5E71E";
paths = (
{
closed = 1;
nodes = (
"138 0 LINE",
"187 232 LINE",
"304 232 LINE SMOOTH",
"504 232 OFFCURVE",
"638 308 OFFCURVE",
"638 490 CURVE SMOOTH",
"638 600 OFFCURVE",
"572 668 OFFCURVE",
"379 668 CURVE SMOOTH",
"119 668 LINE",
"-23 0 LINE"
);
},
{
closed = 1;
nodes = (
"252 535 LINE",
"355 535 LINE SMOOTH",
"433 535 OFFCURVE",
"470 513 OFFCURVE",
"470 468 CURVE SMOOTH",
"470 394 OFFCURVE",
"411 363 OFFCURVE",
"319 363 CURVE SMOOTH",
"216 363 LINE"
);
}
);
width = 628;
}
);
leftKerningGroup = B;
leftMetricsKey = H;
rightMetricsKey = "=H/2";
unicode = 0050;
},
{
color = 4;
glyphname = Q;
lastChange = "2021-04-29 22:51:25 +0000";
layers = (
{
background = {
paths = (
{
closed = 1;
nodes = (
"687 7 LINE",
"588 123 LINE",
"654 199 OFFCURVE",
"694 315 OFFCURVE",
"694 418 CURVE SMOOTH",
"694 575 OFFCURVE",
"600 696 OFFCURVE",
"436 696 CURVE SMOOTH",
"208 696 OFFCURVE",
"58 516 OFFCURVE",
"58 285 CURVE SMOOTH",
"58 124 OFFCURVE",
"152 5 OFFCURVE",
"315 5 CURVE SMOOTH",
"397 5 OFFCURVE",
"464 26 OFFCURVE",
"517 62 CURVE",
"617 -55 LINE"
);
},
{
closed = 1;
nodes = (
"230 84 OFFCURVE",
"153 155 OFFCURVE",
"153 286 CURVE SMOOTH",
"153 460 OFFCURVE",
"254 617 OFFCURVE",
"423 617 CURVE SMOOTH",
"521 617 OFFCURVE",
"599 546 OFFCURVE",
"599 415 CURVE SMOOTH",
"599 342 OFFCURVE",
"575 253 OFFCURVE",
"531 190 CURVE",
"399 344 LINE",
"328 284 LINE",
"464 124 LINE",
"425 98 OFFCURVE",
"379 84 OFFCURVE",
"328 84 CURVE SMOOTH"
);
}
);
};
layerId = "678C5AFE-F8DA-443A-BB17-9B03ED7099AB";
paths = (
{
closed = 1;
nodes = (
"687 7 LINE",
"588 123 LINE",
"654 199 OFFCURVE",
"694 315 OFFCURVE",
"694 418 CURVE SMOOTH",
"694 575 OFFCURVE",
"600 696 OFFCURVE",
"436 696 CURVE SMOOTH",
"208 696 OFFCURVE",
"58 516 OFFCURVE",
"58 285 CURVE SMOOTH",
"58 124 OFFCURVE",
"152 5 OFFCURVE",
"315 5 CURVE SMOOTH",
"397 5 OFFCURVE",
"464 26 OFFCURVE",
"517 62 CURVE",
"617 -55 LINE"
);
},
{
closed = 1;
nodes = (
"230 84 OFFCURVE",
"153 155 OFFCURVE",
"153 286 CURVE SMOOTH",
"153 460 OFFCURVE",
"254 617 OFFCURVE",
"423 617 CURVE SMOOTH",
"521 617 OFFCURVE",
"599 546 OFFCURVE",
"599 415 CURVE SMOOTH",
"599 342 OFFCURVE",
"575 253 OFFCURVE",
"531 190 CURVE",
"399 344 LINE",
"328 284 LINE",
"464 124 LINE",
"425 98 OFFCURVE",
"379 84 OFFCURVE",
"328 84 CURVE SMOOTH"
);
}
);
width = 748;
},
{
background = {
paths = (
{
closed = 1;
nodes = (
"709 25 LINE",
"622 127 LINE",
"683 189 OFFCURVE",
"723 273 OFFCURVE",
"734 371 CURVE SMOOTH",
"758 586 OFFCURVE",
"627 706 OFFCURVE",
"431 706 CURVE SMOOTH",
"226 706 OFFCURVE",
"68 566 OFFCURVE",
"40 346 CURVE SMOOTH",
"15 154 OFFCURVE",
"129 14 OFFCURVE",
"340 14 CURVE SMOOTH",
"407 14 OFFCURVE",
"469 29 OFFCURVE",
"523 56 CURVE",
"617 -55 LINE"
);
},
{
closed = 1;
nodes = (
"242 145 OFFCURVE",
"194 242 OFFCURVE",
"208 346 CURVE",
"227 499 OFFCURVE",
"322 576 OFFCURVE",
"419 576 CURVE SMOOTH",
"503 576 OFFCURVE",
"582 513 OFFCURVE",
"567 371 CURVE SMOOTH",
"562 323 OFFCURVE",
"546 279 OFFCURVE",
"524 243 CURVE",
"421 363 LINE",
"330 285 LINE",
"433 162 LINE",
"409 151 OFFCURVE",
"382 145 OFFCURVE",
"354 145 CURVE SMOOTH"
);
}
);
};
layerId = "30D4BC2E-225F-4273-AE59-0FC741A5E71E";
paths = (
{
closed = 1;
nodes = (
"709 25 LINE",
"622 127 LINE",
"697 203 OFFCURVE",
"737 312 OFFCURVE",
"737 420 CURVE SMOOTH",
"737 604 OFFCURVE",
"611 706 OFFCURVE",
"431 706 CURVE SMOOTH",
"200 706 OFFCURVE",
"37 524 OFFCURVE",
"37 295 CURVE SMOOTH",
"37 130 OFFCURVE",
"148 14 OFFCURVE",
"340 14 CURVE SMOOTH",
"407 14 OFFCURVE",
"469 29 OFFCURVE",
"523 56 CURVE",
"617 -55 LINE"
);
},
{
closed = 1;
nodes = (
"255 145 OFFCURVE",
"206 221 OFFCURVE",
"206 311 CURVE SMOOTH",
"206 442 OFFCURVE",
"287 576 OFFCURVE",
"419 576 CURVE SMOOTH",
"496 576 OFFCURVE",
"569 523 OFFCURVE",
"569 405 CURVE SMOOTH",
"569 350 OFFCURVE",
"552 289 OFFCURVE",
"524 243 CURVE",
"421 363 LINE",
"330 285 LINE",
"433 162 LINE",
"409 151 OFFCURVE",
"382 145 OFFCURVE",
"354 145 CURVE SMOOTH"
);
}
);
width = 774;
}
);
leftKerningGroup = C;
leftMetricsKey = O;
unicode = 0051;
},
{
color = 4;
glyphname = R;
lastChange = "2021-04-29 22:51:25 +0000";
layers = (
{
anchors = (
{
name = bottom;
position = "{252, 0}";
},
{
name = top;
position = "{384, 668}";
}
);
background = {
anchors = (
{
name = bottom;
position = "{252, 0}";
},
{
name = top;
position = "{384, 668}";
}
);
paths = (
{
closed = 1;
nodes = (
"110 0 LINE",
"170 281 LINE",
"270 281 LINE",
"413 0 LINE",
"518 0 LINE",
"371 288 LINE",
"514 301 OFFCURVE",
"601 374 OFFCURVE",
"601 508 CURVE SMOOTH",
"601 628 OFFCURVE",
"506 668 OFFCURVE",
"360 668 CURVE SMOOTH",
"156 668 LINE",
"14 0 LINE"
);
},
{
closed = 1;
nodes = (
"235 588 LINE",
"352 588 LINE SMOOTH",
"445 588 OFFCURVE",
"503 569 OFFCURVE",
"503 495 CURVE SMOOTH",
"503 385 OFFCURVE",
"425 360 OFFCURVE",
"311 360 CURVE SMOOTH",
"187 360 LINE"
);
}
);
};
layerId = "678C5AFE-F8DA-443A-BB17-9B03ED7099AB";
paths = (
{
closed = 1;
nodes = (
"110 0 LINE",
"170 281 LINE",
"270 281 LINE",
"413 0 LINE",
"518 0 LINE",
"371 288 LINE",
"514 301 OFFCURVE",
"601 374 OFFCURVE",
"601 508 CURVE SMOOTH",
"601 628 OFFCURVE",
"506 668 OFFCURVE",
"360 668 CURVE SMOOTH",
"156 668 LINE",
"14 0 LINE"
);
},
{
closed = 1;
nodes = (
"235 588 LINE",
"352 588 LINE SMOOTH",
"445 588 OFFCURVE",
"503 569 OFFCURVE",
"503 495 CURVE SMOOTH",
"503 385 OFFCURVE",
"425 360 OFFCURVE",
"311 360 CURVE SMOOTH",
"187 360 LINE"
);
}
);
width = 610;
},
{
anchors = (
{
name = bottom;
position = "{269, 0}";
},
{
name = top;
position = "{411, 668}";
}
);
background = {
paths = (
{
closed = 1;
nodes = (
"138 0 LINE",
"192 252 LINE",
"192 252 OFFCURVE",
"231 252 OFFCURVE",
"263 252 CURVE",
"391 0 LINE",
"557 0 LINE",
"420 269 LINE",
"570 291 OFFCURVE",
"619 363 OFFCURVE",
"629 461 CURVE SMOOTH",
"644 612 OFFCURVE",
"543 668 OFFCURVE",
"369 668 CURVE SMOOTH",
"119 668 LINE",
"-23 0 LINE"
);
},
{
closed = 1;
nodes = (
"252 535 LINE",
"346 535 LINE SMOOTH",
"421 535 OFFCURVE",
"471 521 OFFCURVE",
"462 459 CURVE SMOOTH",
"453 396 OFFCURVE",
"398 384 OFFCURVE",
"323 384 CURVE SMOOTH",
"220 384 LINE"
);
}
);
};
layerId = "30D4BC2E-225F-4273-AE59-0FC741A5E71E";
paths = (
{
closed = 1;
nodes = (
"138 0 LINE",
"192 252 LINE",
"263 252 LINE",
"391 0 LINE",
"557 0 LINE",
"420 269 LINE",
"555 289 OFFCURVE",
"630 353 OFFCURVE",
"630 489 CURVE SMOOTH",
"630 619 OFFCURVE",
"532 668 OFFCURVE",
"369 668 CURVE SMOOTH",
"119 668 LINE",
"-23 0 LINE"
);
},
{
closed = 1;
nodes = (
"252 535 LINE",
"346 535 LINE SMOOTH",
"415 535 OFFCURVE",
"463 523 OFFCURVE",
"463 473 CURVE SMOOTH",
"463 398 OFFCURVE",
"400 384 OFFCURVE",
"323 384 CURVE SMOOTH",
"220 384 LINE"
);
}
);
width = 644;
}
);
leftKerningGroup = B;
leftMetricsKey = H;
rightKerningGroup = R;
unicode = 0052;
},
{
color = 4;
glyphname = S;
lastChange = "2021-04-29 22:51:25 +0000";
layers = (
{
anchors = (
{
name = bottom;
position = "{277, 0}";
},
{
name = top;
position = "{359, 668}";
}
);
background = {
anchors = (
{
name = bottom;
position = "{277, 0}";
},
{
name = top;
position = "{359, 668}";
}
);
paths = (
{
closed = 1;
nodes = (
"415 -12 OFFCURVE",
"544 63 OFFCURVE",
"544 197 CURVE SMOOTH",
"544 420 OFFCURVE",
"182 344 OFFCURVE",
"182 498 CURVE SMOOTH",
"182 568 OFFCURVE",
"248 601 OFFCURVE",
"320 601 CURVE SMOOTH",
"381 601 OFFCURVE",
"445 576 OFFCURVE",
"469 529 CURVE",
"561 555 LINE",
"522 638 OFFCURVE",
"422 680 OFFCURVE",
"324 680 CURVE SMOOTH",
"204 680 OFFCURVE",
"87 618 OFFCURVE",
"87 495 CURVE SMOOTH",
"87 259 OFFCURVE",
"446 350 OFFCURVE",
"446 184 CURVE SMOOTH",
"446 109 OFFCURVE",
"371 67 OFFCURVE",
"293 67 CURVE SMOOTH",
"224 67 OFFCURVE",
"152 100 OFFCURVE",
"127 172 CURVE",
"36 147 LINE",
"73 38 OFFCURVE",
"179 -12 OFFCURVE",
"285 -12 CURVE SMOOTH"
);
}
);
};
guideLines = (
{
angle = 78;
position = "{211, -99}";
}
);
layerId = "678C5AFE-F8DA-443A-BB17-9B03ED7099AB";
paths = (
{
closed = 1;
nodes = (
"415 -12 OFFCURVE",
"544 63 OFFCURVE",
"544 197 CURVE SMOOTH",
"544 420 OFFCURVE",
"182 344 OFFCURVE",
"182 498 CURVE SMOOTH",
"182 568 OFFCURVE",
"248 601 OFFCURVE",
"320 601 CURVE SMOOTH",
"381 601 OFFCURVE",
"445 576 OFFCURVE",
"469 529 CURVE",
"561 555 LINE",
"522 638 OFFCURVE",
"422 680 OFFCURVE",
"324 680 CURVE SMOOTH",
"204 680 OFFCURVE",
"87 618 OFFCURVE",
"87 495 CURVE SMOOTH",
"87 259 OFFCURVE",
"446 350 OFFCURVE",
"446 184 CURVE SMOOTH",
"446 109 OFFCURVE",
"371 67 OFFCURVE",
"293 67 CURVE SMOOTH",
"224 67 OFFCURVE",
"152 100 OFFCURVE",
"127 172 CURVE",
"36 147 LINE",
"73 38 OFFCURVE",
"179 -12 OFFCURVE",
"285 -12 CURVE SMOOTH"
);
}
);
width = 609;
},
{
anchors = (
{
name = bottom;
position = "{288, 0}";
},
{
name = top;
position = "{370, 668}";
}
);
background = {
paths = (
{
closed = 1;
nodes = (
"445 -12 OFFCURVE",
"576 55 OFFCURVE",
"587 187 CURVE SMOOTH",
"608 433 OFFCURVE",
"224 365 OFFCURVE",
"224 492 CURVE SMOOTH",
"224 527 OFFCURVE",
"261 551 OFFCURVE",
"329 551 CURVE SMOOTH",
"378 551 OFFCURVE",
"434 530 OFFCURVE",
"451 483 CURVE",
"606 535 LINE",
"550 643 OFFCURVE",
"440 680 OFFCURVE",
"341 680 CURVE SMOOTH",
"210 680 OFFCURVE",
"78 625 OFFCURVE",
"63 504 CURVE SMOOTH",
"31 246 OFFCURVE",
"424 302 OFFCURVE",
"424 179 CURVE SMOOTH",
"424 93 OFFCURVE",
"193 82 OFFCURVE",
"165 209 CURVE",
"10 157 LINE",
"51 51 OFFCURVE",
"161 -12 OFFCURVE",
"306 -12 CURVE SMOOTH"
);
}
);
};
guideLines = (
{
angle = 78;
position = "{211, -99}";
}
);
layerId = "30D4BC2E-225F-4273-AE59-0FC741A5E71E";
paths = (
{
closed = 1;
nodes = (
"452 -12 OFFCURVE",
"588 62 OFFCURVE",
"588 206 CURVE SMOOTH",
"588 430 OFFCURVE",
"224 368 OFFCURVE",
"224 492 CURVE SMOOTH",
"224 527 OFFCURVE",
"261 551 OFFCURVE",
"329 551 CURVE SMOOTH",
"378 551 OFFCURVE",
"434 530 OFFCURVE",
"451 483 CURVE",
"606 535 LINE",
"550 643 OFFCURVE",
"440 680 OFFCURVE",
"341 680 CURVE SMOOTH",
"198 680 OFFCURVE",
"61 618 OFFCURVE",
"61 475 CURVE SMOOTH",
"61 250 OFFCURVE",
"424 297 OFFCURVE",
"424 179 CURVE SMOOTH",
"424 138 OFFCURVE",
"371 114 OFFCURVE",
"313 114 CURVE SMOOTH",
"250 114 OFFCURVE",
"180 143 OFFCURVE",
"165 209 CURVE",
"10 157 LINE",
"51 51 OFFCURVE",
"161 -12 OFFCURVE",
"306 -12 CURVE SMOOTH"
);
}
);
width = 642;
}
);
leftKerningGroup = S;
rightKerningGroup = S_2;
unicode = 0053;
},
{
color = (255,153,254,255);
glyphname = T;
lastChange = "2021-04-29 22:51:25 +0000";
layers = (
{
anchors = (
{
name = bottom;
position = "{218, 0}";
},
{
name = center;
position = "{297, 334}";
},
{
name = top;
position = "{356, 668}";
}
);
background = {
anchors = (
{
name = bottom;
position = "{218, 0}";
},
{
name = center;
position = "{297, 334}";
},
{
name = top;
position = "{356, 668}";
}
);
paths = (
{
closed = 1;
nodes = (
"266 0 LINE",
"389 587 LINE",
"611 587 LINE",
"628 668 LINE",
"90 668 LINE",
"73 587 LINE",
"293 587 LINE",
"169 0 LINE"
);
}
);
};
layerId = "678C5AFE-F8DA-443A-BB17-9B03ED7099AB";
paths = (
{
closed = 1;
nodes = (
"266 0 LINE",
"389 587 LINE",
"611 587 LINE",
"628 668 LINE",
"90 668 LINE",
"73 587 LINE",
"293 587 LINE",
"169 0 LINE"
);
}
);
width = 558;
},
{
anchors = (
{
name = bottom;
position = "{253, 0}";
},
{
name = center;
position = "{327, 334}";
},
{
name = top;
position = "{398, 668}";
}
);
background = {
paths = (
{
closed = 1;
nodes = (
"319 0 LINE",
"430 529 LINE",
"644 529 LINE",
"673 668 LINE",
"87 668 LINE",
"57 529 LINE",
"270 529 LINE",
"158 0 LINE"
);
}
);
};
layerId = "30D4BC2E-225F-4273-AE59-0FC741A5E71E";
paths = (
{
closed = 1;
nodes = (
"319 0 LINE",
"430 529 LINE",
"644 529 LINE",
"673 668 LINE",
"87 668 LINE",
"57 529 LINE",
"270 529 LINE",
"158 0 LINE"
);
}
);
width = 617;
}
);
leftKerningGroup = T;
rightKerningGroup = T;
unicode = 0054;
},
{
color = 4;
glyphname = U;
lastChange = "2021-04-29 22:51:25 +0000";
layers = (
{
anchors = (
{
name = bottom;
position = "{294, 0}";
},
{
name = ogonek;
position = "{352, 0}";
},
{
name = top;
position = "{415, 668}";
},
{
name = topright;
position = "{762, 668}";
}
);
background = {
anchors = (
{
name = bottom;
position = "{294, 0}";
},
{
name = ogonek;
position = "{352, 0}";
},
{
name = top;
position = "{415, 668}";
},
{
name = topright;
position = "{762, 668}";
}
);
paths = (
{
closed = 1;
nodes = (
"412 -12 OFFCURVE",
"557 12 OFFCURVE",
"614 280 CURVE SMOOTH",
"697 668 LINE",
"601 668 LINE",
"516 272 LINE SMOOTH",
"482 115 OFFCURVE",
"412 69 OFFCURVE",
"291 69 CURVE SMOOTH",
"197 69 OFFCURVE",
"159 105 OFFCURVE",
"159 186 CURVE SMOOTH",
"159 210 OFFCURVE",
"162 239 OFFCURVE",
"169 272 CURVE SMOOTH",
"253 668 LINE",
"157 668 LINE",
"74 280 LINE SMOOTH",
"66 241 OFFCURVE",
"61 206 OFFCURVE",
"61 175 CURVE SMOOTH",
"61 46 OFFCURVE",
"136 -12 OFFCURVE",
"286 -12 CURVE SMOOTH"
);
}
);
};
layerId = "678C5AFE-F8DA-443A-BB17-9B03ED7099AB";
paths = (
{
closed = 1;
nodes = (
"412 -12 OFFCURVE",
"557 12 OFFCURVE",
"614 280 CURVE SMOOTH",
"697 668 LINE",
"601 668 LINE",
"516 272 LINE SMOOTH",
"482 115 OFFCURVE",
"412 69 OFFCURVE",
"291 69 CURVE SMOOTH",
"197 69 OFFCURVE",
"159 105 OFFCURVE",
"159 186 CURVE SMOOTH",
"159 210 OFFCURVE",
"162 239 OFFCURVE",
"169 272 CURVE SMOOTH",
"253 668 LINE",
"157 668 LINE",
"74 280 LINE SMOOTH",
"66 241 OFFCURVE",
"61 206 OFFCURVE",
"61 175 CURVE SMOOTH",
"61 46 OFFCURVE",
"136 -12 OFFCURVE",
"286 -12 CURVE SMOOTH"
);
}
);
width = 693;
},
{
anchors = (
{
name = bottom;
position = "{287, 0}";
},
{
name = ogonek;
position = "{376, 0}";
},
{
name = top;
position = "{414, 668}";
},
{
name = topright;
position = "{748, 668}";
}
);
background = {
paths = (
{
closed = 1;
nodes = (
"463 -12 OFFCURVE",
"568 42 OFFCURVE",
"621 292 CURVE SMOOTH",
"701 668 LINE",
"540 668 LINE",
"457 279 LINE SMOOTH",
"436 180 OFFCURVE",
"403 117 OFFCURVE",
"294 117 CURVE SMOOTH",
"177 117 OFFCURVE",
"178 186 OFFCURVE",
"198 279 CURVE SMOOTH",
"281 668 LINE",
"120 668 LINE",
"39 292 LINE SMOOTH",
"3 126 OFFCURVE",
"33 -12 OFFCURVE",
"266 -12 CURVE SMOOTH"
);
}
);
};
layerId = "30D4BC2E-225F-4273-AE59-0FC741A5E71E";
paths = (
{
closed = 1;
nodes = (
"463 -12 OFFCURVE",
"568 42 OFFCURVE",
"621 292 CURVE SMOOTH",
"701 668 LINE",
"540 668 LINE",
"457 279 LINE SMOOTH",
"436 180 OFFCURVE",
"403 117 OFFCURVE",
"294 117 CURVE SMOOTH",
"212 117 OFFCURVE",
"188 151 OFFCURVE",
"188 204 CURVE SMOOTH",
"188 226 OFFCURVE",
"192 251 OFFCURVE",
"198 279 CURVE SMOOTH",
"281 668 LINE",
"120 668 LINE",
"39 292 LINE SMOOTH",
"31 255 OFFCURVE",
"26 220 OFFCURVE",
"26 187 CURVE SMOOTH",
"26 72 OFFCURVE",
"85 -12 OFFCURVE",
"266 -12 CURVE SMOOTH"
);
}
);
width = 679;
}
);
leftMetricsKey = H;
rightKerningGroup = U_2;
rightMetricsKey = H;
unicode = 0055;
},
{
color = (255,153,254,255);
glyphname = V;
lastChange = "2021-04-29 22:51:25 +0000";
layers = (
{
background = {
paths = (
{
closed = 1;
nodes = (
"290 0 LINE",
"662 668 LINE",
"551 668 LINE",
"251 110 LINE",
"189 668 LINE",
"90 668 LINE",
"178 0 LINE"
);
}
);
};
layerId = "678C5AFE-F8DA-443A-BB17-9B03ED7099AB";
paths = (
{
closed = 1;
nodes = (
"290 0 LINE",
"662 668 LINE",
"551 668 LINE",
"251 110 LINE",
"189 668 LINE",
"90 668 LINE",
"178 0 LINE"
);
}
);
width = 592;
},
{
background = {
paths = (
{
closed = 1;
nodes = (
"356 0 LINE",
"724 668 LINE",
"546 668 LINE",
"289 177 LINE",
"240 668 LINE",
"82 668 LINE",
"166 0 LINE"
);
}
);
};
layerId = "30D4BC2E-225F-4273-AE59-0FC741A5E71E";
paths = (
{
closed = 1;
nodes = (
"356 0 LINE",
"724 668 LINE",
"546 668 LINE",
"289 177 LINE",
"240 668 LINE",
"82 668 LINE",
"166 0 LINE"
);
}
);
width = 662;
}
);
unicode = 0056;
},
{
color = (255,153,254,255);
glyphname = W;
lastChange = "2021-04-29 22:51:25 +0000";
layers = (
{
background = {
paths = (
{
closed = 1;
nodes = (
"227 0 LINE",
"472 551 LINE",
"483 0 LINE",
"604 0 LINE",
"914 668 LINE",
"804 668 LINE",
"554 117 LINE",
"549 668 LINE",
"436 668 LINE",
"202 128 LINE",
"190 668 LINE",
"90 668 LINE",
"116 0 LINE"
);
}
);
};
layerId = "678C5AFE-F8DA-443A-BB17-9B03ED7099AB";
paths = (
{
closed = 1;
nodes = (
"227 0 LINE",
"472 551 LINE",
"483 0 LINE",
"604 0 LINE",
"914 668 LINE",
"804 668 LINE",
"554 117 LINE",
"549 668 LINE",
"436 668 LINE",
"202 128 LINE",
"190 668 LINE",
"90 668 LINE",
"116 0 LINE"
);
}
);
width = 844;
},
{
background = {
paths = (
{
closed = 1;
nodes = (
"266 0 LINE",
"468 470 LINE",
"468 0 LINE",
"648 0 LINE",
"951 668 LINE",
"783 668 LINE",
"588 205 LINE",
"588 668 LINE",
"419 668 LINE",
"230 222 LINE",
"235 668 LINE",
"82 668 LINE",
"101 0 LINE"
);
}
);
};
layerId = "30D4BC2E-225F-4273-AE59-0FC741A5E71E";
paths = (
{
closed = 1;
nodes = (
"266 0 LINE",
"468 470 LINE",
"468 0 LINE",
"648 0 LINE",
"951 668 LINE",
"783 668 LINE",
"588 205 LINE",
"588 668 LINE",
"419 668 LINE",
"230 222 LINE",
"235 668 LINE",
"82 668 LINE",
"101 0 LINE"
);
}
);
width = 889;
}
);
leftMetricsKey = V;
rightMetricsKey = V;
unicode = 0057;
},
{
color = (255,153,254,255);
glyphname = X;
lastChange = "2021-04-29 22:51:25 +0000";
layers = (
{
background = {
paths = (
{
closed = 1;
nodes = (
"73 0 LINE",
"317 264 LINE",
"449 0 LINE",
"552 0 LINE",
"383 336 LINE",
"691 668 LINE",
"566 668 LINE",
"339 423 LINE",
"218 668 LINE",
"116 668 LINE",
"274 351 LINE",
"-52 0 LINE"
);
}
);
};
layerId = "678C5AFE-F8DA-443A-BB17-9B03ED7099AB";
paths = (
{
closed = 1;
nodes = (
"73 0 LINE",
"317 264 LINE",
"449 0 LINE",
"552 0 LINE",
"383 336 LINE",
"691 668 LINE",
"566 668 LINE",
"339 423 LINE",
"218 668 LINE",
"116 668 LINE",
"274 351 LINE",
"-52 0 LINE"
);
}
);
width = 624;
},
{
background = {
paths = (
{
closed = 1;
nodes = (
"151 0 LINE",
"343 210 LINE",
"448 0 LINE",
"621 0 LINE",
"456 331 LINE",
"768 668 LINE",
"558 668 LINE",
"382 477 LINE",
"286 668 LINE",
"115 668 LINE",
"270 356 LINE",
"-60 0 LINE"
);
}
);
};
layerId = "30D4BC2E-225F-4273-AE59-0FC741A5E71E";
paths = (
{
closed = 1;
nodes = (
"151 0 LINE",
"343 210 LINE",
"448 0 LINE",
"621 0 LINE",
"456 331 LINE",
"768 668 LINE",
"558 668 LINE",
"382 477 LINE",
"286 668 LINE",
"115 668 LINE",
"270 356 LINE",
"-60 0 LINE"
);
}
);
width = 706;
}
);
leftMetricsKey = V;
rightMetricsKey = V;
unicode = 0058;
},
{
color = 4;
glyphname = Y;
lastChange = "2021-04-29 22:51:25 +0000";
layers = (
{
anchors = (
{
name = bottom;
position = "{246, 0}";
},
{
name = top;
position = "{362, 668}";
},
{
name = topleft;
position = "{109, 668}";
}
);
background = {
anchors = (
{
name = bottom;
position = "{246, 0}";
},
{
name = top;
position = "{362, 668}";
},
{
name = topleft;
position = "{109, 668}";
}
);
paths = (
{
closed = 1;
nodes = (
"274 0 LINE",
"325 240 LINE",
"668 668 LINE",
"554 668 LINE",
"290 331 LINE",
"186 668 LINE",
"90 668 LINE",
"229 240 LINE",
"177 0 LINE"
);
}
);
};
layerId = "678C5AFE-F8DA-443A-BB17-9B03ED7099AB";
paths = (
{
closed = 1;
nodes = (
"274 0 LINE",
"325 240 LINE",
"668 668 LINE",
"554 668 LINE",
"290 331 LINE",
"186 668 LINE",
"90 668 LINE",
"229 240 LINE",
"177 0 LINE"
);
}
);
width = 598;
},
{
anchors = (
{
name = bottom;
position = "{297, 0}";
},
{
name = top;
position = "{403, 668}";
},
{
name = topleft;
position = "{109, 668}";
}
);
background = {
paths = (
{
closed = 1;
nodes = (
"354 0 LINE",
"404 241 LINE",
"762 668 LINE",
"558 668 LINE",
"339 391 LINE",
"253 668 LINE",
"82 668 LINE",
"242 241 LINE",
"191 0 LINE"
);
}
);
};
layerId = "30D4BC2E-225F-4273-AE59-0FC741A5E71E";
paths = (
{
closed = 1;
nodes = (
"354 0 LINE",
"404 241 LINE",
"762 668 LINE",
"558 668 LINE",
"339 391 LINE",
"253 668 LINE",
"82 668 LINE",
"242 241 LINE",
"191 0 LINE"
);
}
);
width = 700;
}
);
leftKerningGroup = Y;
leftMetricsKey = V;
rightKerningGroup = Y_2;
rightMetricsKey = V;
unicode = 0059;
},
{
color = 4;
glyphname = Z;
lastChange = "2021-04-29 22:51:25 +0000";
layers = (
{
anchors = (
{
name = bottom;
position = "{254, 0}";
},
{
name = center;
position = "{325, 334}";
},
{
name = top;
position = "{388, 668}";
}
);
background = {
anchors = (
{
name = bottom;
position = "{254, 0}";
},
{
name = center;
position = "{325, 334}";
},
{
name = top;
position = "{388, 668}";
}
);
paths = (
{
closed = 1;
nodes = (
"506 0 LINE",
"524 81 LINE",
"123 81 LINE",
"623 587 LINE",
"640 668 LINE",
"145 668 LINE",
"128 587 LINE",
"500 587 LINE",
"-1 81 LINE",
"-18 0 LINE"
);
}
);
};
layerId = "678C5AFE-F8DA-443A-BB17-9B03ED7099AB";
paths = (
{
closed = 1;
nodes = (
"506 0 LINE",
"524 81 LINE",
"123 81 LINE",
"623 587 LINE",
"640 668 LINE",
"145 668 LINE",
"128 587 LINE",
"500 587 LINE",
"-1 81 LINE",
"-18 0 LINE"
);
}
);
width = 613;
},
{
anchors = (
{
name = bottom;
position = "{263, 0}";
},
{
name = center;
position = "{334, 334}";
},
{
name = top;
position = "{407, 668}";
}
);
background = {
paths = (
{
closed = 1;
nodes = (
"530 0 LINE",
"560 139 LINE",
"221 139 LINE",
"642 547 LINE",
"668 668 LINE",
"130 668 LINE",
"100 529 LINE",
"411 529 LINE",
"-12 121 LINE",
"-38 0 LINE"
);
}
);
};
layerId = "30D4BC2E-225F-4273-AE59-0FC741A5E71E";
paths = (
{
closed = 1;
nodes = (
"530 0 LINE",
"560 139 LINE",
"221 139 LINE",
"642 547 LINE",
"668 668 LINE",
"130 668 LINE",
"100 529 LINE",
"411 529 LINE",
"-12 121 LINE",
"-38 0 LINE"
);
}
);
width = 632;
}
);
leftKerningGroup = Z;
rightKerningGroup = Z_2;
unicode = 005A;
},
{
color = 4;
glyphname = a;
lastChange = "2021-04-29 22:51:25 +0000";
layers = (
{
anchors = (
{
name = bottom;
position = "{208, 0}";
},
{
name = ogonek;
position = "{408, 0}";
},
{
name = top;
position = "{311, 496}";
}
);
background = {
anchors = (
{
name = bottom;
position = "{208, 0}";
},
{
name = ogonek;
position = "{408, 0}";
},
{
name = top;
position = "{311, 496}";
}
);
paths = (
{
closed = 1;
nodes = (
"232 -12 OFFCURVE",
"281 13 OFFCURVE",
"325 63 CURVE",
"329 0 LINE",
"408 0 LINE",
"409 47 OFFCURVE",
"414 105 OFFCURVE",
"431 188 CURVE SMOOTH",
"456 308 OFFCURVE",
"462 327 OFFCURVE",
"462 361 CURVE SMOOTH",
"462 458 OFFCURVE",
"397 504 OFFCURVE",
"281 504 CURVE SMOOTH",
"185 504 OFFCURVE",
"117 457 OFFCURVE",
"83 382 CURVE",
"158 359 LINE",
"180 407 OFFCURVE",
"224 436 OFFCURVE",
"285 436 CURVE SMOOTH",
"348 436 OFFCURVE",
"377 408 OFFCURVE",
"377 357 CURVE SMOOTH",
"377 342 OFFCURVE",
"374 326 OFFCURVE",
"370 308 CURVE",
"256 296 OFFCURVE",
"5 284 OFFCURVE",
"5 117 CURVE SMOOTH",
"5 38 OFFCURVE",
"69 -12 OFFCURVE",
"154 -12 CURVE SMOOTH"
);
},
{
closed = 1;
nodes = (
"135 57 OFFCURVE",
"99 79 OFFCURVE",
"99 125 CURVE SMOOTH",
"99 211 OFFCURVE",
"196 225 OFFCURVE",
"362 241 CURVE",
"359 224 LINE SMOOTH",
"341 122 OFFCURVE",
"271 57 OFFCURVE",
"181 57 CURVE SMOOTH"
);
}
);
};
layerId = "678C5AFE-F8DA-443A-BB17-9B03ED7099AB";
paths = (
{
closed = 1;
nodes = (
"232 -12 OFFCURVE",
"281 13 OFFCURVE",
"325 63 CURVE",
"329 0 LINE",
"408 0 LINE",
"409 47 OFFCURVE",
"414 105 OFFCURVE",
"431 188 CURVE SMOOTH",
"456 308 OFFCURVE",
"462 327 OFFCURVE",
"462 361 CURVE SMOOTH",
"462 458 OFFCURVE",
"397 504 OFFCURVE",
"281 504 CURVE SMOOTH",
"185 504 OFFCURVE",
"117 457 OFFCURVE",
"83 382 CURVE",
"158 359 LINE",
"180 407 OFFCURVE",
"224 436 OFFCURVE",
"285 436 CURVE SMOOTH",
"348 436 OFFCURVE",
"377 408 OFFCURVE",
"377 357 CURVE SMOOTH",
"377 342 OFFCURVE",
"374 326 OFFCURVE",
"370 308 CURVE",
"256 296 OFFCURVE",
"5 284 OFFCURVE",
"5 117 CURVE SMOOTH",
"5 38 OFFCURVE",
"69 -12 OFFCURVE",
"154 -12 CURVE SMOOTH"
);
},
{
closed = 1;
nodes = (
"135 57 OFFCURVE",
"99 79 OFFCURVE",
"99 125 CURVE SMOOTH",
"99 211 OFFCURVE",
"196 225 OFFCURVE",
"362 241 CURVE",
"359 224 LINE SMOOTH",
"341 122 OFFCURVE",
"271 57 OFFCURVE",
"181 57 CURVE SMOOTH"
);
}
);
width = 521;
},
{
anchors = (
{
name = bottom;
position = "{219, 0}";
},
{
name = ogonek;
position = "{446, 0}";
},
{
name = top;
position = "{298, 496}";
}
);
background = {
paths = (
{
closed = 1;
nodes = (
"201 -12 OFFCURVE",
"247 4 OFFCURVE",
"292 59 CURVE",
"297 0 LINE",
"441 0 LINE",
"441 43 OFFCURVE",
"451 128 OFFCURVE",
"465 193 CURVE SMOOTH",
"470 220 OFFCURVE",
"483 275 OFFCURVE",
"488 302 CURVE",
"519 440 OFFCURVE",
"427 510 OFFCURVE",
"293 510 CURVE SMOOTH",
"181 510 OFFCURVE",
"104 472 OFFCURVE",
"53 394 CURVE",
"170 348 LINE",
"189 388 OFFCURVE",
"229 407 OFFCURVE",
"272 407 CURVE SMOOTH",
"326 407 OFFCURVE",
"354 386 OFFCURVE",
"341 328 CURVE SMOOTH",
"338 315 LINE",
"177 298 OFFCURVE",
"-13 267 OFFCURVE",
"-18 123 CURVE SMOOTH",
"-21 39 OFFCURVE",
"52 -12 OFFCURVE",
"130 -12 CURVE SMOOTH"
);
},
{
closed = 1;
nodes = (
"170 91 OFFCURVE",
"139 111 OFFCURVE",
"143 144 CURVE SMOOTH",
"149 194 OFFCURVE",
"220 216 OFFCURVE",
"328 225 CURVE",
"325 213 LINE SMOOTH",
"301 121 OFFCURVE",
"262 91 OFFCURVE",
"208 91 CURVE SMOOTH"
);
}
);
};
layerId = "30D4BC2E-225F-4273-AE59-0FC741A5E71E";
paths = (
{
closed = 1;
nodes = (
"201 -12 OFFCURVE",
"247 4 OFFCURVE",
"292 59 CURVE",
"297 0 LINE",
"441 0 LINE",
"441 43 OFFCURVE",
"451 128 OFFCURVE",
"465 193 CURVE SMOOTH",
"473 235 OFFCURVE",
"494 312 OFFCURVE",
"494 353 CURVE SMOOTH",
"494 457 OFFCURVE",
"409 510 OFFCURVE",
"293 510 CURVE SMOOTH",
"181 510 OFFCURVE",
"104 472 OFFCURVE",
"53 394 CURVE",
"170 348 LINE",
"189 388 OFFCURVE",
"229 407 OFFCURVE",
"272 407 CURVE SMOOTH",
"317 407 OFFCURVE",
"344 392 OFFCURVE",
"344 354 CURVE SMOOTH",
"344 346 OFFCURVE",
"343 335 OFFCURVE",
"338 315 CURVE",
"175 298 OFFCURVE",
"-18 266 OFFCURVE",
"-18 118 CURVE SMOOTH",
"-18 37 OFFCURVE",
"54 -12 OFFCURVE",
"130 -12 CURVE SMOOTH"
);
},
{
closed = 1;
nodes = (
"172 91 OFFCURVE",
"143 109 OFFCURVE",
"143 138 CURVE SMOOTH",
"143 192 OFFCURVE",
"216 216 OFFCURVE",
"328 225 CURVE",
"325 213 LINE SMOOTH",
"302 121 OFFCURVE",
"262 91 OFFCURVE",
"208 91 CURVE SMOOTH"
);
}
);
width = 545;
}
);
leftKerningGroup = a;
leftMetricsKey = o;
unicode = 0061;
},
{
color = 4;
glyphname = b;
lastChange = "2021-04-29 22:51:26 +0000";
layers = (
{
background = {
paths = (
{
closed = 1;
nodes = (
"426 -12 OFFCURVE",
"509 150 OFFCURVE",
"509 293 CURVE SMOOTH",
"509 397 OFFCURVE",
"465 504 OFFCURVE",
"324 504 CURVE SMOOTH",
"281 504 OFFCURVE",
"229 488 OFFCURVE",
"184 430 CURVE",
"235 668 LINE",
"149 668 LINE",
"7 0 LINE",
"71 0 LINE",
"112 82 LINE",
"143 24 OFFCURVE",
"191 -12 OFFCURVE",
"266 -12 CURVE SMOOTH"
);
},
{
closed = 1;
nodes = (
"176 60 OFFCURVE",
"138 133 OFFCURVE",
"138 211 CURVE SMOOTH",
"138 308 OFFCURVE",
"197 432 OFFCURVE",
"307 432 CURVE SMOOTH",
"384 432 OFFCURVE",
"419 373 OFFCURVE",
"419 291 CURVE SMOOTH",
"419 196 OFFCURVE",
"371 60 OFFCURVE",
"257 60 CURVE SMOOTH"
);
}
);
};
layerId = "678C5AFE-F8DA-443A-BB17-9B03ED7099AB";
paths = (
{
closed = 1;
nodes = (
"426 -12 OFFCURVE",
"509 150 OFFCURVE",
"509 293 CURVE SMOOTH",
"509 397 OFFCURVE",
"465 504 OFFCURVE",
"324 504 CURVE SMOOTH",
"281 504 OFFCURVE",
"229 488 OFFCURVE",
"184 430 CURVE",
"235 668 LINE",
"149 668 LINE",
"7 0 LINE",
"71 0 LINE",
"112 82 LINE",
"143 24 OFFCURVE",
"191 -12 OFFCURVE",
"266 -12 CURVE SMOOTH"
);
},
{
closed = 1;
nodes = (
"176 60 OFFCURVE",
"138 133 OFFCURVE",
"138 211 CURVE SMOOTH",
"138 308 OFFCURVE",
"197 432 OFFCURVE",
"307 432 CURVE SMOOTH",
"384 432 OFFCURVE",
"419 373 OFFCURVE",
"419 291 CURVE SMOOTH",
"419 196 OFFCURVE",
"371 60 OFFCURVE",
"257 60 CURVE SMOOTH"
);
}
);
width = 555;
},
{
background = {
paths = (
{
closed = 1;
nodes = (
"420 -12 OFFCURVE",
"528 87 OFFCURVE",
"550 251 CURVE SMOOTH",
"573 420 OFFCURVE",
"485 510 OFFCURVE",
"373 510 CURVE SMOOTH",
"320 510 OFFCURVE",
"264 487 OFFCURVE",
"227 436 CURVE",
"276 667 LINE",
"121 667 LINE",
"-21 0 LINE",
"115 0 LINE",
"149 66 LINE",
"185 10 OFFCURVE",
"238 -12 OFFCURVE",
"293 -12 CURVE SMOOTH"
);
},
{
closed = 1;
nodes = (
"206 105 OFFCURVE",
"158 153 OFFCURVE",
"180 255 CURVE SMOOTH",
"204 372 OFFCURVE",
"268 392 OFFCURVE",
"310 392 CURVE SMOOTH",
"373 392 OFFCURVE",
"401 334 OFFCURVE",
"394 251 CURVE SMOOTH",
"385 157 OFFCURVE",
"327 105 OFFCURVE",
"266 105 CURVE SMOOTH"
);
}
);
};
layerId = "30D4BC2E-225F-4273-AE59-0FC741A5E71E";
paths = (
{
closed = 1;
nodes = (
"452 -12 OFFCURVE",
"554 137 OFFCURVE",
"554 303 CURVE SMOOTH",
"554 438 OFFCURVE",
"473 510 OFFCURVE",
"373 510 CURVE SMOOTH",
"320 510 OFFCURVE",
"264 487 OFFCURVE",
"227 436 CURVE",
"276 668 LINE",
"121 668 LINE",
"-21 0 LINE",
"115 0 LINE",
"149 66 LINE",
"185 10 OFFCURVE",
"238 -12 OFFCURVE",
"293 -12 CURVE SMOOTH"
);
},
{
closed = 1;
nodes = (
"216 105 OFFCURVE",
"175 138 OFFCURVE",
"175 208 CURVE SMOOTH",
"175 291 OFFCURVE",
"217 392 OFFCURVE",
"310 392 CURVE SMOOTH",
"367 392 OFFCURVE",
"395 345 OFFCURVE",
"395 275 CURVE SMOOTH",
"395 166 OFFCURVE",
"332 105 OFFCURVE",
"266 105 CURVE SMOOTH"
);
}
);
width = 592;
}
);
leftMetricsKey = n;
rightKerningGroup = b;
rightMetricsKey = o;
unicode = 0062;
},
{
color = (255,153,254,255);
glyphname = c;
lastChange = "2021-04-29 22:51:26 +0000";
layers = (
{
anchors = (
{
name = bottom;
position = "{195, 0}";
},
{
name = top;
position = "{301, 496}";
}
);
background = {
anchors = (
{
name = bottom;
position = "{195, 0}";
},
{
name = top;
position = "{301, 496}";
}
);
paths = (
{
closed = 1;
nodes = (
"311 -12 OFFCURVE",
"391 25 OFFCURVE",
"436 99 CURVE",
"365 127 LINE",
"335 87 OFFCURVE",
"295 62 OFFCURVE",
"241 62 CURVE SMOOTH",
"150 62 OFFCURVE",
"118 121 OFFCURVE",
"118 197 CURVE SMOOTH",
"118 319 OFFCURVE",
"180 430 OFFCURVE",
"294 430 CURVE SMOOTH",
"345 430 OFFCURVE",
"387 404 OFFCURVE",
"400 364 CURVE",
"483 393 LINE",
"450 465 OFFCURVE",
"388 504 OFFCURVE",
"298 504 CURVE SMOOTH",
"133 504 OFFCURVE",
"26 361 OFFCURVE",
"26 192 CURVE SMOOTH",
"26 67 OFFCURVE",
"98 -12 OFFCURVE",
"222 -12 CURVE SMOOTH"
);
}
);
};
layerId = "678C5AFE-F8DA-443A-BB17-9B03ED7099AB";
paths = (
{
closed = 1;
nodes = (
"311 -12 OFFCURVE",
"391 25 OFFCURVE",
"436 99 CURVE",
"365 127 LINE",
"335 87 OFFCURVE",
"295 62 OFFCURVE",
"241 62 CURVE SMOOTH",
"150 62 OFFCURVE",
"118 121 OFFCURVE",
"118 197 CURVE SMOOTH",
"118 319 OFFCURVE",
"180 430 OFFCURVE",
"294 430 CURVE SMOOTH",
"345 430 OFFCURVE",
"387 404 OFFCURVE",
"400 364 CURVE",
"483 393 LINE",
"450 465 OFFCURVE",
"388 504 OFFCURVE",
"298 504 CURVE SMOOTH",
"133 504 OFFCURVE",
"26 361 OFFCURVE",
"26 192 CURVE SMOOTH",
"26 67 OFFCURVE",
"98 -12 OFFCURVE",
"222 -12 CURVE SMOOTH"
);
}
);
width = 495;
},
{
anchors = (
{
name = bottom;
position = "{212, 0}";
},
{
name = top;
position = "{318, 496}";
}
);
background = {
paths = (
{
closed = 1;
nodes = (
"308 -12 OFFCURVE",
"400 17 OFFCURVE",
"464 107 CURVE",
"341 154 LINE",
"310 115 OFFCURVE",
"279 105 OFFCURVE",
"236 105 CURVE SMOOTH",
"183 105 OFFCURVE",
"141 143 OFFCURVE",
"162 249 CURVE SMOOTH",
"183 355 OFFCURVE",
"245 392 OFFCURVE",
"299 392 CURVE SMOOTH",
"339 392 OFFCURVE",
"368 378 OFFCURVE",
"378 336 CURVE",
"511 382 LINE",
"475 479 OFFCURVE",
"402 510 OFFCURVE",
"316 510 CURVE SMOOTH",
"155 510 OFFCURVE",
"37 411 OFFCURVE",
"7 250 CURVE SMOOTH",
"-21 99 OFFCURVE",
"62 -12 OFFCURVE",
"223 -12 CURVE SMOOTH"
);
}
);
};
layerId = "30D4BC2E-225F-4273-AE59-0FC741A5E71E";
paths = (
{
closed = 1;
nodes = (
"308 -12 OFFCURVE",
"400 17 OFFCURVE",
"464 107 CURVE",
"341 154 LINE",
"310 115 OFFCURVE",
"279 105 OFFCURVE",
"236 105 CURVE SMOOTH",
"193 105 OFFCURVE",
"156 131 OFFCURVE",
"156 198 CURVE SMOOTH",
"156 288 OFFCURVE",
"204 392 OFFCURVE",
"299 392 CURVE SMOOTH",
"339 392 OFFCURVE",
"368 378 OFFCURVE",
"378 336 CURVE",
"511 382 LINE",
"475 479 OFFCURVE",
"402 510 OFFCURVE",
"316 510 CURVE SMOOTH",
"133 510 OFFCURVE",
"2 373 OFFCURVE",
"2 194 CURVE SMOOTH",
"2 72 OFFCURVE",
"83 -12 OFFCURVE",
"223 -12 CURVE SMOOTH"
);
}
);
width = 531;
}
);
leftKerningGroup = c;
leftMetricsKey = o;
rightKerningGroup = c_2;
unicode = 0063;
},
{
color = 4;
glyphname = d;
lastChange = "2021-04-29 22:51:26 +0000";
layers = (
{
anchors = (
{
name = bottom;
position = "{225, 0}";
},
{
name = center;
position = "{278, 248}";
},
{
name = top;
position = "{394, 796}";
},
{
name = topright;
position = "{639, 651}";
}
);
background = {
anchors = (
{
name = bottom;
position = "{225, 0}";
},
{
name = center;
position = "{278, 248}";
},
{
name = top;
position = "{394, 796}";
},
{
name = topright;
position = "{639, 651}";
}
);
paths = (
{
closed = 1;
nodes = (
"278 -12 OFFCURVE",
"322 18 OFFCURVE",
"356 61 CURVE",
"361 0 LINE",
"442 0 LINE",
"443 87 OFFCURVE",
"458 154 OFFCURVE",
"465 188 CURVE SMOOTH",
"490 308 OFFCURVE",
"567 668 OFFCURVE",
"567 668 CURVE",
"481 668 LINE",
"424 398 LINE",
"405 458 OFFCURVE",
"350 504 OFFCURVE",
"271 504 CURVE SMOOTH",
"120 504 OFFCURVE",
"27 357 OFFCURVE",
"27 198 CURVE SMOOTH",
"27 76 OFFCURVE",
"92 -12 OFFCURVE",
"205 -12 CURVE SMOOTH"
);
},
{
closed = 1;
nodes = (
"167 60 OFFCURVE",
"117 105 OFFCURVE",
"117 199 CURVE SMOOTH",
"117 312 OFFCURVE",
"175 432 OFFCURVE",
"280 432 CURVE SMOOTH",
"357 432 OFFCURVE",
"398 373 OFFCURVE",
"398 281 CURVE SMOOTH",
"398 163 OFFCURVE",
"330 60 OFFCURVE",
"226 60 CURVE SMOOTH"
);
}
);
};
layerId = "678C5AFE-F8DA-443A-BB17-9B03ED7099AB";
paths = (
{
closed = 1;
nodes = (
"278 -12 OFFCURVE",
"322 18 OFFCURVE",
"356 61 CURVE",
"361 0 LINE",
"442 0 LINE",
"443 87 OFFCURVE",
"458 154 OFFCURVE",
"465 188 CURVE SMOOTH",
"490 308 OFFCURVE",
"567 668 OFFCURVE",
"567 668 CURVE",
"481 668 LINE",
"424 398 LINE",
"405 458 OFFCURVE",
"350 504 OFFCURVE",
"271 504 CURVE SMOOTH",
"120 504 OFFCURVE",
"27 357 OFFCURVE",
"27 198 CURVE SMOOTH",
"27 76 OFFCURVE",
"92 -12 OFFCURVE",
"205 -12 CURVE SMOOTH"
);
},
{
closed = 1;
nodes = (
"167 60 OFFCURVE",
"117 105 OFFCURVE",
"117 199 CURVE SMOOTH",
"117 312 OFFCURVE",
"175 432 OFFCURVE",
"280 432 CURVE SMOOTH",
"357 432 OFFCURVE",
"398 373 OFFCURVE",
"398 281 CURVE SMOOTH",
"398 163 OFFCURVE",
"330 60 OFFCURVE",
"226 60 CURVE SMOOTH"
);
}
);
width = 555;
},
{
anchors = (
{
name = bottom;
position = "{243, 0}";
},
{
name = center;
position = "{296, 248}";
},
{
name = top;
position = "{412, 796}";
},
{
name = topright;
position = "{661, 650}";
}
);
background = {
paths = (
{
closed = 1;
nodes = (
"240 -12 OFFCURVE",
"292 9 OFFCURVE",
"334 63 CURVE",
"339 0 LINE",
"488 0 LINE",
"489 72 OFFCURVE",
"502 143 OFFCURVE",
"512 193 CURVE SMOOTH",
"535 311 OFFCURVE",
"613 667 OFFCURVE",
"613 667 CURVE",
"458 667 LINE",
"405 421 LINE",
"384 476 OFFCURVE",
"330 510 OFFCURVE",
"266 510 CURVE SMOOTH",
"135 510 OFFCURVE",
"36 413 OFFCURVE",
"9 255 CURVE SMOOTH",
"-19 92 OFFCURVE",
"59 -12 OFFCURVE",
"187 -12 CURVE SMOOTH"
);
},
{
closed = 1;
nodes = (
"173 105 OFFCURVE",
"151 182 OFFCURVE",
"167 265 CURVE SMOOTH",
"184 353 OFFCURVE",
"232 392 OFFCURVE",
"293 392 CURVE SMOOTH",
"338 392 OFFCURVE",
"393 358 OFFCURVE",
"380 261 CURVE SMOOTH",
"366 158 OFFCURVE",
"311 105 OFFCURVE",
"251 105 CURVE SMOOTH"
);
}
);
};
layerId = "30D4BC2E-225F-4273-AE59-0FC741A5E71E";
paths = (
{
closed = 1;
nodes = (
"240 -12 OFFCURVE",
"292 9 OFFCURVE",
"334 63 CURVE",
"339 0 LINE",
"488 0 LINE",
"489 72 OFFCURVE",
"502 143 OFFCURVE",
"512 193 CURVE SMOOTH",
"535 311 OFFCURVE",
"613 668 OFFCURVE",
"613 668 CURVE",
"458 668 LINE",
"405 421 LINE",
"384 476 OFFCURVE",
"330 510 OFFCURVE",
"266 510 CURVE SMOOTH",
"104 510 OFFCURVE",
"3 359 OFFCURVE",
"3 191 CURVE SMOOTH",
"3 65 OFFCURVE",
"77 -12 OFFCURVE",
"187 -12 CURVE SMOOTH"
);
},
{
closed = 1;
nodes = (
"189 105 OFFCURVE",
"162 154 OFFCURVE",
"162 216 CURVE SMOOTH",
"162 304 OFFCURVE",
"203 392 OFFCURVE",
"293 392 CURVE SMOOTH",
"333 392 OFFCURVE",
"382 365 OFFCURVE",
"382 289 CURVE SMOOTH",
"382 204 OFFCURVE",
"335 105 OFFCURVE",
"251 105 CURVE SMOOTH"
);
}
);
width = 592;
}
);
leftKerningGroup = c;
leftMetricsKey = o;
rightMetricsKey = a;
unicode = 0064;
},
{
color = 4;
glyphname = e;
lastChange = "2021-04-29 22:51:26 +0000";
layers = (
{
anchors = (
{
name = bottom;
position = "{218, 0}";
},
{
name = ogonek;
position = "{337, 10}";
},
{
name = top;
position = "{321, 496}";
}
);
background = {
anchors = (
{
name = bottom;
position = "{218, 0}";
},
{
name = ogonek;
position = "{337, 10}";
},
{
name = top;
position = "{321, 496}";
}
);
paths = (
{
closed = 1;
nodes = (
"334 -12 OFFCURVE",
"403 28 OFFCURVE",
"449 87 CURVE",
"371 111 LINE",
"343 81 OFFCURVE",
"304 62 OFFCURVE",
"248 62 CURVE SMOOTH",
"183 62 OFFCURVE",
"115 94 OFFCURVE",
"115 197 CURVE SMOOTH",
"115 206 OFFCURVE",
"115 215 OFFCURVE",
"116 225 CURVE",
"500 225 LINE",
"506 251 OFFCURVE",
"509 276 OFFCURVE",
"509 300 CURVE SMOOTH",
"509 414 OFFCURVE",
"442 504 OFFCURVE",
"309 504 CURVE SMOOTH",
"136 504 OFFCURVE",
"27 372 OFFCURVE",
"27 199 CURVE SMOOTH",
"27 69 OFFCURVE",
"107 -12 OFFCURVE",
"238 -12 CURVE SMOOTH"
);
},
{
closed = 1;
nodes = (
"147 382 OFFCURVE",
"223 432 OFFCURVE",
"297 432 CURVE SMOOTH",
"387 432 OFFCURVE",
"422 370 OFFCURVE",
"422 310 CURVE SMOOTH",
"422 304 OFFCURVE",
"422 299 OFFCURVE",
"421 293 CURVE",
"128 293 LINE"
);
}
);
};
layerId = "678C5AFE-F8DA-443A-BB17-9B03ED7099AB";
paths = (
{
closed = 1;
nodes = (
"334 -12 OFFCURVE",
"403 28 OFFCURVE",
"449 87 CURVE",
"371 111 LINE",
"343 81 OFFCURVE",
"304 62 OFFCURVE",
"248 62 CURVE SMOOTH",
"183 62 OFFCURVE",
"115 94 OFFCURVE",
"115 197 CURVE SMOOTH",
"115 206 OFFCURVE",
"115 215 OFFCURVE",
"116 225 CURVE",
"500 225 LINE",
"506 251 OFFCURVE",
"509 276 OFFCURVE",
"509 300 CURVE SMOOTH",
"509 414 OFFCURVE",
"442 504 OFFCURVE",
"309 504 CURVE SMOOTH",
"136 504 OFFCURVE",
"27 372 OFFCURVE",
"27 199 CURVE SMOOTH",
"27 69 OFFCURVE",
"107 -12 OFFCURVE",
"238 -12 CURVE SMOOTH"
);
},
{
closed = 1;
nodes = (
"147 382 OFFCURVE",
"223 432 OFFCURVE",
"297 432 CURVE SMOOTH",
"387 432 OFFCURVE",
"422 370 OFFCURVE",
"422 310 CURVE SMOOTH",
"422 304 OFFCURVE",
"422 299 OFFCURVE",
"421 293 CURVE",
"128 293 LINE"
);
}
);
width = 542;
},
{
anchors = (
{
name = bottom;
position = "{230, 0}";
},
{
name = ogonek;
position = "{333, 2}";
},
{
name = top;
position = "{321, 496}";
}
);
background = {
paths = (
{
closed = 1;
nodes = (
"330 -12 OFFCURVE",
"415 27 OFFCURVE",
"472 98 CURVE",
"358 142 LINE",
"303 87 OFFCURVE",
"132 83 OFFCURVE",
"154 209 CURVE",
"519 209 LINE",
"562 388 OFFCURVE",
"480 510 OFFCURVE",
"307 510 CURVE SMOOTH",
"132 510 OFFCURVE",
"28 382 OFFCURVE",
"7 248 CURVE SMOOTH",
"-18 84 OFFCURVE",
"72 -12 OFFCURVE",
"229 -12 CURVE SMOOTH"
);
},
{
closed = 1;
nodes = (
"205 431 OFFCURVE",
"410 434 OFFCURVE",
"395 299 CURVE",
"168 299 LINE"
);
}
);
};
layerId = "30D4BC2E-225F-4273-AE59-0FC741A5E71E";
paths = (
{
closed = 1;
nodes = (
"330 -12 OFFCURVE",
"415 27 OFFCURVE",
"472 98 CURVE",
"358 142 LINE",
"335 119 OFFCURVE",
"294 106 OFFCURVE",
"254 106 CURVE SMOOTH",
"201 106 OFFCURVE",
"152 129 OFFCURVE",
"152 188 CURVE SMOOTH",
"152 194 OFFCURVE",
"153 201 OFFCURVE",
"154 209 CURVE",
"519 209 LINE",
"527 241 OFFCURVE",
"530 270 OFFCURVE",
"530 298 CURVE SMOOTH",
"530 427 OFFCURVE",
"450 510 OFFCURVE",
"307 510 CURVE SMOOTH",
"131 510 OFFCURVE",
"3 371 OFFCURVE",
"3 196 CURVE SMOOTH",
"3 64 OFFCURVE",
"89 -12 OFFCURVE",
"229 -12 CURVE SMOOTH"
);
},
{
closed = 1;
nodes = (
"187 365 OFFCURVE",
"248 399 OFFCURVE",
"302 399 CURVE SMOOTH",
"352 399 OFFCURVE",
"396 371 OFFCURVE",
"396 313 CURVE SMOOTH",
"396 308 OFFCURVE",
"396 304 OFFCURVE",
"395 299 CURVE",
"168 299 LINE"
);
}
);
width = 567;
}
);
leftKerningGroup = c;
leftMetricsKey = o;
rightKerningGroup = e;
unicode = 0065;
},
{
color = 4;
glyphname = f;
lastChange = "2021-04-29 22:51:26 +0000";
layers = (
{
background = {
paths = (
{
closed = 1;
nodes = (
"123 0 LINE",
"214 428 LINE",
"315 428 LINE",
"330 496 LINE",
"228 496 LINE",
"243 563 LINE SMOOTH",
"258 631 OFFCURVE",
"286 635 OFFCURVE",
"335 635 CURVE SMOOTH",
"359 635 LINE",
"374 706 LINE",
"323 706 LINE SMOOTH",
"214 704 OFFCURVE",
"186 686 OFFCURVE",
"154 549 CURVE SMOOTH",
"142 496 LINE",
"59 496 LINE",
"44 428 LINE",
"128 428 LINE",
"37 0 LINE"
);
}
);
};
layerId = "678C5AFE-F8DA-443A-BB17-9B03ED7099AB";
paths = (
{
closed = 1;
nodes = (
"123 0 LINE",
"214 428 LINE",
"315 428 LINE",
"330 496 LINE",
"228 496 LINE",
"243 563 LINE SMOOTH",
"258 631 OFFCURVE",
"286 635 OFFCURVE",
"335 635 CURVE SMOOTH",
"359 635 LINE",
"374 706 LINE",
"323 706 LINE SMOOTH",
"214 704 OFFCURVE",
"186 686 OFFCURVE",
"154 549 CURVE SMOOTH",
"142 496 LINE",
"59 496 LINE",
"44 428 LINE",
"128 428 LINE",
"37 0 LINE"
);
}
);
width = 320;
},
{
background = {
paths = (
{
closed = 1;
nodes = (
"173 0 LINE",
"173 0 OFFCURVE",
"218 215 OFFCURVE",
"253 380 CURVE",
"360 380 LINE",
"385 496 LINE",
"278 496 LINE",
"280 508 OFFCURVE",
"283 518 OFFCURVE",
"285 527 CURVE SMOOTH",
"301 599 OFFCURVE",
"306 608 OFFCURVE",
"368 608 CURVE SMOOTH",
"383 608 OFFCURVE",
"409 608 OFFCURVE",
"409 608 CURVE",
"434 727 LINE",
"434 727 OFFCURVE",
"388 727 OFFCURVE",
"366 727 CURVE SMOOTH",
"202 727 OFFCURVE",
"172 696 OFFCURVE",
"137 558 CURVE",
"124 496 LINE",
"43 496 LINE",
"19 380 LINE",
"99 380 LINE",
"18 0 LINE"
);
}
);
};
layerId = "30D4BC2E-225F-4273-AE59-0FC741A5E71E";
paths = (
{
closed = 1;
nodes = (
"173 0 LINE",
"253 380 LINE",
"360 380 LINE",
"385 496 LINE",
"278 496 LINE",
"285 527 LINE SMOOTH",
"301 599 OFFCURVE",
"306 608 OFFCURVE",
"368 608 CURVE SMOOTH",
"409 608 LINE",
"434 727 LINE",
"366 727 LINE SMOOTH",
"202 727 OFFCURVE",
"166 692 OFFCURVE",
"135 547 CURVE SMOOTH",
"124 496 LINE",
"43 496 LINE",
"19 380 LINE",
"99 380 LINE",
"18 0 LINE"
);
}
);
width = 379;
}
);
rightKerningGroup = f;
unicode = 0066;
},
{
color = 4;
glyphname = g;
lastChange = "2021-04-29 22:51:26 +0000";
layers = (
{
anchors = (
{
name = bottom;
position = "{172, -251}";
},
{
name = top;
position = "{316, 496}";
}
);
background = {
anchors = (
{
name = bottom;
position = "{172, -251}";
},
{
name = top;
position = "{316, 496}";
}
);
paths = (
{
closed = 1;
nodes = (
"398 -190 OFFCURVE",
"417 -28 OFFCURVE",
"433 47 CURVE SMOOTH",
"465 197 OFFCURVE",
"496 346 OFFCURVE",
"528 496 CURVE",
"466 496 LINE",
"426 418 LINE",
"400 472 OFFCURVE",
"336 506 OFFCURVE",
"266 506 CURVE SMOOTH",
"122 506 OFFCURVE",
"32 376 OFFCURVE",
"32 222 CURVE SMOOTH",
"32 83 OFFCURVE",
"127 16 OFFCURVE",
"219 16 CURVE SMOOTH",
"271 16 OFFCURVE",
"322 37 OFFCURVE",
"355 80 CURVE",
"342 23 LINE SMOOTH",
"324 -56 OFFCURVE",
"292 -117 OFFCURVE",
"186 -117 CURVE SMOOTH",
"126 -117 OFFCURVE",
"93 -85 OFFCURVE",
"86 -53 CURVE",
"-4 -78 LINE",
"20 -148 OFFCURVE",
"96 -190 OFFCURVE",
"180 -190 CURVE SMOOTH"
);
},
{
closed = 1;
nodes = (
"172 89 OFFCURVE",
"121 140 OFFCURVE",
"121 226 CURVE SMOOTH",
"121 329 OFFCURVE",
"174 432 OFFCURVE",
"276 432 CURVE SMOOTH",
"342 432 OFFCURVE",
"400 385 OFFCURVE",
"400 296 CURVE SMOOTH",
"400 198 OFFCURVE",
"342 89 OFFCURVE",
"248 89 CURVE SMOOTH"
);
}
);
};
layerId = "678C5AFE-F8DA-443A-BB17-9B03ED7099AB";
paths = (
{
closed = 1;
nodes = (
"398 -190 OFFCURVE",
"417 -28 OFFCURVE",
"433 47 CURVE SMOOTH",
"465 197 OFFCURVE",
"496 346 OFFCURVE",
"528 496 CURVE",
"466 496 LINE",
"426 418 LINE",
"400 472 OFFCURVE",
"336 506 OFFCURVE",
"266 506 CURVE SMOOTH",
"122 506 OFFCURVE",
"32 376 OFFCURVE",
"32 222 CURVE SMOOTH",
"32 83 OFFCURVE",
"127 16 OFFCURVE",
"219 16 CURVE SMOOTH",
"271 16 OFFCURVE",
"322 37 OFFCURVE",
"355 80 CURVE",
"342 23 LINE SMOOTH",
"324 -56 OFFCURVE",
"292 -117 OFFCURVE",
"186 -117 CURVE SMOOTH",
"126 -117 OFFCURVE",
"93 -85 OFFCURVE",
"86 -53 CURVE",
"-4 -78 LINE",
"20 -148 OFFCURVE",
"96 -190 OFFCURVE",
"180 -190 CURVE SMOOTH"
);
},
{
closed = 1;
nodes = (
"172 89 OFFCURVE",
"121 140 OFFCURVE",
"121 226 CURVE SMOOTH",
"121 329 OFFCURVE",
"174 432 OFFCURVE",
"276 432 CURVE SMOOTH",
"342 432 OFFCURVE",
"400 385 OFFCURVE",
"400 296 CURVE SMOOTH",
"400 198 OFFCURVE",
"342 89 OFFCURVE",
"248 89 CURVE SMOOTH"
);
}
);
width = 555;
},
{
anchors = (
{
name = bottom;
position = "{191, -251}";
},
{
name = top;
position = "{317, 496}";
}
);
background = {
paths = (
{
closed = 1;
nodes = (
"29 -248 OFFCURVE",
"408 -278 OFFCURVE",
"476 18 CURVE",
"502 137 OFFCURVE",
"577 496 OFFCURVE",
"577 496 CURVE",
"443 496 LINE",
"409 429 LINE",
"340 569 OFFCURVE",
"52 539 OFFCURVE",
"9 258 CURVE SMOOTH",
"-14 107 OFFCURVE",
"83 17 OFFCURVE",
"187 17 CURVE SMOOTH",
"241 17 OFFCURVE",
"295 41 OFFCURVE",
"337 91 CURVE",
"337 91 OFFCURVE",
"323 26 OFFCURVE",
"319 6 CURVE SMOOTH",
"295 -110 OFFCURVE",
"132 -109 OFFCURVE",
"112 -41 CURVE",
"-22 -85 LINE"
);
},
{
closed = 1;
nodes = (
"191 131 OFFCURVE",
"154 182 OFFCURVE",
"167 266 CURVE SMOOTH",
"180 355 OFFCURVE",
"235 395 OFFCURVE",
"296 395 CURVE SMOOTH",
"356 395 OFFCURVE",
"397 352 OFFCURVE",
"380 263 CURVE SMOOTH",
"361 165 OFFCURVE",
"307 131 OFFCURVE",
"247 131 CURVE SMOOTH"
);
}
);
};
layerId = "30D4BC2E-225F-4273-AE59-0FC741A5E71E";
paths = (
{
closed = 1;
nodes = (
"312 -207 OFFCURVE",
"439 -142 OFFCURVE",
"476 18 CURVE",
"510 177 OFFCURVE",
"543 337 OFFCURVE",
"577 496 CURVE",
"443 496 LINE",
"409 429 LINE",
"383 482 OFFCURVE",
"326 511 OFFCURVE",
"262 511 CURVE SMOOTH",
"112 511 OFFCURVE",
"6 366 OFFCURVE",
"6 214 CURVE SMOOTH",
"6 90 OFFCURVE",
"93 17 OFFCURVE",
"187 17 CURVE SMOOTH",
"241 17 OFFCURVE",
"295 41 OFFCURVE",
"337 91 CURVE",
"319 6 LINE SMOOTH",
"305 -59 OFFCURVE",
"248 -88 OFFCURVE",
"196 -88 CURVE SMOOTH",
"157 -88 OFFCURVE",
"121 -71 OFFCURVE",
"112 -41 CURVE",
"-22 -85 LINE",
"1 -160 OFFCURVE",
"94 -207 OFFCURVE",
"194 -207 CURVE SMOOTH"
);
},
{
closed = 1;
nodes = (
"199 131 OFFCURVE",
"164 169 OFFCURVE",
"164 234 CURVE SMOOTH",
"164 318 OFFCURVE",
"209 395 OFFCURVE",
"296 395 CURVE SMOOTH",
"347 395 OFFCURVE",
"384 364 OFFCURVE",
"384 301 CURVE SMOOTH",
"384 215 OFFCURVE",
"338 131 OFFCURVE",
"247 131 CURVE SMOOTH"
);
}
);
width = 594;
}
);
leftKerningGroup = g;
leftMetricsKey = o;
unicode = 0067;
},
{
color = 4;
glyphname = h;
lastChange = "2021-04-29 22:51:26 +0000";
layers = (
{
background = {
paths = (
{
closed = 1;
nodes = (
"93 0 LINE",
"147 257 LINE SMOOTH",
"174 387 OFFCURVE",
"246 430 OFFCURVE",
"318 430 CURVE SMOOTH",
"375 430 OFFCURVE",
"401 409 OFFCURVE",
"401 352 CURVE SMOOTH",
"401 333 OFFCURVE",
"398 309 OFFCURVE",
"392 280 CURVE SMOOTH",
"333 0 LINE",
"418 0 LINE",
"480 288 LINE SMOOTH",
"486 317 OFFCURVE",
"489 343 OFFCURVE",
"489 366 CURVE SMOOTH",
"489 460 OFFCURVE",
"439 504 OFFCURVE",
"355 504 CURVE SMOOTH",
"266 504 OFFCURVE",
"217 470 OFFCURVE",
"184 427 CURVE",
"235 668 LINE",
"149 668 LINE",
"7 0 LINE"
);
}
);
};
layerId = "678C5AFE-F8DA-443A-BB17-9B03ED7099AB";
paths = (
{
closed = 1;
nodes = (
"93 0 LINE",
"147 257 LINE SMOOTH",
"174 387 OFFCURVE",
"246 430 OFFCURVE",
"318 430 CURVE SMOOTH",
"375 430 OFFCURVE",
"401 409 OFFCURVE",
"401 352 CURVE SMOOTH",
"401 333 OFFCURVE",
"398 309 OFFCURVE",
"392 280 CURVE SMOOTH",
"333 0 LINE",
"418 0 LINE",
"480 288 LINE SMOOTH",
"486 317 OFFCURVE",
"489 343 OFFCURVE",
"489 366 CURVE SMOOTH",
"489 460 OFFCURVE",
"439 504 OFFCURVE",
"355 504 CURVE SMOOTH",
"266 504 OFFCURVE",
"217 470 OFFCURVE",
"184 427 CURVE",
"235 668 LINE",
"149 668 LINE",
"7 0 LINE"
);
}
);
width = 548;
},
{
background = {
paths = (
{
closed = 1;
nodes = (
"135 0 LINE",
"189 254 LINE",
"207 345 OFFCURVE",
"249 392 OFFCURVE",
"311 392 CURVE SMOOTH",
"363 392 OFFCURVE",
"378 355 OFFCURVE",
"358 263 CURVE SMOOTH",
"302 0 LINE",
"458 0 LINE",
"518 281 LINE SMOOTH",
"553 445 OFFCURVE",
"493 510 OFFCURVE",
"396 510 CURVE SMOOTH",
"308 510 OFFCURVE",
"250 470 OFFCURVE",
"222 432 CURVE",
"272 668 LINE",
"121 668 LINE",
"-21 0 LINE"
);
}
);
};
layerId = "30D4BC2E-225F-4273-AE59-0FC741A5E71E";
paths = (
{
closed = 1;
nodes = (
"135 0 LINE",
"189 254 LINE",
"207 345 OFFCURVE",
"249 392 OFFCURVE",
"311 392 CURVE SMOOTH",
"348 392 OFFCURVE",
"367 373 OFFCURVE",
"367 328 CURVE SMOOTH",
"367 311 OFFCURVE",
"364 289 OFFCURVE",
"358 263 CURVE SMOOTH",
"302 0 LINE",
"458 0 LINE",
"518 281 LINE SMOOTH",
"525 313 OFFCURVE",
"528 341 OFFCURVE",
"528 366 CURVE SMOOTH",
"528 468 OFFCURVE",
"474 510 OFFCURVE",
"396 510 CURVE SMOOTH",
"308 510 OFFCURVE",
"250 470 OFFCURVE",
"222 432 CURVE",
"272 668 LINE",
"121 668 LINE",
"-21 0 LINE"
);
}
);
width = 580;
}
);
leftMetricsKey = n;
rightKerningGroup = h;
rightMetricsKey = n;
unicode = 0068;
},
{
color = 4;
glyphname = i;
lastChange = "2021-04-29 22:51:26 +0000";
layers = (
{
background = {
paths = (
{
closed = 1;
nodes = (
"132 0 LINE",
"237 496 LINE",
"71 496 LINE",
"57 428 LINE",
"137 428 LINE",
"46 0 LINE"
);
},
{
closed = 1;
nodes = (
"264 591 OFFCURVE",
"292 619 OFFCURVE",
"292 653 CURVE SMOOTH",
"292 688 OFFCURVE",
"264 716 OFFCURVE",
"229 716 CURVE SMOOTH",
"195 716 OFFCURVE",
"167 688 OFFCURVE",
"167 653 CURVE SMOOTH",
"167 619 OFFCURVE",
"195 591 OFFCURVE",
"229 591 CURVE SMOOTH"
);
}
);
};
layerId = "678C5AFE-F8DA-443A-BB17-9B03ED7099AB";
paths = (
{
closed = 1;
nodes = (
"132 0 LINE",
"237 496 LINE",
"71 496 LINE",
"57 428 LINE",
"137 428 LINE",
"46 0 LINE"
);
},
{
closed = 1;
nodes = (
"264 591 OFFCURVE",
"292 619 OFFCURVE",
"292 653 CURVE SMOOTH",
"292 688 OFFCURVE",
"264 716 OFFCURVE",
"229 716 CURVE SMOOTH",
"195 716 OFFCURVE",
"167 688 OFFCURVE",
"167 653 CURVE SMOOTH",
"167 619 OFFCURVE",
"195 591 OFFCURVE",
"229 591 CURVE SMOOTH"
);
}
);
width = 270;
},
{
background = {
paths = (
{
closed = 1;
nodes = (
"204 0 LINE",
"309 496 LINE",
"51 496 LINE",
"26 380 LINE",
"129 380 LINE",
"48 0 LINE"
);
},
{
closed = 1;
nodes = (
"316 578 OFFCURVE",
"356 619 OFFCURVE",
"356 668 CURVE SMOOTH",
"356 717 OFFCURVE",
"316 757 OFFCURVE",
"266 757 CURVE SMOOTH",
"216 757 OFFCURVE",
"177 717 OFFCURVE",
"177 668 CURVE SMOOTH",
"177 619 OFFCURVE",
"216 578 OFFCURVE",
"266 578 CURVE SMOOTH"
);
}
);
};
layerId = "30D4BC2E-225F-4273-AE59-0FC741A5E71E";
paths = (
{
closed = 1;
nodes = (
"204 0 LINE",
"309 496 LINE",
"51 496 LINE",
"26 380 LINE",
"129 380 LINE",
"48 0 LINE"
);
},
{
closed = 1;
nodes = (
"316 578 OFFCURVE",
"356 619 OFFCURVE",
"356 668 CURVE SMOOTH",
"356 717 OFFCURVE",
"316 757 OFFCURVE",
"266 757 CURVE SMOOTH",
"216 757 OFFCURVE",
"177 717 OFFCURVE",
"177 668 CURVE SMOOTH",
"177 619 OFFCURVE",
"216 578 OFFCURVE",
"266 578 CURVE SMOOTH"
);
}
);
width = 338;
}
);
leftKerningGroup = i;
unicode = 0069;
},
{
color = 4;
glyphname = j;
lastChange = "2021-04-29 22:51:26 +0000";
layers = (
{
background = {
paths = (
{
closed = 1;
nodes = (
"67 -161 OFFCURVE",
"88 -122 OFFCURVE",
"115 8 CURVE SMOOTH",
"219 496 LINE",
"133 496 LINE",
"30 13 LINE SMOOTH",
"13 -69 OFFCURVE",
"-1 -86 OFFCURVE",
"-106 -86 CURVE SMOOTH",
"-116 -86 OFFCURVE",
"-127 -86 OFFCURVE",
"-138 -86 CURVE",
"-154 -159 LINE",
"-129 -160 OFFCURVE",
"-106 -161 OFFCURVE",
"-85 -161 CURVE SMOOTH"
);
},
{
closed = 1;
nodes = (
"245 591 OFFCURVE",
"274 619 OFFCURVE",
"274 654 CURVE SMOOTH",
"274 689 OFFCURVE",
"245 717 OFFCURVE",
"211 717 CURVE SMOOTH",
"176 717 OFFCURVE",
"148 689 OFFCURVE",
"148 654 CURVE SMOOTH",
"148 619 OFFCURVE",
"176 591 OFFCURVE",
"211 591 CURVE SMOOTH"
);
}
);
};
layerId = "678C5AFE-F8DA-443A-BB17-9B03ED7099AB";
paths = (
{
closed = 1;
nodes = (
"67 -161 OFFCURVE",
"88 -122 OFFCURVE",
"115 8 CURVE SMOOTH",
"219 496 LINE",
"133 496 LINE",
"30 13 LINE SMOOTH",
"13 -69 OFFCURVE",
"-1 -86 OFFCURVE",
"-106 -86 CURVE SMOOTH",
"-116 -86 OFFCURVE",
"-127 -86 OFFCURVE",
"-138 -86 CURVE",
"-154 -159 LINE",
"-129 -160 OFFCURVE",
"-106 -161 OFFCURVE",
"-85 -161 CURVE SMOOTH"
);
},
{
closed = 1;
nodes = (
"245 591 OFFCURVE",
"274 619 OFFCURVE",
"274 654 CURVE SMOOTH",
"274 689 OFFCURVE",
"245 717 OFFCURVE",
"211 717 CURVE SMOOTH",
"176 717 OFFCURVE",
"148 689 OFFCURVE",
"148 654 CURVE SMOOTH",
"148 619 OFFCURVE",
"176 591 OFFCURVE",
"211 591 CURVE SMOOTH"
);
}
);
width = 258;
},
{
background = {
paths = (
{
closed = 1;
nodes = (
"-174 -162 OFFCURVE",
"-107 -162 OFFCURVE",
"-85 -162 CURVE SMOOTH",
"68 -162 OFFCURVE",
"105 -147 OFFCURVE",
"145 8 CURVE",
"249 496 LINE",
"93 496 LINE",
"93 496 OFFCURVE",
"24 164 OFFCURVE",
"-4 39 CURVE",
"-18 -28 OFFCURVE",
"-26 -42 OFFCURVE",
"-87 -42 CURVE SMOOTH",
"-103 -42 OFFCURVE",
"-148 -42 OFFCURVE",
"-148 -42 CURVE",
"-174 -162 LINE"
);
},
{
closed = 1;
nodes = (
"255 578 OFFCURVE",
"296 619 OFFCURVE",
"296 668 CURVE SMOOTH",
"296 718 OFFCURVE",
"255 758 OFFCURVE",
"206 758 CURVE SMOOTH",
"156 758 OFFCURVE",
"116 718 OFFCURVE",
"116 668 CURVE SMOOTH",
"116 619 OFFCURVE",
"156 578 OFFCURVE",
"206 578 CURVE SMOOTH"
);
}
);
};
layerId = "30D4BC2E-225F-4273-AE59-0FC741A5E71E";
paths = (
{
closed = 1;
nodes = (
"69 -162 OFFCURVE",
"114 -139 OFFCURVE",
"148 23 CURVE SMOOTH",
"249 496 LINE",
"93 496 LINE",
"-4 39 LINE SMOOTH",
"-18 -28 OFFCURVE",
"-26 -42 OFFCURVE",
"-87 -42 CURVE SMOOTH",
"-107 -42 OFFCURVE",
"-128 -42 OFFCURVE",
"-148 -42 CURVE",
"-174 -160 LINE",
"-144 -161 OFFCURVE",
"-115 -162 OFFCURVE",
"-74 -162 CURVE SMOOTH"
);
},
{
closed = 1;
nodes = (
"255 578 OFFCURVE",
"296 619 OFFCURVE",
"296 668 CURVE SMOOTH",
"296 718 OFFCURVE",
"255 758 OFFCURVE",
"206 758 CURVE SMOOTH",
"156 758 OFFCURVE",
"116 718 OFFCURVE",
"116 668 CURVE SMOOTH",
"116 619 OFFCURVE",
"156 578 OFFCURVE",
"206 578 CURVE SMOOTH"
);
}
);
width = 263;
}
);
unicode = 006A;
},
{
color = 4;
glyphname = k;
lastChange = "2021-04-29 22:51:26 +0000";
layers = (
{
anchors = (
{
name = bottom;
position = "{221, 0}";
},
{
name = top;
position = "{360, 796}";
}
);
background = {
anchors = (
{
name = bottom;
position = "{221, 0}";
},
{
name = top;
position = "{360, 796}";
}
);
paths = (
{
closed = 1;
nodes = (
"93 0 LINE",
"128 166 LINE",
"202 232 LINE",
"321 0 LINE",
"415 0 LINE",
"266 289 LINE",
"500 496 LINE",
"388 496 LINE",
"153 285 LINE",
"235 668 LINE",
"149 668 LINE",
"7 0 LINE"
);
}
);
};
layerId = "678C5AFE-F8DA-443A-BB17-9B03ED7099AB";
paths = (
{
closed = 1;
nodes = (
"93 0 LINE",
"128 166 LINE",
"202 232 LINE",
"321 0 LINE",
"415 0 LINE",
"266 289 LINE",
"500 496 LINE",
"388 496 LINE",
"153 285 LINE",
"235 668 LINE",
"149 668 LINE",
"7 0 LINE"
);
}
);
width = 487;
},
{
anchors = (
{
name = bottom;
position = "{218, 0}";
},
{
name = top;
position = "{397, 796}";
}
);
background = {
paths = (
{
closed = 1;
nodes = (
"135 0 LINE",
"161 124 LINE",
"229 184 LINE",
"324 0 LINE",
"487 0 LINE",
"342 283 LINE",
"586 496 LINE",
"388 496 LINE",
"203 327 LINE",
"276 668 LINE",
"121 668 LINE",
"-21 0 LINE"
);
}
);
};
layerId = "30D4BC2E-225F-4273-AE59-0FC741A5E71E";
paths = (
{
closed = 1;
nodes = (
"135 0 LINE",
"161 124 LINE",
"229 184 LINE",
"324 0 LINE",
"487 0 LINE",
"342 283 LINE",
"586 496 LINE",
"388 496 LINE",
"203 327 LINE",
"276 668 LINE",
"121 668 LINE",
"-21 0 LINE"
);
}
);
width = 562;
}
);
leftMetricsKey = n;
unicode = 006B;
},
{
color = 4;
glyphname = l;
lastChange = "2021-04-29 22:51:26 +0000";
layers = (
{
anchors = (
{
name = bottom;
position = "{97, 0}";
},
{
name = center;
position = "{162, 398}";
},
{
name = top;
position = "{246, 796}";
},
{
name = topright;
position = "{299, 647}";
}
);
background = {
anchors = (
{
name = bottom;
position = "{97, 0}";
},
{
name = center;
position = "{162, 398}";
},
{
name = top;
position = "{246, 796}";
},
{
name = topright;
position = "{299, 647}";
}
);
paths = (
{
closed = 1;
nodes = (
"145 0 OFFCURVE",
"163 0 OFFCURVE",
"182 0 CURVE",
"198 75 LINE",
"161 75 LINE SMOOTH",
"128 75 OFFCURVE",
"118 84 OFFCURVE",
"118 104 CURVE SMOOTH",
"118 113 OFFCURVE",
"120 125 OFFCURVE",
"123 140 CURVE SMOOTH",
"235 668 LINE",
"149 668 LINE",
"34 125 LINE SMOOTH",
"29 103 OFFCURVE",
"27 84 OFFCURVE",
"27 67 CURVE SMOOTH",
"27 22 OFFCURVE",
"49 0 OFFCURVE",
"126 0 CURVE"
);
}
);
};
layerId = "678C5AFE-F8DA-443A-BB17-9B03ED7099AB";
paths = (
{
closed = 1;
nodes = (
"145 0 OFFCURVE",
"163 0 OFFCURVE",
"182 0 CURVE",
"198 75 LINE",
"161 75 LINE SMOOTH",
"128 75 OFFCURVE",
"118 84 OFFCURVE",
"118 104 CURVE SMOOTH",
"118 113 OFFCURVE",
"120 125 OFFCURVE",
"123 140 CURVE SMOOTH",
"235 668 LINE",
"149 668 LINE",
"34 125 LINE SMOOTH",
"29 103 OFFCURVE",
"27 84 OFFCURVE",
"27 67 CURVE SMOOTH",
"27 22 OFFCURVE",
"49 0 OFFCURVE",
"126 0 CURVE"
);
}
);
width = 259;
},
{
anchors = (
{
name = bottom;
position = "{108, 0}";
},
{
name = center;
position = "{191, 398}";
},
{
name = top;
position = "{275, 796}";
},
{
name = topright;
position = "{322, 650}";
}
);
background = {
paths = (
{
closed = 1;
nodes = (
"244 0 LINE",
"270 124 LINE",
"227 124 LINE SMOOTH",
"161 124 OFFCURVE",
"168 152 OFFCURVE",
"179 204 CURVE SMOOTH",
"277 668 LINE",
"121 668 LINE",
"9 140 LINE SMOOTH",
"-13 34 OFFCURVE",
"45 0 OFFCURVE",
"147 0 CURVE SMOOTH"
);
}
);
};
layerId = "30D4BC2E-225F-4273-AE59-0FC741A5E71E";
paths = (
{
closed = 1;
nodes = (
"179 0 OFFCURVE",
"212 0 OFFCURVE",
"244 0 CURVE",
"270 124 LINE",
"227 124 LINE SMOOTH",
"184 124 OFFCURVE",
"172 136 OFFCURVE",
"172 159 CURVE SMOOTH",
"172 171 OFFCURVE",
"175 186 OFFCURVE",
"179 204 CURVE SMOOTH",
"277 668 LINE",
"121 668 LINE",
"9 140 LINE SMOOTH",
"6 125 OFFCURVE",
"4 111 OFFCURVE",
"4 99 CURVE SMOOTH",
"4 25 OFFCURVE",
"59 0 OFFCURVE",
"147 0 CURVE SMOOTH"
);
}
);
width = 317;
}
);
leftMetricsKey = n;
unicode = 006C;
},
{
color = (255,153,254,255);
glyphname = m;
lastChange = "2021-04-29 22:51:26 +0000";
layers = (
{
background = {
paths = (
{
closed = 1;
nodes = (
"94 0 LINE",
"151 270 LINE SMOOTH",
"175 380 OFFCURVE",
"239 431 OFFCURVE",
"313 431 CURVE SMOOTH",
"368 431 OFFCURVE",
"389 406 OFFCURVE",
"389 357 CURVE SMOOTH",
"389 338 OFFCURVE",
"386 315 OFFCURVE",
"380 289 CURVE SMOOTH",
"319 0 LINE",
"405 0 LINE",
"462 270 LINE SMOOTH",
"484 371 OFFCURVE",
"541 431 OFFCURVE",
"625 431 CURVE SMOOTH",
"681 431 OFFCURVE",
"700 406 OFFCURVE",
"700 359 CURVE SMOOTH",
"700 340 OFFCURVE",
"697 316 OFFCURVE",
"691 289 CURVE SMOOTH",
"630 0 LINE",
"716 0 LINE",
"779 300 LINE",
"785 328 OFFCURVE",
"788 352 OFFCURVE",
"788 372 CURVE SMOOTH",
"788 500 OFFCURVE",
"686 504 OFFCURVE",
"651 504 CURVE SMOOTH",
"582 504 OFFCURVE",
"524 481 OFFCURVE",
"475 416 CURVE",
"456 470 OFFCURVE",
"420 504 OFFCURVE",
"341 504 CURVE SMOOTH",
"266 504 OFFCURVE",
"222 474 OFFCURVE",
"183 427 CURVE",
"177 496 LINE",
"113 496 LINE",
"8 0 LINE"
);
}
);
};
layerId = "678C5AFE-F8DA-443A-BB17-9B03ED7099AB";
paths = (
{
closed = 1;
nodes = (
"94 0 LINE",
"151 270 LINE SMOOTH",
"175 380 OFFCURVE",
"239 431 OFFCURVE",
"313 431 CURVE SMOOTH",
"368 431 OFFCURVE",
"389 406 OFFCURVE",
"389 357 CURVE SMOOTH",
"389 338 OFFCURVE",
"386 315 OFFCURVE",
"380 289 CURVE SMOOTH",
"319 0 LINE",
"405 0 LINE",
"462 270 LINE SMOOTH",
"484 371 OFFCURVE",
"541 431 OFFCURVE",
"625 431 CURVE SMOOTH",
"681 431 OFFCURVE",
"700 406 OFFCURVE",
"700 359 CURVE SMOOTH",
"700 340 OFFCURVE",
"697 316 OFFCURVE",
"691 289 CURVE SMOOTH",
"630 0 LINE",
"716 0 LINE",
"779 300 LINE",
"785 328 OFFCURVE",
"788 352 OFFCURVE",
"788 372 CURVE SMOOTH",
"788 500 OFFCURVE",
"686 504 OFFCURVE",
"651 504 CURVE SMOOTH",
"582 504 OFFCURVE",
"524 481 OFFCURVE",
"475 416 CURVE",
"456 470 OFFCURVE",
"420 504 OFFCURVE",
"341 504 CURVE SMOOTH",
"266 504 OFFCURVE",
"222 474 OFFCURVE",
"183 427 CURVE",
"177 496 LINE",
"113 496 LINE",
"8 0 LINE"
);
}
);
width = 846;
},
{
background = {
paths = (
{
closed = 1;
nodes = (
"136 0 LINE",
"191 258 LINE SMOOTH",
"210 345 OFFCURVE",
"247 392 OFFCURVE",
"309 392 CURVE SMOOTH",
"357 392 OFFCURVE",
"376 365 OFFCURVE",
"354 263 CURVE SMOOTH",
"298 0 LINE",
"454 0 LINE",
"509 261 LINE SMOOTH",
"528 349 OFFCURVE",
"566 392 OFFCURVE",
"628 392 CURVE SMOOTH",
"686 392 OFFCURVE",
"694 360 OFFCURVE",
"673 263 CURVE SMOOTH",
"617 0 LINE",
"773 0 LINE",
"835 290 LINE SMOOTH",
"864 425 OFFCURVE",
"829 510 OFFCURVE",
"701 510 CURVE SMOOTH",
"631 510 OFFCURVE",
"571 485 OFFCURVE",
"523 427 CURVE",
"504 483 OFFCURVE",
"463 510 OFFCURVE",
"384 510 CURVE SMOOTH",
"309 510 OFFCURVE",
"256 469 OFFCURVE",
"226 432 CURVE",
"221 496 LINE",
"85 496 LINE",
"-20 0 LINE"
);
}
);
};
layerId = "30D4BC2E-225F-4273-AE59-0FC741A5E71E";
paths = (
{
closed = 1;
nodes = (
"136 0 LINE",
"191 258 LINE SMOOTH",
"210 345 OFFCURVE",
"247 392 OFFCURVE",
"309 392 CURVE SMOOTH",
"344 392 OFFCURVE",
"363 378 OFFCURVE",
"363 332 CURVE SMOOTH",
"363 314 OFFCURVE",
"360 292 OFFCURVE",
"354 263 CURVE SMOOTH",
"298 0 LINE",
"454 0 LINE",
"509 261 LINE SMOOTH",
"528 349 OFFCURVE",
"566 392 OFFCURVE",
"628 392 CURVE SMOOTH",
"667 392 OFFCURVE",
"684 377 OFFCURVE",
"684 338 CURVE SMOOTH",
"684 319 OFFCURVE",
"680 294 OFFCURVE",
"673 263 CURVE SMOOTH",
"617 0 LINE",
"773 0 LINE",
"835 290 LINE SMOOTH",
"841 319 OFFCURVE",
"845 346 OFFCURVE",
"845 370 CURVE SMOOTH",
"845 458 OFFCURVE",
"801 510 OFFCURVE",
"701 510 CURVE SMOOTH",
"631 510 OFFCURVE",
"571 485 OFFCURVE",
"523 427 CURVE",
"504 483 OFFCURVE",
"463 510 OFFCURVE",
"384 510 CURVE SMOOTH",
"309 510 OFFCURVE",
"256 469 OFFCURVE",
"226 432 CURVE",
"221 496 LINE",
"85 496 LINE",
"-20 0 LINE"
);
}
);
width = 895;
}
);
leftMetricsKey = n;
rightKerningGroup = h;
rightMetricsKey = n;
unicode = 006D;
},
{
color = 4;
glyphname = n;
lastChange = "2021-04-29 22:51:26 +0000";
layers = (
{
anchors = (
{
name = bottom;
position = "{212, 0}";
},
{
name = top;
position = "{328, 496}";
}
);
background = {
anchors = (
{
name = bottom;
position = "{212, 0}";
},
{
name = top;
position = "{328, 496}";
}
);
paths = (
{
closed = 1;
nodes = (
"94 0 LINE",
"148 257 LINE SMOOTH",
"175 387 OFFCURVE",
"247 430 OFFCURVE",
"319 430 CURVE SMOOTH",
"376 430 OFFCURVE",
"402 409 OFFCURVE",
"402 351 CURVE SMOOTH",
"402 332 OFFCURVE",
"399 308 OFFCURVE",
"393 279 CURVE SMOOTH",
"334 0 LINE",
"419 0 LINE",
"481 287 LINE SMOOTH",
"487 316 OFFCURVE",
"490 342 OFFCURVE",
"490 365 CURVE SMOOTH",
"490 459 OFFCURVE",
"440 504 OFFCURVE",
"356 504 CURVE SMOOTH",
"267 504 OFFCURVE",
"216 470 OFFCURVE",
"183 427 CURVE",
"177 496 LINE",
"113 496 LINE",
"8 0 LINE"
);
}
);
};
layerId = "678C5AFE-F8DA-443A-BB17-9B03ED7099AB";
paths = (
{
closed = 1;
nodes = (
"94 0 LINE",
"148 257 LINE SMOOTH",
"175 387 OFFCURVE",
"247 430 OFFCURVE",
"319 430 CURVE SMOOTH",
"376 430 OFFCURVE",
"402 409 OFFCURVE",
"402 351 CURVE SMOOTH",
"402 332 OFFCURVE",
"399 308 OFFCURVE",
"393 279 CURVE SMOOTH",
"334 0 LINE",
"419 0 LINE",
"481 287 LINE SMOOTH",
"487 316 OFFCURVE",
"490 342 OFFCURVE",
"490 365 CURVE SMOOTH",
"490 459 OFFCURVE",
"440 504 OFFCURVE",
"356 504 CURVE SMOOTH",
"267 504 OFFCURVE",
"216 470 OFFCURVE",
"183 427 CURVE",
"177 496 LINE",
"113 496 LINE",
"8 0 LINE"
);
}
);
width = 550;
},
{
anchors = (
{
name = bottom;
position = "{218, 0}";
},
{
name = top;
position = "{344, 496}";
}
);
background = {
paths = (
{
closed = 1;
nodes = (
"136 0 LINE",
"190 254 LINE SMOOTH",
"209 345 OFFCURVE",
"250 392 OFFCURVE",
"312 392 CURVE SMOOTH",
"364 392 OFFCURVE",
"379 355 OFFCURVE",
"359 263 CURVE SMOOTH",
"303 0 LINE",
"459 0 LINE",
"519 281 LINE SMOOTH",
"554 445 OFFCURVE",
"494 510 OFFCURVE",
"397 510 CURVE SMOOTH",
"309 510 OFFCURVE",
"254 470 OFFCURVE",
"226 432 CURVE",
"221 496 LINE",
"85 496 LINE",
"-20 0 LINE"
);
}
);
};
layerId = "30D4BC2E-225F-4273-AE59-0FC741A5E71E";
paths = (
{
closed = 1;
nodes = (
"136 0 LINE",
"190 254 LINE SMOOTH",
"209 345 OFFCURVE",
"250 392 OFFCURVE",
"312 392 CURVE SMOOTH",
"349 392 OFFCURVE",
"368 373 OFFCURVE",
"368 328 CURVE SMOOTH",
"368 311 OFFCURVE",
"365 289 OFFCURVE",
"359 263 CURVE SMOOTH",
"303 0 LINE",
"459 0 LINE",
"519 281 LINE SMOOTH",
"526 313 OFFCURVE",
"529 341 OFFCURVE",
"529 366 CURVE SMOOTH",
"529 468 OFFCURVE",
"475 510 OFFCURVE",
"397 510 CURVE SMOOTH",
"309 510 OFFCURVE",
"254 470 OFFCURVE",
"226 432 CURVE",
"221 496 LINE",
"85 496 LINE",
"-20 0 LINE"
);
}
);
width = 581;
}
);
leftKerningGroup = n;
rightKerningGroup = h;
unicode = 006E;
},
{
color = 4;
glyphname = o;
lastChange = "2021-04-29 22:51:26 +0000";
layers = (
{
anchors = (
{
name = bottom;
position = "{221, 0}";
},
{
name = center;
position = "{274, 248}";
},
{
name = ogonek;
position = "{441, 10}";
},
{
name = top;
position = "{321, 496}";
},
{
name = topright;
position = "{580, 496}";
}
);
background = {
anchors = (
{
name = bottom;
position = "{221, 0}";
},
{
name = center;
position = "{274, 248}";
},
{
name = ogonek;
position = "{441, 10}";
},
{
name = top;
position = "{321, 496}";
},
{
name = topright;
position = "{580, 496}";
}
);
paths = (
{
closed = 1;
nodes = (
"390 -12 OFFCURVE",
"502 131 OFFCURVE",
"502 298 CURVE SMOOTH",
"502 439 OFFCURVE",
"405 504 OFFCURVE",
"303 504 CURVE SMOOTH",
"140 504 OFFCURVE",
"27 372 OFFCURVE",
"27 199 CURVE SMOOTH",
"27 75 OFFCURVE",
"97 -12 OFFCURVE",
"230 -12 CURVE SMOOTH"
);
},
{
closed = 1;
nodes = (
"157 62 OFFCURVE",
"115 117 OFFCURVE",
"115 198 CURVE SMOOTH",
"115 313 OFFCURVE",
"171 430 OFFCURVE",
"290 430 CURVE SMOOTH",
"359 430 OFFCURVE",
"413 398 OFFCURVE",
"413 301 CURVE SMOOTH",
"413 182 OFFCURVE",
"352 62 OFFCURVE",
"237 62 CURVE SMOOTH"
);
}
);
};
layerId = "678C5AFE-F8DA-443A-BB17-9B03ED7099AB";
paths = (
{
closed = 1;
nodes = (
"390 -12 OFFCURVE",
"502 131 OFFCURVE",
"502 298 CURVE SMOOTH",
"502 439 OFFCURVE",
"405 504 OFFCURVE",
"303 504 CURVE SMOOTH",
"140 504 OFFCURVE",
"27 372 OFFCURVE",
"27 199 CURVE SMOOTH",
"27 75 OFFCURVE",
"97 -12 OFFCURVE",
"230 -12 CURVE SMOOTH"
);
},
{
closed = 1;
nodes = (
"157 62 OFFCURVE",
"115 117 OFFCURVE",
"115 198 CURVE SMOOTH",
"115 313 OFFCURVE",
"171 430 OFFCURVE",
"290 430 CURVE SMOOTH",
"359 430 OFFCURVE",
"413 398 OFFCURVE",
"413 301 CURVE SMOOTH",
"413 182 OFFCURVE",
"352 62 OFFCURVE",
"237 62 CURVE SMOOTH"
);
}
);
width = 547;
},
{
anchors = (
{
name = bottom;
position = "{235, 0}";
},
{
name = center;
position = "{288, 248}";
},
{
name = ogonek;
position = "{467, 10}";
},
{
name = top;
position = "{317, 496}";
},
{
name = topright;
position = "{609, 496}";
}
);
background = {
paths = (
{
closed = 1;
nodes = (
"339 -13 OFFCURVE",
"503 33 OFFCURVE",
"533 249 CURVE SMOOTH",
"557 422 OFFCURVE",
"446 510 OFFCURVE",
"302 510 CURVE SMOOTH",
"166 510 OFFCURVE",
"31 433 OFFCURVE",
"7 242 CURVE SMOOTH",
"-12 87 OFFCURVE",
"85 -13 OFFCURVE",
"239 -13 CURVE SMOOTH"
);
},
{
closed = 1;
nodes = (
"158 105 OFFCURVE",
"153 188 OFFCURVE",
"163 249 CURVE SMOOTH",
"180 352 OFFCURVE",
"229 391 OFFCURVE",
"289 392 CURVE SMOOTH",
"355 393 OFFCURVE",
"393 356 OFFCURVE",
"378 249 CURVE SMOOTH",
"368 181 OFFCURVE",
"331 105 OFFCURVE",
"245 105 CURVE SMOOTH"
);
}
);
};
layerId = "30D4BC2E-225F-4273-AE59-0FC741A5E71E";
paths = (
{
closed = 1;
nodes = (
"421 -13 OFFCURVE",
"536 118 OFFCURVE",
"536 295 CURVE SMOOTH",
"536 437 OFFCURVE",
"433 510 OFFCURVE",
"302 510 CURVE SMOOTH",
"123 510 OFFCURVE",
"5 380 OFFCURVE",
"5 204 CURVE SMOOTH",
"5 71 OFFCURVE",
"98 -13 OFFCURVE",
"239 -13 CURVE SMOOTH"
);
},
{
closed = 1;
nodes = (
"177 105 OFFCURVE",
"159 155 OFFCURVE",
"159 206 CURVE SMOOTH",
"159 297 OFFCURVE",
"199 392 OFFCURVE",
"292 392 CURVE SMOOTH",
"346 392 OFFCURVE",
"381 365 OFFCURVE",
"381 292 CURVE SMOOTH",
"381 194 OFFCURVE",
"336 105 OFFCURVE",
"245 105 CURVE SMOOTH"
);
}
);
width = 576;
}
);
leftKerningGroup = c;
rightKerningGroup = b;
unicode = 006F;
},
{
color = 4;
glyphname = p;
lastChange = "2021-04-29 22:51:26 +0000";
layers = (
{
background = {
paths = (
{
closed = 1;
nodes = (
"60 -162 LINE",
"114 93 LINE",
"137 28 OFFCURVE",
"190 -12 OFFCURVE",
"269 -12 CURVE SMOOTH",
"432 -12 OFFCURVE",
"510 152 OFFCURVE",
"510 293 CURVE SMOOTH",
"510 409 OFFCURVE",
"453 504 OFFCURVE",
"331 504 CURVE SMOOTH",
"256 504 OFFCURVE",
"208 468 OFFCURVE",
"182 430 CURVE",
"177 496 LINE",
"114 496 LINE",
"-26 -162 LINE"
);
},
{
closed = 1;
nodes = (
"184 59 OFFCURVE",
"139 126 OFFCURVE",
"139 209 CURVE SMOOTH",
"139 316 OFFCURVE",
"203 432 OFFCURVE",
"307 432 CURVE SMOOTH",
"378 432 OFFCURVE",
"420 381 OFFCURVE",
"420 297 CURVE SMOOTH",
"420 184 OFFCURVE",
"363 59 OFFCURVE",
"260 59 CURVE SMOOTH"
);
}
);
};
layerId = "678C5AFE-F8DA-443A-BB17-9B03ED7099AB";
paths = (
{
closed = 1;
nodes = (
"60 -162 LINE",
"114 93 LINE",
"137 28 OFFCURVE",
"190 -12 OFFCURVE",
"269 -12 CURVE SMOOTH",
"432 -12 OFFCURVE",
"510 152 OFFCURVE",
"510 293 CURVE SMOOTH",
"510 409 OFFCURVE",
"453 504 OFFCURVE",
"331 504 CURVE SMOOTH",
"256 504 OFFCURVE",
"208 468 OFFCURVE",
"182 430 CURVE",
"177 496 LINE",
"114 496 LINE",
"-26 -162 LINE"
);
},
{
closed = 1;
nodes = (
"184 59 OFFCURVE",
"139 126 OFFCURVE",
"139 209 CURVE SMOOTH",
"139 316 OFFCURVE",
"203 432 OFFCURVE",
"307 432 CURVE SMOOTH",
"378 432 OFFCURVE",
"420 381 OFFCURVE",
"420 297 CURVE SMOOTH",
"420 184 OFFCURVE",
"363 59 OFFCURVE",
"260 59 CURVE SMOOTH"
);
}
);
width = 556;
},
{
background = {
paths = (
{
closed = 1;
nodes = (
"101 -161 LINE",
"150 70 LINE",
"182 13 OFFCURVE",
"233 -13 OFFCURVE",
"287 -13 CURVE SMOOTH",
"415 -13 OFFCURVE",
"522 79 OFFCURVE",
"548 254 CURVE SMOOTH",
"570 403 OFFCURVE",
"496 510 OFFCURVE",
"376 510 CURVE SMOOTH",
"321 510 OFFCURVE",
"260 486 OFFCURVE",
"225 428 CURVE",
"219 496 LINE",
"85 496 LINE",
"-55 -161 LINE"
);
},
{
closed = 1;
nodes = (
"203 105 OFFCURVE",
"158 158 OFFCURVE",
"179 256 CURVE SMOOTH",
"198 347 OFFCURVE",
"245 392 OFFCURVE",
"308 392 CURVE SMOOTH",
"369 392 OFFCURVE",
"404 341 OFFCURVE",
"392 247 CURVE SMOOTH",
"382 168 OFFCURVE",
"338 105 OFFCURVE",
"261 105 CURVE SMOOTH"
);
}
);
};
layerId = "30D4BC2E-225F-4273-AE59-0FC741A5E71E";
paths = (
{
closed = 1;
nodes = (
"101 -161 LINE",
"150 70 LINE",
"182 13 OFFCURVE",
"233 -13 OFFCURVE",
"287 -13 CURVE SMOOTH",
"450 -13 OFFCURVE",
"552 138 OFFCURVE",
"552 305 CURVE SMOOTH",
"552 427 OFFCURVE",
"482 510 OFFCURVE",
"376 510 CURVE SMOOTH",
"321 510 OFFCURVE",
"260 486 OFFCURVE",
"225 428 CURVE",
"219 496 LINE",
"85 496 LINE",
"-55 -161 LINE"
);
},
{
closed = 1;
nodes = (
"213 105 OFFCURVE",
"174 141 OFFCURVE",
"174 210 CURVE SMOOTH",
"174 297 OFFCURVE",
"220 392 OFFCURVE",
"308 392 CURVE SMOOTH",
"361 392 OFFCURVE",
"394 354 OFFCURVE",
"394 282 CURVE SMOOTH",
"394 190 OFFCURVE",
"350 105 OFFCURVE",
"261 105 CURVE SMOOTH"
);
}
);
width = 590;
}
);
rightKerningGroup = b;
rightMetricsKey = o;
unicode = 0070;
},
{
color = 4;
glyphname = q;
lastChange = "2021-04-29 22:51:26 +0000";
layers = (
{
background = {
paths = (
{
closed = 1;
nodes = (
"275 -12 OFFCURVE",
"329 20 OFFCURVE",
"352 59 CURVE",
"336 -19 OFFCURVE",
"328 -44 OFFCURVE",
"328 -72 CURVE SMOOTH",
"328 -152 OFFCURVE",
"390 -174 OFFCURVE",
"447 -174 CURVE SMOOTH",
"484 -174 OFFCURVE",
"520 -164 OFFCURVE",
"534 -154 CURVE",
"551 -76 LINE",
"516 -87 OFFCURVE",
"489 -92 OFFCURVE",
"469 -92 CURVE SMOOTH",
"433 -92 OFFCURVE",
"418 -75 OFFCURVE",
"418 -50 CURVE SMOOTH",
"418 -32 OFFCURVE",
"425 -2 OFFCURVE",
"432 30 CURVE SMOOTH",
"465 185 OFFCURVE",
"497 341 OFFCURVE",
"530 496 CURVE",
"468 496 LINE",
"428 418 LINE",
"401 469 OFFCURVE",
"350 505 OFFCURVE",
"271 505 CURVE SMOOTH",
"122 505 OFFCURVE",
"28 361 OFFCURVE",
"28 198 CURVE SMOOTH",
"28 67 OFFCURVE",
"99 -12 OFFCURVE",
"207 -12 CURVE SMOOTH"
);
},
{
closed = 1;
nodes = (
"156 60 OFFCURVE",
"118 113 OFFCURVE",
"118 198 CURVE SMOOTH",
"118 311 OFFCURVE",
"177 433 OFFCURVE",
"276 433 CURVE SMOOTH",
"349 433 OFFCURVE",
"396 377 OFFCURVE",
"396 281 CURVE SMOOTH",
"396 169 OFFCURVE",
"329 60 OFFCURVE",
"232 60 CURVE SMOOTH"
);
}
);
};
layerId = "678C5AFE-F8DA-443A-BB17-9B03ED7099AB";
paths = (
{
closed = 1;
nodes = (
"275 -12 OFFCURVE",
"329 20 OFFCURVE",
"352 59 CURVE",
"336 -19 OFFCURVE",
"328 -44 OFFCURVE",
"328 -72 CURVE SMOOTH",
"328 -152 OFFCURVE",
"390 -174 OFFCURVE",
"447 -174 CURVE SMOOTH",
"484 -174 OFFCURVE",
"520 -164 OFFCURVE",
"534 -154 CURVE",
"551 -76 LINE",
"516 -87 OFFCURVE",
"489 -92 OFFCURVE",
"469 -92 CURVE SMOOTH",
"433 -92 OFFCURVE",
"418 -75 OFFCURVE",
"418 -50 CURVE SMOOTH",
"418 -32 OFFCURVE",
"425 -2 OFFCURVE",
"432 30 CURVE SMOOTH",
"465 185 OFFCURVE",
"497 341 OFFCURVE",
"530 496 CURVE",
"468 496 LINE",
"428 418 LINE",
"401 469 OFFCURVE",
"350 505 OFFCURVE",
"271 505 CURVE SMOOTH",
"122 505 OFFCURVE",
"28 361 OFFCURVE",
"28 198 CURVE SMOOTH",
"28 67 OFFCURVE",
"99 -12 OFFCURVE",
"207 -12 CURVE SMOOTH"
);
},
{
closed = 1;
nodes = (
"156 60 OFFCURVE",
"118 113 OFFCURVE",
"118 198 CURVE SMOOTH",
"118 311 OFFCURVE",
"177 433 OFFCURVE",
"276 433 CURVE SMOOTH",
"349 433 OFFCURVE",
"396 377 OFFCURVE",
"396 281 CURVE SMOOTH",
"396 169 OFFCURVE",
"329 60 OFFCURVE",
"232 60 CURVE SMOOTH"
);
}
);
width = 555;
},
{
background = {
paths = (
{
closed = 1;
nodes = (
"608 -21 LINE",
"454 -55 OFFCURVE",
"466 -18 OFFCURVE",
"482 58 CURVE SMOOTH",
"575 496 LINE",
"440 496 LINE",
"404 427 LINE",
"373 487 OFFCURVE",
"317 510 OFFCURVE",
"263 510 CURVE SMOOTH",
"123 510 OFFCURVE",
"20 391 OFFCURVE",
"5 228 CURVE SMOOTH",
"-8 86 OFFCURVE",
"65 -12 OFFCURVE",
"183 -12 CURVE SMOOTH",
"238 -12 OFFCURVE",
"288 10 OFFCURVE",
"326 56 CURVE",
"326 56 OFFCURVE",
"315 6 OFFCURVE",
"312 -11 CURVE SMOOTH",
"280 -193 OFFCURVE",
"480 -191 OFFCURVE",
"580 -151 CURVE"
);
},
{
closed = 1;
nodes = (
"197 106 OFFCURVE",
"160 139 OFFCURVE",
"162 224 CURVE",
"163 338 OFFCURVE",
"219 393 OFFCURVE",
"291 393 CURVE SMOOTH",
"344 393 OFFCURVE",
"385 355 OFFCURVE",
"380 279 CURVE SMOOTH",
"373 161 OFFCURVE",
"310 106 OFFCURVE",
"250 106 CURVE SMOOTH"
);
}
);
};
layerId = "30D4BC2E-225F-4273-AE59-0FC741A5E71E";
paths = (
{
closed = 1;
nodes = (
"238 -12 OFFCURVE",
"288 10 OFFCURVE",
"326 56 CURVE",
"315 3 OFFCURVE",
"308 -15 OFFCURVE",
"308 -48 CURVE SMOOTH",
"308 -142 OFFCURVE",
"384 -173 OFFCURVE",
"462 -173 CURVE SMOOTH",
"505 -173 OFFCURVE",
"548 -164 OFFCURVE",
"580 -151 CURVE",
"608 -21 LINE",
"569 -30 OFFCURVE",
"540 -34 OFFCURVE",
"520 -34 CURVE SMOOTH",
"484 -34 OFFCURVE",
"473 -21 OFFCURVE",
"473 2 CURVE SMOOTH",
"473 17 OFFCURVE",
"477 36 OFFCURVE",
"482 58 CURVE SMOOTH",
"513 204 OFFCURVE",
"544 350 OFFCURVE",
"575 496 CURVE",
"440 496 LINE",
"404 427 LINE",
"373 487 OFFCURVE",
"317 510 OFFCURVE",
"263 510 CURVE SMOOTH",
"107 510 OFFCURVE",
"4 361 OFFCURVE",
"4 196 CURVE SMOOTH",
"4 71 OFFCURVE",
"74 -12 OFFCURVE",
"183 -12 CURVE SMOOTH"
);
},
{
closed = 1;
nodes = (
"197 106 OFFCURVE",
"160 139 OFFCURVE",
"162 224 CURVE SMOOTH",
"163 338 OFFCURVE",
"219 393 OFFCURVE",
"291 393 CURVE SMOOTH",
"344 393 OFFCURVE",
"385 355 OFFCURVE",
"380 279 CURVE SMOOTH",
"373 161 OFFCURVE",
"310 106 OFFCURVE",
"250 106 CURVE SMOOTH"
);
}
);
width = 601;
}
);
leftKerningGroup = c;
leftMetricsKey = o;
rightKerningGroup = q;
unicode = 0071;
},
{
color = 4;
glyphname = r;
lastChange = "2021-04-29 22:51:26 +0000";
layers = (
{
anchors = (
{
name = bottom;
position = "{124, 0}";
},
{
name = top;
position = "{240, 496}";
}
);
background = {
anchors = (
{
name = bottom;
position = "{124, 0}";
},
{
name = top;
position = "{240, 496}";
}
);
paths = (
{
closed = 1;
nodes = (
"94 0 LINE",
"137 205 LINE SMOOTH",
"161 317 OFFCURVE",
"211 396 OFFCURVE",
"312 412 CURVE SMOOTH",
"328 415 OFFCURVE",
"345 416 OFFCURVE",
"364 415 CURVE",
"383 504 LINE",
"372 504 LINE SMOOTH",
"273 504 OFFCURVE",
"225 462 OFFCURVE",
"184 403 CURVE",
"176 496 LINE",
"113 496 LINE",
"8 0 LINE"
);
}
);
};
layerId = "678C5AFE-F8DA-443A-BB17-9B03ED7099AB";
paths = (
{
closed = 1;
nodes = (
"94 0 LINE",
"137 205 LINE SMOOTH",
"161 317 OFFCURVE",
"211 396 OFFCURVE",
"312 412 CURVE SMOOTH",
"328 415 OFFCURVE",
"345 416 OFFCURVE",
"364 415 CURVE",
"383 504 LINE",
"372 504 LINE SMOOTH",
"273 504 OFFCURVE",
"225 462 OFFCURVE",
"184 403 CURVE",
"176 496 LINE",
"113 496 LINE",
"8 0 LINE"
);
}
);
width = 353;
},
{
anchors = (
{
name = bottom;
position = "{143, 0}";
},
{
name = top;
position = "{249, 496}";
}
);
background = {
paths = (
{
closed = 1;
nodes = (
"136 0 LINE",
"185 231 LINE SMOOTH",
"202 313 OFFCURVE",
"238 361 OFFCURVE",
"325 361 CURVE SMOOTH",
"339 361 OFFCURVE",
"354 360 OFFCURVE",
"371 358 CURVE",
"403 510 LINE",
"396 510 OFFCURVE",
"380 511 OFFCURVE",
"372 510 CURVE",
"290 509 OFFCURVE",
"250 470 OFFCURVE",
"215 409 CURVE",
"208 496 LINE",
"85 496 LINE",
"-20 0 LINE"
);
}
);
};
layerId = "30D4BC2E-225F-4273-AE59-0FC741A5E71E";
paths = (
{
closed = 1;
nodes = (
"136 0 LINE",
"185 231 LINE SMOOTH",
"202 313 OFFCURVE",
"238 361 OFFCURVE",
"325 361 CURVE SMOOTH",
"339 361 OFFCURVE",
"354 360 OFFCURVE",
"371 358 CURVE",
"403 510 LINE",
"377 510 LINE SMOOTH",
"290 509 OFFCURVE",
"250 470 OFFCURVE",
"215 409 CURVE",
"208 496 LINE",
"85 496 LINE",
"-20 0 LINE"
);
}
);
width = 391;
}
);
leftMetricsKey = n;
unicode = 0072;
},
{
color = 4;
glyphname = s;
lastChange = "2021-04-29 22:51:26 +0000";
layers = (
{
anchors = (
{
name = bottom;
position = "{207, 0}";
},
{
name = top;
position = "{260, 496}";
}
);
background = {
anchors = (
{
name = bottom;
position = "{207, 0}";
},
{
name = top;
position = "{260, 496}";
}
);
paths = (
{
closed = 1;
nodes = (
"324 -12 OFFCURVE",
"413 41 OFFCURVE",
"413 143 CURVE SMOOTH",
"413 321 OFFCURVE",
"134 261 OFFCURVE",
"134 370 CURVE SMOOTH",
"134 414 OFFCURVE",
"182 435 OFFCURVE",
"233 435 CURVE SMOOTH",
"284 435 OFFCURVE",
"338 414 OFFCURVE",
"351 374 CURVE",
"431 402 LINE",
"406 470 OFFCURVE",
"322 504 OFFCURVE",
"240 504 CURVE SMOOTH",
"144 504 OFFCURVE",
"49 458 OFFCURVE",
"49 365 CURVE SMOOTH",
"49 185 OFFCURVE",
"325 249 OFFCURVE",
"325 137 CURVE SMOOTH",
"325 85 OFFCURVE",
"271 56 OFFCURVE",
"216 56 CURVE SMOOTH",
"162 56 OFFCURVE",
"107 83 OFFCURVE",
"96 142 CURVE",
"10 113 LINE",
"44 24 OFFCURVE",
"113 -12 OFFCURVE",
"213 -12 CURVE SMOOTH"
);
}
);
};
layerId = "678C5AFE-F8DA-443A-BB17-9B03ED7099AB";
paths = (
{
closed = 1;
nodes = (
"324 -12 OFFCURVE",
"413 41 OFFCURVE",
"413 143 CURVE SMOOTH",
"413 321 OFFCURVE",
"134 261 OFFCURVE",
"134 370 CURVE SMOOTH",
"134 414 OFFCURVE",
"182 435 OFFCURVE",
"233 435 CURVE SMOOTH",
"284 435 OFFCURVE",
"338 414 OFFCURVE",
"351 374 CURVE",
"431 402 LINE",
"406 470 OFFCURVE",
"322 504 OFFCURVE",
"240 504 CURVE SMOOTH",
"144 504 OFFCURVE",
"49 458 OFFCURVE",
"49 365 CURVE SMOOTH",
"49 185 OFFCURVE",
"325 249 OFFCURVE",
"325 137 CURVE SMOOTH",
"325 85 OFFCURVE",
"271 56 OFFCURVE",
"216 56 CURVE SMOOTH",
"162 56 OFFCURVE",
"107 83 OFFCURVE",
"96 142 CURVE",
"10 113 LINE",
"44 24 OFFCURVE",
"113 -12 OFFCURVE",
"213 -12 CURVE SMOOTH"
);
}
);
width = 479;
},
{
anchors = (
{
name = bottom;
position = "{215, 0}";
},
{
name = top;
position = "{274, 496}";
}
);
background = {
paths = (
{
closed = 1;
nodes = (
"367 -13 OFFCURVE",
"454 53 OFFCURVE",
"454 156 CURVE SMOOTH",
"454 321 OFFCURVE",
"174 284 OFFCURVE",
"174 362 CURVE SMOOTH",
"174 379 OFFCURVE",
"194 399 OFFCURVE",
"241 399 CURVE SMOOTH",
"288 399 OFFCURVE",
"325 390 OFFCURVE",
"339 355 CURVE",
"471 400 LINE",
"424 484 OFFCURVE",
"339 510 OFFCURVE",
"243 510 CURVE SMOOTH",
"122 510 OFFCURVE",
"30 444 OFFCURVE",
"30 357 CURVE SMOOTH",
"30 180 OFFCURVE",
"296 211 OFFCURVE",
"306 143 CURVE SMOOTH",
"314 86 OFFCURVE",
"140 70 OFFCURVE",
"120 160 CURVE",
"-10 116 LINE",
"39 5 OFFCURVE",
"153 -13 OFFCURVE",
"229 -13 CURVE SMOOTH"
);
}
);
};
guideLines = (
{
angle = 78;
position = "{165, -66}";
}
);
layerId = "30D4BC2E-225F-4273-AE59-0FC741A5E71E";
paths = (
{
closed = 1;
nodes = (
"367 -13 OFFCURVE",
"454 53 OFFCURVE",
"454 156 CURVE SMOOTH",
"454 321 OFFCURVE",
"174 284 OFFCURVE",
"174 362 CURVE SMOOTH",
"174 379 OFFCURVE",
"194 399 OFFCURVE",
"241 399 CURVE SMOOTH",
"288 399 OFFCURVE",
"325 390 OFFCURVE",
"339 355 CURVE",
"471 400 LINE",
"424 483 OFFCURVE",
"339 510 OFFCURVE",
"243 510 CURVE SMOOTH",
"122 510 OFFCURVE",
"30 444 OFFCURVE",
"30 357 CURVE SMOOTH",
"30 177 OFFCURVE",
"306 212 OFFCURVE",
"306 139 CURVE SMOOTH",
"306 113 OFFCURVE",
"267 96 OFFCURVE",
"224 96 CURVE SMOOTH",
"179 96 OFFCURVE",
"130 115 OFFCURVE",
"120 160 CURVE",
"-10 116 LINE",
"39 5 OFFCURVE",
"153 -13 OFFCURVE",
"229 -13 CURVE SMOOTH"
);
}
);
width = 515;
}
);
leftKerningGroup = s_2;
rightKerningGroup = s;
unicode = 0073;
},
{
color = 4;
glyphname = t;
lastChange = "2021-04-29 22:51:26 +0000";
layers = (
{
anchors = (
{
name = bottom;
position = "{109, 0}";
},
{
name = center;
position = "{162, 248}";
},
{
name = top;
position = "{215, 496}";
},
{
name = topright;
position = "{352, 702}";
}
);
background = {
anchors = (
{
name = bottom;
position = "{109, 0}";
},
{
name = center;
position = "{162, 248}";
},
{
name = top;
position = "{215, 496}";
},
{
name = topright;
position = "{352, 702}";
}
);
paths = (
{
closed = 1;
nodes = (
"222 0 LINE",
"238 75 LINE",
"194 75 LINE SMOOTH",
"161 75 OFFCURVE",
"151 83 OFFCURVE",
"151 104 CURVE SMOOTH",
"151 115 OFFCURVE",
"155 135 OFFCURVE",
"160 159 CURVE SMOOTH",
"218 428 LINE",
"313 428 LINE",
"327 496 LINE",
"232 496 LINE",
"259 620 LINE",
"173 620 LINE",
"146 496 LINE",
"63 496 LINE",
"49 428 LINE",
"132 428 LINE",
"69 135 LINE SMOOTH",
"62 103 OFFCURVE",
"59 83 OFFCURVE",
"59 67 CURVE SMOOTH",
"59 22 OFFCURVE",
"83 0 OFFCURVE",
"160 0 CURVE SMOOTH"
);
}
);
};
layerId = "678C5AFE-F8DA-443A-BB17-9B03ED7099AB";
paths = (
{
closed = 1;
nodes = (
"222 0 LINE",
"238 75 LINE",
"194 75 LINE SMOOTH",
"161 75 OFFCURVE",
"151 83 OFFCURVE",
"151 104 CURVE SMOOTH",
"151 115 OFFCURVE",
"155 135 OFFCURVE",
"160 159 CURVE SMOOTH",
"218 428 LINE",
"313 428 LINE",
"327 496 LINE",
"232 496 LINE",
"259 620 LINE",
"173 620 LINE",
"146 496 LINE",
"63 496 LINE",
"49 428 LINE",
"132 428 LINE",
"69 135 LINE SMOOTH",
"62 103 OFFCURVE",
"59 83 OFFCURVE",
"59 67 CURVE SMOOTH",
"59 22 OFFCURVE",
"83 0 OFFCURVE",
"160 0 CURVE SMOOTH"
);
}
);
width = 324;
},
{
anchors = (
{
name = bottom;
position = "{143, 0}";
},
{
name = center;
position = "{196, 248}";
},
{
name = top;
position = "{249, 496}";
},
{
name = topright;
position = "{401, 707}";
}
);
background = {
paths = (
{
closed = 1;
nodes = (
"289 0 LINE",
"315 124 LINE",
"272 124 LINE SMOOTH",
"207 124 OFFCURVE",
"213 153 OFFCURVE",
"224 205 CURVE SMOOTH",
"261 380 LINE",
"370 380 LINE",
"394 496 LINE",
"286 496 LINE",
"312 620 LINE",
"157 620 LINE",
"131 496 LINE",
"53 496 LINE",
"28 380 LINE",
"106 380 LINE",
"55 140 LINE SMOOTH",
"32 34 OFFCURVE",
"91 0 OFFCURVE",
"193 0 CURVE SMOOTH"
);
}
);
};
layerId = "30D4BC2E-225F-4273-AE59-0FC741A5E71E";
paths = (
{
closed = 1;
nodes = (
"289 0 LINE",
"315 124 LINE",
"272 124 LINE SMOOTH",
"229 124 OFFCURVE",
"217 137 OFFCURVE",
"217 160 CURVE SMOOTH",
"217 172 OFFCURVE",
"220 187 OFFCURVE",
"224 205 CURVE SMOOTH",
"261 380 LINE",
"370 380 LINE",
"394 496 LINE",
"286 496 LINE",
"312 620 LINE",
"157 620 LINE",
"131 496 LINE",
"53 496 LINE",
"28 380 LINE",
"106 380 LINE",
"57 150 LINE SMOOTH",
"52 126 OFFCURVE",
"50 112 OFFCURVE",
"50 98 CURVE SMOOTH",
"50 25 OFFCURVE",
"106 0 OFFCURVE",
"193 0 CURVE SMOOTH"
);
}
);
width = 391;
}
);
leftKerningGroup = t;
rightKerningGroup = t1;
unicode = 0074;
},
{
color = 4;
glyphname = u;
lastChange = "2021-04-29 22:51:26 +0000";
layers = (
{
anchors = (
{
name = bottom;
position = "{217, 0}";
},
{
name = ogonek;
position = "{435, 10}";
},
{
name = top;
position = "{308, 496}";
},
{
name = topright;
position = "{573, 496}";
}
);
background = {
anchors = (
{
name = bottom;
position = "{217, 0}";
},
{
name = ogonek;
position = "{435, 10}";
},
{
name = top;
position = "{308, 496}";
},
{
name = topright;
position = "{573, 496}";
}
);
paths = (
{
closed = 1;
nodes = (
"249 -11 OFFCURVE",
"294 14 OFFCURVE",
"337 70 CURVE",
"343 0 LINE",
"408 0 LINE",
"513 496 LINE",
"428 496 LINE",
"372 236 LINE SMOOTH",
"345 112 OFFCURVE",
"281 62 OFFCURVE",
"203 62 CURVE SMOOTH",
"144 62 OFFCURVE",
"126 93 OFFCURVE",
"126 137 CURVE SMOOTH",
"126 157 OFFCURVE",
"130 181 OFFCURVE",
"135 205 CURVE SMOOTH",
"197 496 LINE",
"111 496 LINE",
"49 203 LINE SMOOTH",
"43 177 OFFCURVE",
"40 152 OFFCURVE",
"40 128 CURVE SMOOTH",
"40 49 OFFCURVE",
"75 -11 OFFCURVE",
"173 -11 CURVE SMOOTH"
);
}
);
};
layerId = "678C5AFE-F8DA-443A-BB17-9B03ED7099AB";
paths = (
{
closed = 1;
nodes = (
"249 -11 OFFCURVE",
"294 14 OFFCURVE",
"337 70 CURVE",
"343 0 LINE",
"408 0 LINE",
"513 496 LINE",
"428 496 LINE",
"372 236 LINE SMOOTH",
"345 112 OFFCURVE",
"281 62 OFFCURVE",
"203 62 CURVE SMOOTH",
"144 62 OFFCURVE",
"126 93 OFFCURVE",
"126 137 CURVE SMOOTH",
"126 157 OFFCURVE",
"130 181 OFFCURVE",
"135 205 CURVE SMOOTH",
"197 496 LINE",
"111 496 LINE",
"49 203 LINE SMOOTH",
"43 177 OFFCURVE",
"40 152 OFFCURVE",
"40 128 CURVE SMOOTH",
"40 49 OFFCURVE",
"75 -11 OFFCURVE",
"173 -11 CURVE SMOOTH"
);
}
);
width = 540;
},
{
anchors = (
{
name = bottom;
position = "{236, 0}";
},
{
name = ogonek;
position = "{469, 10}";
},
{
name = top;
position = "{322, 496}";
},
{
name = topright;
position = "{611, 496}";
}
);
background = {
paths = (
{
closed = 1;
nodes = (
"234 -12 OFFCURVE",
"288 19 OFFCURVE",
"316 64 CURVE",
"321 0 LINE",
"456 0 LINE",
"561 496 LINE",
"406 496 LINE",
"350 234 LINE SMOOTH",
"330 143 OFFCURVE",
"283 106 OFFCURVE",
"231 106 CURVE SMOOTH",
"162 106 OFFCURVE",
"179 199 OFFCURVE",
"186 235 CURVE SMOOTH",
"241 496 LINE",
"86 496 LINE",
"27 220 LINE SMOOTH",
"4 114 OFFCURVE",
"9 -12 OFFCURVE",
"159 -12 CURVE SMOOTH"
);
}
);
};
layerId = "30D4BC2E-225F-4273-AE59-0FC741A5E71E";
paths = (
{
closed = 1;
nodes = (
"234 -12 OFFCURVE",
"288 19 OFFCURVE",
"316 64 CURVE",
"321 0 LINE",
"456 0 LINE",
"561 496 LINE",
"406 496 LINE",
"350 234 LINE SMOOTH",
"331 143 OFFCURVE",
"283 106 OFFCURVE",
"231 106 CURVE SMOOTH",
"189 106 OFFCURVE",
"179 140 OFFCURVE",
"179 175 CURVE SMOOTH",
"179 198 OFFCURVE",
"183 221 OFFCURVE",
"186 235 CURVE SMOOTH",
"241 496 LINE",
"86 496 LINE",
"27 220 LINE SMOOTH",
"21 192 OFFCURVE",
"17 163 OFFCURVE",
"17 134 CURVE SMOOTH",
"17 56 OFFCURVE",
"49 -12 OFFCURVE",
"159 -12 CURVE SMOOTH"
);
}
);
width = 578;
}
);
leftKerningGroup = u;
rightKerningGroup = u1;
unicode = 0075;
},
{
color = (255,153,254,255);
glyphname = v;
lastChange = "2021-04-29 22:51:26 +0000";
layers = (
{
background = {
paths = (
{
closed = 1;
nodes = (
"204 0 LINE",
"487 496 LINE",
"389 496 LINE",
"177 110 LINE",
"130 496 LINE",
"43 496 LINE",
"115 0 LINE"
);
}
);
};
layerId = "678C5AFE-F8DA-443A-BB17-9B03ED7099AB";
paths = (
{
closed = 1;
nodes = (
"204 0 LINE",
"487 496 LINE",
"389 496 LINE",
"177 110 LINE",
"130 496 LINE",
"43 496 LINE",
"115 0 LINE"
);
}
);
width = 444;
},
{
background = {
paths = (
{
closed = 1;
nodes = (
"285 0 LINE",
"568 496 LINE",
"398 496 LINE",
"219 157 LINE",
"186 496 LINE",
"35 496 LINE",
"107 0 LINE"
);
}
);
};
layerId = "30D4BC2E-225F-4273-AE59-0FC741A5E71E";
paths = (
{
closed = 1;
nodes = (
"285 0 LINE",
"568 496 LINE",
"398 496 LINE",
"219 157 LINE",
"186 496 LINE",
"35 496 LINE",
"107 0 LINE"
);
}
);
width = 533;
}
);
leftKerningGroup = y;
rightKerningGroup = y_2;
unicode = 0076;
},
{
color = (255,153,254,255);
glyphname = w;
lastChange = "2021-04-29 22:51:26 +0000";
layers = (
{
background = {
paths = (
{
closed = 1;
nodes = (
"154 0 LINE",
"347 400 LINE",
"370 0 LINE",
"452 0 LINE",
"701 496 LINE",
"605 496 LINE",
"429 130 LINE",
"409 496 LINE",
"319 496 LINE",
"147 138 LINE",
"130 496 LINE",
"43 496 LINE",
"80 0 LINE"
);
}
);
};
layerId = "678C5AFE-F8DA-443A-BB17-9B03ED7099AB";
paths = (
{
closed = 1;
nodes = (
"154 0 LINE",
"347 400 LINE",
"370 0 LINE",
"452 0 LINE",
"701 496 LINE",
"605 496 LINE",
"429 130 LINE",
"409 496 LINE",
"319 496 LINE",
"147 138 LINE",
"130 496 LINE",
"43 496 LINE",
"80 0 LINE"
);
}
);
width = 658;
},
{
background = {
paths = (
{
closed = 1;
nodes = (
"214 0 LINE",
"362 356 LINE",
"359 0 LINE",
"533 0 LINE",
"762 496 LINE",
"604 496 LINE",
"455 159 LINE",
"463 496 LINE",
"313 496 LINE",
"185 175 LINE",
"181 496 LINE",
"35 496 LINE",
"54 0 LINE"
);
}
);
};
layerId = "30D4BC2E-225F-4273-AE59-0FC741A5E71E";
paths = (
{
closed = 1;
nodes = (
"214 0 LINE",
"362 356 LINE",
"359 0 LINE",
"533 0 LINE",
"762 496 LINE",
"604 496 LINE",
"455 159 LINE",
"463 496 LINE",
"313 496 LINE",
"185 175 LINE",
"181 496 LINE",
"35 496 LINE",
"54 0 LINE"
);
}
);
width = 727;
}
);
leftMetricsKey = v;
rightMetricsKey = v;
unicode = 0077;
},
{
color = (255,153,254,255);
glyphname = x;
lastChange = "2021-04-29 22:51:26 +0000";
layers = (
{
background = {
paths = (
{
closed = 1;
nodes = (
"46 0 LINE",
"217 185 LINE",
"309 0 LINE",
"399 0 LINE",
"275 248 LINE",
"505 496 LINE",
"396 496 LINE",
"237 325 LINE",
"151 496 LINE",
"61 496 LINE",
"179 262 LINE",
"-63 0 LINE"
);
}
);
};
layerId = "678C5AFE-F8DA-443A-BB17-9B03ED7099AB";
paths = (
{
closed = 1;
nodes = (
"46 0 LINE",
"217 185 LINE",
"309 0 LINE",
"399 0 LINE",
"275 248 LINE",
"505 496 LINE",
"396 496 LINE",
"237 325 LINE",
"151 496 LINE",
"61 496 LINE",
"179 262 LINE",
"-63 0 LINE"
);
}
);
width = 462;
},
{
background = {
paths = (
{
closed = 1;
nodes = (
"113 0 LINE",
"242 141 LINE",
"313 0 LINE",
"464 0 LINE",
"340 246 LINE",
"571 496 LINE",
"387 496 LINE",
"276 376 LINE",
"216 496 LINE",
"66 496 LINE",
"179 270 LINE",
"-71 0 LINE"
);
}
);
};
layerId = "30D4BC2E-225F-4273-AE59-0FC741A5E71E";
paths = (
{
closed = 1;
nodes = (
"113 0 LINE",
"242 141 LINE",
"313 0 LINE",
"464 0 LINE",
"340 246 LINE",
"571 496 LINE",
"387 496 LINE",
"276 376 LINE",
"216 496 LINE",
"66 496 LINE",
"179 270 LINE",
"-71 0 LINE"
);
}
);
width = 536;
}
);
leftMetricsKey = v;
rightMetricsKey = v;
unicode = 0078;
},
{
color = (255,153,254,255);
glyphname = y;
lastChange = "2021-04-29 22:51:26 +0000";
layers = (
{
anchors = (
{
name = bottom;
position = "{165, 0}";
},
{
name = top;
position = "{266, 496}";
}
);
background = {
anchors = (
{
name = bottom;
position = "{165, 0}";
},
{
name = top;
position = "{266, 496}";
}
);
paths = (
{
closed = 1;
nodes = (
"-19 -161 LINE SMOOTH",
"106 -161 OFFCURVE",
"123 -143 OFFCURVE",
"191 -21 CURVE SMOOTH",
"478 496 LINE",
"378 496 LINE",
"172 110 LINE",
"132 496 LINE",
"43 496 LINE",
"116 0 LINE",
"80 -74 OFFCURVE",
"70 -86 OFFCURVE",
"-12 -86 CURVE SMOOTH",
"-46 -86 LINE",
"-62 -161 LINE"
);
}
);
};
layerId = "678C5AFE-F8DA-443A-BB17-9B03ED7099AB";
paths = (
{
closed = 1;
nodes = (
"-19 -161 LINE SMOOTH",
"106 -161 OFFCURVE",
"123 -143 OFFCURVE",
"191 -21 CURVE SMOOTH",
"478 496 LINE",
"378 496 LINE",
"172 110 LINE",
"132 496 LINE",
"43 496 LINE",
"116 0 LINE",
"80 -74 OFFCURVE",
"70 -86 OFFCURVE",
"-12 -86 CURVE SMOOTH",
"-46 -86 LINE",
"-62 -161 LINE"
);
}
);
width = 435;
},
{
anchors = (
{
name = bottom;
position = "{211, 0}";
},
{
name = top;
position = "{302, 496}";
}
);
background = {
paths = (
{
closed = 1;
nodes = (
"5 -161 LINE SMOOTH",
"159 -161 OFFCURVE",
"176 -149 OFFCURVE",
"266 -1 CURVE",
"562 496 LINE",
"386 496 LINE",
"220 180 LINE",
"190 496 LINE",
"35 496 LINE",
"121 2 LINE",
"106 -37 OFFCURVE",
"94 -51 OFFCURVE",
"10 -51 CURVE SMOOTH",
"-21 -51 LINE",
"-44 -161 LINE"
);
}
);
};
layerId = "30D4BC2E-225F-4273-AE59-0FC741A5E71E";
paths = (
{
closed = 1;
nodes = (
"5 -161 LINE SMOOTH",
"159 -161 OFFCURVE",
"177 -150 OFFCURVE",
"266 0 CURVE SMOOTH",
"562 496 LINE",
"386 496 LINE",
"220 180 LINE",
"190 496 LINE",
"35 496 LINE",
"121 0 LINE",
"103 -39 OFFCURVE",
"94 -51 OFFCURVE",
"10 -51 CURVE SMOOTH",
"-21 -51 LINE",
"-44 -161 LINE"
);
}
);
width = 527;
}
);
leftKerningGroup = y;
leftMetricsKey = v;
rightKerningGroup = y_2;
rightMetricsKey = v;
unicode = 0079;
},
{
color = 4;
glyphname = z;
lastChange = "2021-04-29 22:51:26 +0000";
layers = (
{
anchors = (
{
name = bottom;
position = "{181, 0}";
},
{
name = center;
position = "{234, 248}";
},
{
name = top;
position = "{289, 496}";
}
);
background = {
anchors = (
{
name = bottom;
position = "{181, 0}";
},
{
name = center;
position = "{234, 248}";
},
{
name = top;
position = "{289, 496}";
}
);
paths = (
{
closed = 1;
nodes = (
"375 0 LINE",
"390 73 LINE",
"101 73 LINE",
"460 424 LINE",
"476 497 LINE",
"99 497 LINE",
"83 424 LINE",
"355 424 LINE",
"-6 73 LINE",
"-21 0 LINE"
);
}
);
};
layerId = "678C5AFE-F8DA-443A-BB17-9B03ED7099AB";
paths = (
{
closed = 1;
nodes = (
"375 0 LINE",
"390 73 LINE",
"101 73 LINE",
"460 424 LINE",
"476 497 LINE",
"99 497 LINE",
"83 424 LINE",
"355 424 LINE",
"-6 73 LINE",
"-21 0 LINE"
);
}
);
width = 467;
},
{
anchors = (
{
name = bottom;
position = "{211, 0}";
},
{
name = center;
position = "{264, 248}";
},
{
name = top;
position = "{317, 496}";
}
);
background = {
paths = (
{
closed = 1;
nodes = (
"437 0 LINE",
"462 121 LINE",
"203 121 LINE",
"513 375 LINE",
"539 496 LINE",
"91 496 LINE",
"65 375 LINE",
"296 375 LINE",
"-14 121 LINE",
"-40 0 LINE"
);
}
);
};
layerId = "30D4BC2E-225F-4273-AE59-0FC741A5E71E";
paths = (
{
closed = 1;
nodes = (
"437 0 LINE",
"462 121 LINE",
"203 121 LINE",
"513 375 LINE",
"539 496 LINE",
"91 496 LINE",
"65 375 LINE",
"296 375 LINE",
"-14 121 LINE",
"-40 0 LINE"
);
}
);
width = 528;
}
);
leftKerningGroup = z;
rightKerningGroup = z_2;
unicode = 007A;
},
{
color = 4;
glyphname = circumflex;
lastChange = "2021-04-29 22:51:26 +0000";
layers = (
{
background = {
paths = (
{
closed = 1;
nodes = (
"209.504 575 LINE",
"290.043 636 LINE",
"344.504 575 LINE",
"436.504 575 LINE",
"346.167 676 LINE SMOOTH",
"334.758 689 OFFCURVE",
"317.876 695 OFFCURVE",
"300.876 695 CURVE SMOOTH",
"282.876 695 OFFCURVE",
"263.758 689 OFFCURVE",
"247.167 676 CURVE SMOOTH",
"113.504 575 LINE"
);
}
);
};
layerId = "678C5AFE-F8DA-443A-BB17-9B03ED7099AB";
paths = (
{
closed = 1;
nodes = (
"209.504 575 LINE",
"290.043 636 LINE",
"344.504 575 LINE",
"436.504 575 LINE",
"346.167 676 LINE SMOOTH",
"334.758 689 OFFCURVE",
"317.876 695 OFFCURVE",
"300.876 695 CURVE SMOOTH",
"282.876 695 OFFCURVE",
"263.758 689 OFFCURVE",
"247.167 676 CURVE SMOOTH",
"113.504 575 LINE"
);
}
);
width = 429;
},
{
background = {
paths = (
{
closed = 1;
nodes = (
"236 574 LINE",
"320 635 LINE",
"379 574 LINE",
"495 574 LINE",
"377 701 LINE SMOOTH",
"350 731 OFFCURVE",
"307 733 OFFCURVE",
"278 711 CURVE SMOOTH",
"89 574 LINE"
);
}
);
};
layerId = "30D4BC2E-225F-4273-AE59-0FC741A5E71E";
paths = (
{
closed = 1;
nodes = (
"236 574 LINE",
"320 635 LINE",
"379 574 LINE",
"495 574 LINE",
"377 701 LINE SMOOTH",
"362 718 OFFCURVE",
"342 726 OFFCURVE",
"322 726 CURVE SMOOTH",
"306 726 OFFCURVE",
"291 721 OFFCURVE",
"278 711 CURVE SMOOTH",
"89 574 LINE"
);
}
);
width = 480;
}
);
unicode = 02C6;
},
{
color = 4;
glyphname = caron;
lastChange = "2021-04-29 22:51:26 +0000";
layers = (
{
background = {
paths = (
{
closed = 1;
nodes = (
"290 562 OFFCURVE",
"309 568 OFFCURVE",
"326 581 CURVE SMOOTH",
"459 682 LINE",
"362 682 LINE",
"281 621 LINE",
"227 682 LINE",
"136 682 LINE",
"227 581 LINE SMOOTH",
"238 568 OFFCURVE",
"255 562 OFFCURVE",
"273 562 CURVE SMOOTH"
);
}
);
};
layerId = "678C5AFE-F8DA-443A-BB17-9B03ED7099AB";
paths = (
{
closed = 1;
nodes = (
"290 562 OFFCURVE",
"309 568 OFFCURVE",
"326 581 CURVE SMOOTH",
"459 682 LINE",
"362 682 LINE",
"281 621 LINE",
"227 682 LINE",
"136 682 LINE",
"227 581 LINE SMOOTH",
"238 568 OFFCURVE",
"255 562 OFFCURVE",
"273 562 CURVE SMOOTH"
);
}
);
width = 429;
},
{
background = {
paths = (
{
closed = 1;
nodes = (
"522 720 LINE",
"375 720 LINE",
"291 659 LINE",
"235 720 LINE",
"120 720 LINE",
"234 593 LINE SMOOTH",
"259 564 OFFCURVE",
"302 560 OFFCURVE",
"332 583 CURVE"
);
}
);
};
layerId = "30D4BC2E-225F-4273-AE59-0FC741A5E71E";
paths = (
{
closed = 1;
nodes = (
"304 568 OFFCURVE",
"319 573 OFFCURVE",
"332 583 CURVE SMOOTH",
"522 720 LINE",
"375 720 LINE",
"291 659 LINE",
"235 720 LINE",
"120 720 LINE",
"234 593 LINE SMOOTH",
"248 577 OFFCURVE",
"268 568 OFFCURVE",
"288 568 CURVE SMOOTH"
);
}
);
width = 476;
}
);
unicode = 02C7;
},
{
color = (255,153,254,255);
glyphname = breve;
lastChange = "2021-04-29 22:51:26 +0000";
layers = (
{
background = {
paths = (
{
closed = 1;
nodes = (
"351 562 OFFCURVE",
"406 623 OFFCURVE",
"430 682 CURVE",
"361 682 LINE",
"344 655 OFFCURVE",
"315 629 OFFCURVE",
"272 629 CURVE SMOOTH",
"229 629 OFFCURVE",
"210 656 OFFCURVE",
"205 682 CURVE",
"136 682 LINE",
"136 627 OFFCURVE",
"180 562 OFFCURVE",
"265 562 CURVE SMOOTH"
);
}
);
};
layerId = "678C5AFE-F8DA-443A-BB17-9B03ED7099AB";
paths = (
{
closed = 1;
nodes = (
"351 562 OFFCURVE",
"406 623 OFFCURVE",
"430 682 CURVE",
"361 682 LINE",
"344 655 OFFCURVE",
"315 629 OFFCURVE",
"272 629 CURVE SMOOTH",
"229 629 OFFCURVE",
"210 656 OFFCURVE",
"205 682 CURVE",
"136 682 LINE",
"136 627 OFFCURVE",
"180 562 OFFCURVE",
"265 562 CURVE SMOOTH"
);
}
);
width = 400;
},
{
background = {
paths = (
{
closed = 1;
nodes = (
"360 577 OFFCURVE",
"416 626 OFFCURVE",
"435 688 CURVE",
"341 688 LINE",
"333 666 OFFCURVE",
"310 651 OFFCURVE",
"282 651 CURVE SMOOTH",
"256 651 OFFCURVE",
"234 666 OFFCURVE",
"229 688 CURVE",
"136 688 LINE",
"143 623 OFFCURVE",
"199 577 OFFCURVE",
"278 577 CURVE SMOOTH"
);
}
);
};
layerId = "30D4BC2E-225F-4273-AE59-0FC741A5E71E";
paths = (
{
closed = 1;
nodes = (
"360 577 OFFCURVE",
"416 626 OFFCURVE",
"435 688 CURVE",
"341 688 LINE",
"333 666 OFFCURVE",
"310 651 OFFCURVE",
"282 651 CURVE SMOOTH",
"256 651 OFFCURVE",
"234 666 OFFCURVE",
"229 688 CURVE",
"136 688 LINE",
"143 623 OFFCURVE",
"199 577 OFFCURVE",
"278 577 CURVE SMOOTH"
);
}
);
width = 385;
}
);
unicode = 02D8;
},
{
color = (255,153,254,255);
glyphname = dotaccent;
lastChange = "2021-04-29 22:51:26 +0000";
layers = (
{
background = {
paths = (
{
closed = 1;
nodes = (
"212 583 OFFCURVE",
"236 607 OFFCURVE",
"236 637 CURVE SMOOTH",
"236 667 OFFCURVE",
"212 691 OFFCURVE",
"182 691 CURVE SMOOTH",
"152 691 OFFCURVE",
"128 667 OFFCURVE",
"128 637 CURVE SMOOTH",
"128 607 OFFCURVE",
"152 583 OFFCURVE",
"182 583 CURVE SMOOTH"
);
}
);
};
layerId = "678C5AFE-F8DA-443A-BB17-9B03ED7099AB";
paths = (
{
closed = 1;
nodes = (
"212 583 OFFCURVE",
"236 607 OFFCURVE",
"236 637 CURVE SMOOTH",
"236 667 OFFCURVE",
"212 691 OFFCURVE",
"182 691 CURVE SMOOTH",
"152 691 OFFCURVE",
"128 667 OFFCURVE",
"128 637 CURVE SMOOTH",
"128 607 OFFCURVE",
"152 583 OFFCURVE",
"182 583 CURVE SMOOTH"
);
}
);
width = 216;
},
{
background = {
paths = (
{
closed = 1;
nodes = (
"209 578 OFFCURVE",
"240 609 OFFCURVE",
"240 648 CURVE SMOOTH",
"240 687 OFFCURVE",
"209 719 OFFCURVE",
"170 719 CURVE SMOOTH",
"131 719 OFFCURVE",
"99 687 OFFCURVE",
"99 648 CURVE SMOOTH",
"99 609 OFFCURVE",
"131 578 OFFCURVE",
"170 578 CURVE SMOOTH"
);
}
);
};
layerId = "30D4BC2E-225F-4273-AE59-0FC741A5E71E";
paths = (
{
closed = 1;
nodes = (
"209 578 OFFCURVE",
"240 609 OFFCURVE",
"240 648 CURVE SMOOTH",
"240 687 OFFCURVE",
"209 719 OFFCURVE",
"170 719 CURVE SMOOTH",
"131 719 OFFCURVE",
"99 687 OFFCURVE",
"99 648 CURVE SMOOTH",
"99 609 OFFCURVE",
"131 578 OFFCURVE",
"170 578 CURVE SMOOTH"
);
}
);
width = 204;
}
);
unicode = 02D9;
},
{
color = (255,153,254,255);
glyphname = ring;
lastChange = "2021-04-29 22:51:26 +0000";
layers = (
{
background = {
paths = (
{
closed = 1;
nodes = (
"306 552 OFFCURVE",
"352 602 OFFCURVE",
"352 661 CURVE SMOOTH",
"352 720 OFFCURVE",
"306 770 OFFCURVE",
"245 770 CURVE SMOOTH",
"183 770 OFFCURVE",
"134 720 OFFCURVE",
"134 661 CURVE SMOOTH",
"134 602 OFFCURVE",
"183 552 OFFCURVE",
"245 552 CURVE SMOOTH"
);
},
{
closed = 1;
nodes = (
"214 610 OFFCURVE",
"191 633 OFFCURVE",
"191 661 CURVE SMOOTH",
"191 689 OFFCURVE",
"214 712 OFFCURVE",
"243 712 CURVE SMOOTH",
"272 712 OFFCURVE",
"295 689 OFFCURVE",
"295 661 CURVE SMOOTH",
"295 633 OFFCURVE",
"272 610 OFFCURVE",
"243 610 CURVE SMOOTH"
);
}
);
};
layerId = "678C5AFE-F8DA-443A-BB17-9B03ED7099AB";
paths = (
{
closed = 1;
nodes = (
"306 552 OFFCURVE",
"352 602 OFFCURVE",
"352 661 CURVE SMOOTH",
"352 720 OFFCURVE",
"306 770 OFFCURVE",
"245 770 CURVE SMOOTH",
"183 770 OFFCURVE",
"134 720 OFFCURVE",
"134 661 CURVE SMOOTH",
"134 602 OFFCURVE",
"183 552 OFFCURVE",
"245 552 CURVE SMOOTH"
);
},
{
closed = 1;
nodes = (
"214 610 OFFCURVE",
"191 633 OFFCURVE",
"191 661 CURVE SMOOTH",
"191 689 OFFCURVE",
"214 712 OFFCURVE",
"243 712 CURVE SMOOTH",
"272 712 OFFCURVE",
"295 689 OFFCURVE",
"295 661 CURVE SMOOTH",
"295 633 OFFCURVE",
"272 610 OFFCURVE",
"243 610 CURVE SMOOTH"
);
}
);
width = 329;
},
{
background = {
paths = (
{
closed = 1;
nodes = (
"295 535 OFFCURVE",
"355 595 OFFCURVE",
"355 668 CURVE SMOOTH",
"355 741 OFFCURVE",
"295 800 OFFCURVE",
"222 800 CURVE SMOOTH",
"149 800 OFFCURVE",
"90 741 OFFCURVE",
"90 668 CURVE SMOOTH",
"90 595 OFFCURVE",
"149 535 OFFCURVE",
"222 535 CURVE SMOOTH"
);
},
{
closed = 1;
nodes = (
"196 621 OFFCURVE",
"175 642 OFFCURVE",
"175 668 CURVE SMOOTH",
"175 694 OFFCURVE",
"196 715 OFFCURVE",
"222 715 CURVE SMOOTH",
"248 715 OFFCURVE",
"269 694 OFFCURVE",
"269 668 CURVE SMOOTH",
"269 642 OFFCURVE",
"248 621 OFFCURVE",
"222 621 CURVE SMOOTH"
);
}
);
};
layerId = "30D4BC2E-225F-4273-AE59-0FC741A5E71E";
paths = (
{
closed = 1;
nodes = (
"295 535 OFFCURVE",
"355 595 OFFCURVE",
"355 668 CURVE SMOOTH",
"355 741 OFFCURVE",
"295 800 OFFCURVE",
"222 800 CURVE SMOOTH",
"149 800 OFFCURVE",
"90 741 OFFCURVE",
"90 668 CURVE SMOOTH",
"90 595 OFFCURVE",
"149 535 OFFCURVE",
"222 535 CURVE SMOOTH"
);
},
{
closed = 1;
nodes = (
"196 621 OFFCURVE",
"175 642 OFFCURVE",
"175 668 CURVE SMOOTH",
"175 694 OFFCURVE",
"196 715 OFFCURVE",
"222 715 CURVE SMOOTH",
"248 715 OFFCURVE",
"269 694 OFFCURVE",
"269 668 CURVE SMOOTH",
"269 642 OFFCURVE",
"248 621 OFFCURVE",
"222 621 CURVE SMOOTH"
);
}
);
width = 301;
}
);
unicode = 02DA;
},
{
color = 4;
glyphname = ogonek;
lastChange = "2021-04-29 22:51:26 +0000";
layers = (
{
background = {
paths = (
{
closed = 1;
nodes = (
"73 -173 OFFCURVE",
"95 -169 OFFCURVE",
"121 -161 CURVE",
"132 -107 LINE",
"116 -113 OFFCURVE",
"101 -116 OFFCURVE",
"88 -116 CURVE SMOOTH",
"64 -116 OFFCURVE",
"47 -105 OFFCURVE",
"47 -89 CURVE SMOOTH",
"47 -55 OFFCURVE",
"92 -23 OFFCURVE",
"155 0 CURVE",
"76 0 LINE",
"12 -19 OFFCURVE",
"-30 -61 OFFCURVE",
"-30 -106 CURVE SMOOTH",
"-30 -143 OFFCURVE",
"-1 -173 OFFCURVE",
"54 -173 CURVE SMOOTH"
);
}
);
};
layerId = "678C5AFE-F8DA-443A-BB17-9B03ED7099AB";
paths = (
{
closed = 1;
nodes = (
"73 -173 OFFCURVE",
"95 -169 OFFCURVE",
"121 -161 CURVE",
"132 -107 LINE",
"116 -113 OFFCURVE",
"101 -116 OFFCURVE",
"88 -116 CURVE SMOOTH",
"64 -116 OFFCURVE",
"47 -105 OFFCURVE",
"47 -89 CURVE SMOOTH",
"47 -55 OFFCURVE",
"92 -23 OFFCURVE",
"155 0 CURVE",
"76 0 LINE",
"12 -19 OFFCURVE",
"-30 -61 OFFCURVE",
"-30 -106 CURVE SMOOTH",
"-30 -143 OFFCURVE",
"-1 -173 OFFCURVE",
"54 -173 CURVE SMOOTH"
);
}
);
width = 270;
},
{
background = {
paths = (
{
closed = 1;
nodes = (
"98 -173 OFFCURVE",
"137 -168 OFFCURVE",
"154 -164 CURVE",
"170 -88 LINE",
"161 -91 OFFCURVE",
"138 -97 OFFCURVE",
"119 -97 CURVE SMOOTH",
"97 -97 OFFCURVE",
"72 -93 OFFCURVE",
"77 -69 CURVE SMOOTH",
"83 -45 OFFCURVE",
"132 -23 OFFCURVE",
"183 0 CURVE",
"39 0 LINE",
"-7 -12 OFFCURVE",
"-45 -48 OFFCURVE",
"-51 -84 CURVE SMOOTH",
"-57 -123 OFFCURVE",
"-36 -173 OFFCURVE",
"73 -173 CURVE SMOOTH"
);
}
);
};
layerId = "30D4BC2E-225F-4273-AE59-0FC741A5E71E";
paths = (
{
closed = 1;
nodes = (
"98 -173 OFFCURVE",
"137 -168 OFFCURVE",
"154 -164 CURVE",
"170 -88 LINE",
"161 -91 OFFCURVE",
"138 -97 OFFCURVE",
"119 -97 CURVE SMOOTH",
"99 -97 OFFCURVE",
"76 -94 OFFCURVE",
"76 -75 CURVE SMOOTH",
"76 -49 OFFCURVE",
"128 -25 OFFCURVE",
"183 0 CURVE",
"39 0 LINE",
"-12 -13 OFFCURVE",
"-52 -56 OFFCURVE",
"-52 -96 CURVE SMOOTH",
"-52 -132 OFFCURVE",
"-25 -173 OFFCURVE",
"73 -173 CURVE SMOOTH"
);
}
);
width = 296;
}
);
unicode = 02DB;
},
{
color = 4;
glyphname = quoteleft;
lastChange = "2021-04-29 22:51:26 +0000";
layers = (
{
background = {
paths = (
{
closed = 1;
nodes = (
"195 418 OFFCURVE",
"224 445 OFFCURVE",
"224 482 CURVE SMOOTH",
"224 510 OFFCURVE",
"208 533 OFFCURVE",
"181 543 CURVE",
"257 668 LINE",
"196 668 LINE",
"105 517 LINE SMOOTH",
"98 506 OFFCURVE",
"95 494 OFFCURVE",
"95 483 CURVE SMOOTH",
"95 450 OFFCURVE",
"121 418 OFFCURVE",
"161 418 CURVE SMOOTH"
);
}
);
};
layerId = "678C5AFE-F8DA-443A-BB17-9B03ED7099AB";
paths = (
{
closed = 1;
nodes = (
"195 418 OFFCURVE",
"224 445 OFFCURVE",
"224 482 CURVE SMOOTH",
"224 510 OFFCURVE",
"208 533 OFFCURVE",
"181 543 CURVE",
"257 668 LINE",
"196 668 LINE",
"105 517 LINE SMOOTH",
"98 506 OFFCURVE",
"95 494 OFFCURVE",
"95 483 CURVE SMOOTH",
"95 450 OFFCURVE",
"121 418 OFFCURVE",
"161 418 CURVE SMOOTH"
);
}
);
width = 238;
},
{
background = {
paths = (
{
closed = 1;
nodes = (
"198 332 OFFCURVE",
"249 366 OFFCURVE",
"259 419 CURVE SMOOTH",
"268 464 OFFCURVE",
"244 508 OFFCURVE",
"203 526 CURVE",
"292 668 LINE",
"193 668 LINE",
"81 488 LINE SMOOTH",
"75 478 OFFCURVE",
"70 467 OFFCURVE",
"68 455 CURVE SMOOTH",
"59 402 OFFCURVE",
"93 351 OFFCURVE",
"145 341 CURVE SMOOTH"
);
}
);
};
layerId = "30D4BC2E-225F-4273-AE59-0FC741A5E71E";
paths = (
{
closed = 1;
nodes = (
"215 340 OFFCURVE",
"261 380 OFFCURVE",
"261 438 CURVE SMOOTH",
"261 476 OFFCURVE",
"238 511 OFFCURVE",
"203 526 CURVE",
"292 668 LINE",
"193 668 LINE",
"81 488 LINE SMOOTH",
"72 473 OFFCURVE",
"67 455 OFFCURVE",
"67 438 CURVE SMOOTH",
"67 385 OFFCURVE",
"107 340 OFFCURVE",
"162 340 CURVE SMOOTH"
);
}
);
width = 281;
}
);
leftKerningGroup = quoteleft;
rightKerningGroup = quoteleft_2;
unicode = 2018;
},
{
color = (255,153,254,255);
glyphname = quoteright;
lastChange = "2021-04-29 22:51:26 +0000";
layers = (
{
background = {
paths = (
{
closed = 1;
nodes = (
"152 429 LINE",
"237 572 LINE SMOOTH",
"248 590 OFFCURVE",
"253 603 OFFCURVE",
"253 616 CURVE SMOOTH",
"253 651 OFFCURVE",
"226 680 OFFCURVE",
"188 680 CURVE SMOOTH",
"154 680 OFFCURVE",
"123 651 OFFCURVE",
"123 617 CURVE SMOOTH",
"123 586 OFFCURVE",
"140 564 OFFCURVE",
"166 555 CURVE",
"91 429 LINE"
);
}
);
};
layerId = "678C5AFE-F8DA-443A-BB17-9B03ED7099AB";
paths = (
{
closed = 1;
nodes = (
"152 429 LINE",
"237 572 LINE SMOOTH",
"248 590 OFFCURVE",
"253 603 OFFCURVE",
"253 616 CURVE SMOOTH",
"253 651 OFFCURVE",
"226 680 OFFCURVE",
"188 680 CURVE SMOOTH",
"154 680 OFFCURVE",
"123 651 OFFCURVE",
"123 617 CURVE SMOOTH",
"123 586 OFFCURVE",
"140 564 OFFCURVE",
"166 555 CURVE",
"91 429 LINE"
);
}
);
width = 238;
},
{
background = {
paths = (
{
closed = 1;
nodes = (
"165 351 LINE",
"278 531 LINE SMOOTH",
"284 541 OFFCURVE",
"288 552 OFFCURVE",
"291 564 CURVE SMOOTH",
"304 616 OFFCURVE",
"266 668 OFFCURVE",
"213 678 CURVE SMOOTH",
"160 688 OFFCURVE",
"109 654 OFFCURVE",
"99 601 CURVE SMOOTH",
"90 555 OFFCURVE",
"115 511 OFFCURVE",
"155 493 CURVE",
"66 351 LINE"
);
}
);
};
layerId = "30D4BC2E-225F-4273-AE59-0FC741A5E71E";
paths = (
{
closed = 1;
nodes = (
"165 351 LINE",
"278 531 LINE SMOOTH",
"287 545 OFFCURVE",
"293 568 OFFCURVE",
"293 584 CURVE SMOOTH",
"293 635 OFFCURVE",
"250 680 OFFCURVE",
"195 680 CURVE SMOOTH",
"143 680 OFFCURVE",
"97 639 OFFCURVE",
"97 582 CURVE SMOOTH",
"97 543 OFFCURVE",
"121 509 OFFCURVE",
"155 493 CURVE",
"66 351 LINE"
);
}
);
width = 282;
}
);
leftKerningGroup = quoteright;
rightKerningGroup = quoteright_2;
unicode = 2019;
},
{
color = (255,153,254,255);
glyphname = quotesinglbase;
lastChange = "2021-04-29 22:51:26 +0000";
layers = (
{
background = {
paths = (
{
closed = 1;
nodes = (
"33 -133 LINE",
"121 14 LINE SMOOTH",
"128 25 OFFCURVE",
"134 39 OFFCURVE",
"134 53 CURVE SMOOTH",
"134 89 OFFCURVE",
"105 118 OFFCURVE",
"67 118 CURVE SMOOTH",
"31 118 OFFCURVE",
"4 86 OFFCURVE",
"4 53 CURVE SMOOTH",
"4 23 OFFCURVE",
"23 2 OFFCURVE",
"47 -8 CURVE",
"-28 -133 LINE"
);
}
);
};
layerId = "678C5AFE-F8DA-443A-BB17-9B03ED7099AB";
paths = (
{
closed = 1;
nodes = (
"33 -133 LINE",
"121 14 LINE SMOOTH",
"128 25 OFFCURVE",
"134 39 OFFCURVE",
"134 53 CURVE SMOOTH",
"134 89 OFFCURVE",
"105 118 OFFCURVE",
"67 118 CURVE SMOOTH",
"31 118 OFFCURVE",
"4 86 OFFCURVE",
"4 53 CURVE SMOOTH",
"4 23 OFFCURVE",
"23 2 OFFCURVE",
"47 -8 CURVE",
"-28 -133 LINE"
);
}
);
width = 239;
},
{
background = {
paths = (
{
closed = 1;
nodes = (
"59 -145 LINE",
"172 35 LINE SMOOTH",
"178 45 OFFCURVE",
"182 56 OFFCURVE",
"185 68 CURVE SMOOTH",
"198 120 OFFCURVE",
"160 172 OFFCURVE",
"107 182 CURVE SMOOTH",
"54 192 OFFCURVE",
"3 157 OFFCURVE",
"-7 104 CURVE SMOOTH",
"-16 59 OFFCURVE",
"9 15 OFFCURVE",
"49 -3 CURVE",
"-40 -145 LINE"
);
}
);
};
layerId = "30D4BC2E-225F-4273-AE59-0FC741A5E71E";
paths = (
{
closed = 1;
nodes = (
"59 -145 LINE",
"172 35 LINE SMOOTH",
"181 49 OFFCURVE",
"187 72 OFFCURVE",
"187 88 CURVE SMOOTH",
"187 139 OFFCURVE",
"144 184 OFFCURVE",
"89 184 CURVE SMOOTH",
"37 184 OFFCURVE",
"-9 142 OFFCURVE",
"-9 86 CURVE SMOOTH",
"-9 47 OFFCURVE",
"15 13 OFFCURVE",
"49 -3 CURVE",
"-40 -145 LINE"
);
}
);
width = 282;
}
);
leftKerningGroup = period;
rightKerningGroup = period_2;
unicode = 201A;
},
{
color = (255,153,254,255);
glyphname = quotedblleft;
lastChange = "2021-04-29 22:51:26 +0000";
layers = (
{
background = {
paths = (
{
closed = 1;
nodes = (
"195 418 OFFCURVE",
"224 445 OFFCURVE",
"224 482 CURVE SMOOTH",
"224 510 OFFCURVE",
"208 533 OFFCURVE",
"181 543 CURVE",
"257 668 LINE",
"196 668 LINE",
"105 517 LINE SMOOTH",
"98 506 OFFCURVE",
"95 494 OFFCURVE",
"95 483 CURVE SMOOTH",
"95 450 OFFCURVE",
"121 418 OFFCURVE",
"161 418 CURVE SMOOTH"
);
},
{
closed = 1;
nodes = (
"352 418 OFFCURVE",
"381 445 OFFCURVE",
"381 482 CURVE SMOOTH",
"381 510 OFFCURVE",
"365 533 OFFCURVE",
"338 543 CURVE",
"414 668 LINE",
"353 668 LINE",
"262 517 LINE SMOOTH",
"255 506 OFFCURVE",
"252 494 OFFCURVE",
"252 483 CURVE SMOOTH",
"252 450 OFFCURVE",
"278 418 OFFCURVE",
"318 418 CURVE SMOOTH"
);
}
);
};
layerId = "678C5AFE-F8DA-443A-BB17-9B03ED7099AB";
paths = (
{
closed = 1;
nodes = (
"195 418 OFFCURVE",
"224 445 OFFCURVE",
"224 482 CURVE SMOOTH",
"224 510 OFFCURVE",
"208 533 OFFCURVE",
"181 543 CURVE",
"257 668 LINE",
"196 668 LINE",
"105 517 LINE SMOOTH",
"98 506 OFFCURVE",
"95 494 OFFCURVE",
"95 483 CURVE SMOOTH",
"95 450 OFFCURVE",
"121 418 OFFCURVE",
"161 418 CURVE SMOOTH"
);
},
{
closed = 1;
nodes = (
"352 418 OFFCURVE",
"381 445 OFFCURVE",
"381 482 CURVE SMOOTH",
"381 510 OFFCURVE",
"365 533 OFFCURVE",
"338 543 CURVE",
"414 668 LINE",
"353 668 LINE",
"262 517 LINE SMOOTH",
"255 506 OFFCURVE",
"252 494 OFFCURVE",
"252 483 CURVE SMOOTH",
"252 450 OFFCURVE",
"278 418 OFFCURVE",
"318 418 CURVE SMOOTH"
);
}
);
width = 395;
},
{
background = {
paths = (
{
closed = 1;
nodes = (
"422 332 OFFCURVE",
"473 366 OFFCURVE",
"483 419 CURVE SMOOTH",
"491 464 OFFCURVE",
"467 508 OFFCURVE",
"427 526 CURVE",
"516 668 LINE",
"417 668 LINE",
"305 488 LINE SMOOTH",
"299 478 OFFCURVE",
"294 467 OFFCURVE",
"292 455 CURVE SMOOTH",
"283 402 OFFCURVE",
"317 351 OFFCURVE",
"369 341 CURVE SMOOTH"
);
},
{
closed = 1;
nodes = (
"198 332 OFFCURVE",
"249 366 OFFCURVE",
"259 419 CURVE SMOOTH",
"268 464 OFFCURVE",
"244 508 OFFCURVE",
"203 526 CURVE",
"292 668 LINE",
"193 668 LINE",
"81 488 LINE SMOOTH",
"75 478 OFFCURVE",
"70 467 OFFCURVE",
"68 455 CURVE SMOOTH",
"59 402 OFFCURVE",
"93 351 OFFCURVE",
"145 341 CURVE SMOOTH"
);
}
);
};
layerId = "30D4BC2E-225F-4273-AE59-0FC741A5E71E";
paths = (
{
closed = 1;
nodes = (
"215 340 OFFCURVE",
"261 380 OFFCURVE",
"261 438 CURVE SMOOTH",
"261 476 OFFCURVE",
"238 511 OFFCURVE",
"203 526 CURVE",
"292 668 LINE",
"193 668 LINE",
"92 506 LINE SMOOTH",
"73 475 OFFCURVE",
"67 459 OFFCURVE",
"67 435 CURVE SMOOTH",
"67 382 OFFCURVE",
"109 340 OFFCURVE",
"162 340 CURVE SMOOTH"
);
},
{
closed = 1;
nodes = (
"439 340 OFFCURVE",
"485 380 OFFCURVE",
"485 436 CURVE SMOOTH",
"485 475 OFFCURVE",
"462 510 OFFCURVE",
"427 526 CURVE",
"516 668 LINE",
"417 668 LINE",
"305 488 LINE SMOOTH",
"296 473 OFFCURVE",
"291 455 OFFCURVE",
"291 429 CURVE SMOOTH",
"291 385 OFFCURVE",
"331 340 OFFCURVE",
"386 340 CURVE SMOOTH"
);
}
);
width = 505;
}
);
leftKerningGroup = quoteleft;
rightKerningGroup = quoteleft_2;
unicode = 201C;
},
{
color = 4;
glyphname = quotedblright;
lastChange = "2021-04-29 22:51:26 +0000";
layers = (
{
background = {
paths = (
{
closed = 1;
nodes = (
"307 429 LINE",
"398 580 LINE SMOOTH",
"405 591 OFFCURVE",
"408 603 OFFCURVE",
"408 614 CURVE SMOOTH",
"408 647 OFFCURVE",
"382 679 OFFCURVE",
"342 679 CURVE SMOOTH",
"308 679 OFFCURVE",
"279 652 OFFCURVE",
"279 615 CURVE SMOOTH",
"279 587 OFFCURVE",
"295 564 OFFCURVE",
"322 554 CURVE",
"246 429 LINE"
);
},
{
closed = 1;
nodes = (
"150 429 LINE",
"241 580 LINE SMOOTH",
"248 591 OFFCURVE",
"251 603 OFFCURVE",
"251 614 CURVE SMOOTH",
"251 647 OFFCURVE",
"225 679 OFFCURVE",
"185 679 CURVE SMOOTH",
"151 679 OFFCURVE",
"122 652 OFFCURVE",
"122 615 CURVE SMOOTH",
"122 587 OFFCURVE",
"138 564 OFFCURVE",
"165 554 CURVE",
"89 429 LINE"
);
}
);
};
layerId = "678C5AFE-F8DA-443A-BB17-9B03ED7099AB";
paths = (
{
closed = 1;
nodes = (
"307 429 LINE",
"398 580 LINE SMOOTH",
"405 591 OFFCURVE",
"408 603 OFFCURVE",
"408 614 CURVE SMOOTH",
"408 647 OFFCURVE",
"382 679 OFFCURVE",
"342 679 CURVE SMOOTH",
"308 679 OFFCURVE",
"279 652 OFFCURVE",
"279 615 CURVE SMOOTH",
"279 587 OFFCURVE",
"295 564 OFFCURVE",
"322 554 CURVE",
"246 429 LINE"
);
},
{
closed = 1;
nodes = (
"150 429 LINE",
"241 580 LINE SMOOTH",
"248 591 OFFCURVE",
"251 603 OFFCURVE",
"251 614 CURVE SMOOTH",
"251 647 OFFCURVE",
"225 679 OFFCURVE",
"185 679 CURVE SMOOTH",
"151 679 OFFCURVE",
"122 652 OFFCURVE",
"122 615 CURVE SMOOTH",
"122 587 OFFCURVE",
"138 564 OFFCURVE",
"165 554 CURVE",
"89 429 LINE"
);
}
);
width = 394;
},
{
background = {
paths = (
{
closed = 1;
nodes = (
"165 351 LINE",
"278 531 LINE SMOOTH",
"284 541 OFFCURVE",
"288 552 OFFCURVE",
"291 564 CURVE SMOOTH",
"304 616 OFFCURVE",
"266 668 OFFCURVE",
"213 678 CURVE SMOOTH",
"160 688 OFFCURVE",
"109 654 OFFCURVE",
"99 601 CURVE SMOOTH",
"90 555 OFFCURVE",
"115 511 OFFCURVE",
"155 493 CURVE",
"66 351 LINE"
);
},
{
closed = 1;
nodes = (
"389 351 LINE",
"501 531 LINE SMOOTH",
"507 541 OFFCURVE",
"512 552 OFFCURVE",
"514 564 CURVE SMOOTH",
"523 617 OFFCURVE",
"489 668 OFFCURVE",
"436 678 CURVE SMOOTH",
"383 688 OFFCURVE",
"333 654 OFFCURVE",
"323 601 CURVE SMOOTH",
"314 555 OFFCURVE",
"339 511 OFFCURVE",
"378 493 CURVE",
"290 351 LINE"
);
}
);
};
layerId = "30D4BC2E-225F-4273-AE59-0FC741A5E71E";
paths = (
{
closed = 1;
nodes = (
"389 350 LINE",
"490 512 LINE SMOOTH",
"509 543 OFFCURVE",
"515 559 OFFCURVE",
"515 583 CURVE SMOOTH",
"515 636 OFFCURVE",
"473 678 OFFCURVE",
"420 678 CURVE SMOOTH",
"367 678 OFFCURVE",
"321 638 OFFCURVE",
"321 580 CURVE SMOOTH",
"321 542 OFFCURVE",
"344 507 OFFCURVE",
"379 492 CURVE",
"290 350 LINE"
);
},
{
closed = 1;
nodes = (
"165 350 LINE",
"277 530 LINE SMOOTH",
"286 545 OFFCURVE",
"291 563 OFFCURVE",
"291 589 CURVE SMOOTH",
"291 633 OFFCURVE",
"251 678 OFFCURVE",
"196 678 CURVE SMOOTH",
"143 678 OFFCURVE",
"97 638 OFFCURVE",
"97 582 CURVE SMOOTH",
"97 543 OFFCURVE",
"120 508 OFFCURVE",
"155 492 CURVE",
"66 350 LINE"
);
}
);
width = 505;
}
);
leftKerningGroup = quoteright;
rightKerningGroup = quoteright_2;
unicode = 201D;
},
{
color = 4;
glyphname = quotedblbase;
lastChange = "2021-04-29 22:51:26 +0000";
layers = (
{
background = {
components = (
{
name = quotedblright;
transform = "{1, 0, 0, 1, -117, -561}";
}
);
};
components = (
{
name = quotedblright;
transform = "{1, 0, 0, 1, -117, -561}";
}
);
layerId = "678C5AFE-F8DA-443A-BB17-9B03ED7099AB";
width = 394;
},
{
background = {
paths = (
{
closed = 1;
nodes = (
"59 -145 LINE",
"172 35 LINE SMOOTH",
"178 45 OFFCURVE",
"182 56 OFFCURVE",
"185 68 CURVE SMOOTH",
"198 120 OFFCURVE",
"160 172 OFFCURVE",
"107 182 CURVE SMOOTH",
"54 192 OFFCURVE",
"3 157 OFFCURVE",
"-7 104 CURVE SMOOTH",
"-16 59 OFFCURVE",
"9 15 OFFCURVE",
"49 -3 CURVE",
"-40 -145 LINE"
);
},
{
closed = 1;
nodes = (
"283 -145 LINE",
"395 35 LINE SMOOTH",
"401 45 OFFCURVE",
"406 56 OFFCURVE",
"408 68 CURVE SMOOTH",
"417 121 OFFCURVE",
"383 172 OFFCURVE",
"330 182 CURVE SMOOTH",
"277 192 OFFCURVE",
"227 157 OFFCURVE",
"217 104 CURVE SMOOTH",
"209 59 OFFCURVE",
"233 15 OFFCURVE",
"272 -3 CURVE",
"184 -145 LINE"
);
}
);
};
components = (
{
name = quotedblright;
transform = "{1, 0, 0, 1, -107, -495}";
}
);
layerId = "30D4BC2E-225F-4273-AE59-0FC741A5E71E";
width = 505;
}
);
leftKerningGroup = period;
rightKerningGroup = period_2;
unicode = 201E;
},
{
color = (255,153,254,255);
glyphname = dagger;
lastChange = "2021-04-29 22:51:26 +0000";
layers = (
{
background = {
paths = (
{
closed = 1;
nodes = (
"250 0 LINE",
"338 417 LINE",
"527 417 LINE",
"544 496 LINE",
"355 496 LINE",
"391 668 LINE",
"311 668 LINE",
"274 496 LINE",
"84 496 LINE",
"67 417 LINE",
"257 417 LINE",
"168 0 LINE"
);
}
);
};
layerId = "678C5AFE-F8DA-443A-BB17-9B03ED7099AB";
paths = (
{
closed = 1;
nodes = (
"250 0 LINE",
"338 417 LINE",
"527 417 LINE",
"544 496 LINE",
"355 496 LINE",
"391 668 LINE",
"311 668 LINE",
"274 496 LINE",
"84 496 LINE",
"67 417 LINE",
"257 417 LINE",
"168 0 LINE"
);
}
);
width = 541;
},
{
background = {
paths = (
{
closed = 1;
nodes = (
"300 1 LINE",
"380 380 LINE",
"564 380 LINE",
"588 496 LINE",
"405 496 LINE",
"442 668 LINE",
"297 668 LINE",
"260 496 LINE",
"77 496 LINE",
"52 380 LINE",
"236 380 LINE",
"155 1 LINE"
);
}
);
};
layerId = "30D4BC2E-225F-4273-AE59-0FC741A5E71E";
paths = (
{
closed = 1;
nodes = (
"300 1 LINE",
"380 380 LINE",
"564 380 LINE",
"588 496 LINE",
"405 496 LINE",
"442 668 LINE",
"297 668 LINE",
"260 496 LINE",
"77 496 LINE",
"52 380 LINE",
"236 380 LINE",
"155 1 LINE"
);
}
);
width = 594;
}
);
unicode = 2020;
},
{
color = (255,153,254,255);
glyphname = daggerdbl;
lastChange = "2021-04-29 22:51:26 +0000";
layers = (
{
background = {
paths = (
{
closed = 1;
nodes = (
"250 0 LINE",
"286 173 LINE",
"475 173 LINE",
"492 252 LINE",
"303 252 LINE",
"337 417 LINE",
"527 417 LINE",
"544 496 LINE",
"354 496 LINE",
"391 668 LINE",
"311 668 LINE",
"274 496 LINE",
"84 496 LINE",
"67 417 LINE",
"257 417 LINE",
"222 252 LINE",
"32 252 LINE",
"15 173 LINE",
"205 173 LINE",
"168 0 LINE"
);
}
);
};
layerId = "678C5AFE-F8DA-443A-BB17-9B03ED7099AB";
paths = (
{
closed = 1;
nodes = (
"250 0 LINE",
"286 173 LINE",
"475 173 LINE",
"492 252 LINE",
"303 252 LINE",
"337 417 LINE",
"527 417 LINE",
"544 496 LINE",
"354 496 LINE",
"391 668 LINE",
"311 668 LINE",
"274 496 LINE",
"84 496 LINE",
"67 417 LINE",
"257 417 LINE",
"222 252 LINE",
"32 252 LINE",
"15 173 LINE",
"205 173 LINE",
"168 0 LINE"
);
}
);
width = 541;
},
{
background = {
paths = (
{
closed = 1;
nodes = (
"301 1 LINE",
"336 173 LINE",
"520 173 LINE",
"544 288 LINE",
"361 288 LINE",
"381 380 LINE",
"564 380 LINE",
"589 496 LINE",
"405 496 LINE",
"442 668 LINE",
"297 668 LINE",
"260 496 LINE",
"77 496 LINE",
"52 380 LINE",
"236 380 LINE",
"216 288 LINE",
"33 288 LINE",
"8 173 LINE",
"192 173 LINE",
"155 1 LINE"
);
}
);
};
layerId = "30D4BC2E-225F-4273-AE59-0FC741A5E71E";
paths = (
{
closed = 1;
nodes = (
"301 1 LINE",
"336 173 LINE",
"520 173 LINE",
"544 288 LINE",
"361 288 LINE",
"381 380 LINE",
"564 380 LINE",
"589 496 LINE",
"405 496 LINE",
"442 668 LINE",
"297 668 LINE",
"260 496 LINE",
"77 496 LINE",
"52 380 LINE",
"236 380 LINE",
"216 288 LINE",
"33 288 LINE",
"8 173 LINE",
"192 173 LINE",
"155 1 LINE"
);
}
);
width = 595;
}
);
unicode = 2021;
},
{
color = (255,153,254,255);
glyphname = bullet;
lastChange = "2021-04-29 22:51:26 +0000";
layers = (
{
background = {
paths = (
{
closed = 1;
nodes = (
"307 88 OFFCURVE",
"381 163 OFFCURVE",
"381 254 CURVE SMOOTH",
"381 346 OFFCURVE",
"307 420 OFFCURVE",
"215 420 CURVE SMOOTH",
"123 420 OFFCURVE",
"49 346 OFFCURVE",
"49 254 CURVE SMOOTH",
"49 163 OFFCURVE",
"123 88 OFFCURVE",
"215 88 CURVE SMOOTH"
);
}
);
};
layerId = "678C5AFE-F8DA-443A-BB17-9B03ED7099AB";
paths = (
{
closed = 1;
nodes = (
"307 88 OFFCURVE",
"381 163 OFFCURVE",
"381 254 CURVE SMOOTH",
"381 346 OFFCURVE",
"307 420 OFFCURVE",
"215 420 CURVE SMOOTH",
"123 420 OFFCURVE",
"49 346 OFFCURVE",
"49 254 CURVE SMOOTH",
"49 163 OFFCURVE",
"123 88 OFFCURVE",
"215 88 CURVE SMOOTH"
);
}
);
width = 446;
},
{
background = {
paths = (
{
closed = 1;
nodes = (
"299 88 OFFCURVE",
"373 163 OFFCURVE",
"373 254 CURVE SMOOTH",
"373 346 OFFCURVE",
"299 420 OFFCURVE",
"207 420 CURVE SMOOTH",
"115 420 OFFCURVE",
"41 346 OFFCURVE",
"41 254 CURVE SMOOTH",
"41 163 OFFCURVE",
"115 88 OFFCURVE",
"207 88 CURVE SMOOTH"
);
}
);
};
layerId = "30D4BC2E-225F-4273-AE59-0FC741A5E71E";
paths = (
{
closed = 1;
nodes = (
"299 88 OFFCURVE",
"373 163 OFFCURVE",
"373 254 CURVE SMOOTH",
"373 346 OFFCURVE",
"299 420 OFFCURVE",
"207 420 CURVE SMOOTH",
"115 420 OFFCURVE",
"41 346 OFFCURVE",
"41 254 CURVE SMOOTH",
"41 163 OFFCURVE",
"115 88 OFFCURVE",
"207 88 CURVE SMOOTH"
);
}
);
width = 446;
}
);
unicode = 2022;
},
{
color = (255,153,254,255);
glyphname = ellipsis;
lastChange = "2021-04-29 22:51:26 +0000";
layers = (
{
background = {
paths = (
{
closed = 1;
nodes = (
"565 -12 OFFCURVE",
"594 17 OFFCURVE",
"594 52 CURVE SMOOTH",
"594 88 OFFCURVE",
"565 117 OFFCURVE",
"530 117 CURVE SMOOTH",
"494 117 OFFCURVE",
"465 88 OFFCURVE",
"465 52 CURVE SMOOTH",
"465 17 OFFCURVE",
"494 -12 OFFCURVE",
"530 -12 CURVE SMOOTH"
);
},
{
closed = 1;
nodes = (
"104 -12 OFFCURVE",
"133 17 OFFCURVE",
"133 52 CURVE SMOOTH",
"133 88 OFFCURVE",
"104 117 OFFCURVE",
"68 117 CURVE SMOOTH",
"33 117 OFFCURVE",
"4 88 OFFCURVE",
"4 52 CURVE SMOOTH",
"4 17 OFFCURVE",
"33 -12 OFFCURVE",
"68 -12 CURVE SMOOTH"
);
},
{
closed = 1;
nodes = (
"335 -12 OFFCURVE",
"364 17 OFFCURVE",
"364 52 CURVE SMOOTH",
"364 88 OFFCURVE",
"335 117 OFFCURVE",
"299 117 CURVE SMOOTH",
"263 117 OFFCURVE",
"235 88 OFFCURVE",
"235 52 CURVE SMOOTH",
"235 17 OFFCURVE",
"263 -12 OFFCURVE",
"299 -12 CURVE SMOOTH"
);
}
);
};
layerId = "678C5AFE-F8DA-443A-BB17-9B03ED7099AB";
paths = (
{
closed = 1;
nodes = (
"565 -12 OFFCURVE",
"594 17 OFFCURVE",
"594 52 CURVE SMOOTH",
"594 88 OFFCURVE",
"565 117 OFFCURVE",
"530 117 CURVE SMOOTH",
"494 117 OFFCURVE",
"465 88 OFFCURVE",
"465 52 CURVE SMOOTH",
"465 17 OFFCURVE",
"494 -12 OFFCURVE",
"530 -12 CURVE SMOOTH"
);
},
{
closed = 1;
nodes = (
"104 -12 OFFCURVE",
"133 17 OFFCURVE",
"133 52 CURVE SMOOTH",
"133 88 OFFCURVE",
"104 117 OFFCURVE",
"68 117 CURVE SMOOTH",
"33 117 OFFCURVE",
"4 88 OFFCURVE",
"4 52 CURVE SMOOTH",
"4 17 OFFCURVE",
"33 -12 OFFCURVE",
"68 -12 CURVE SMOOTH"
);
},
{
closed = 1;
nodes = (
"335 -12 OFFCURVE",
"364 17 OFFCURVE",
"364 52 CURVE SMOOTH",
"364 88 OFFCURVE",
"335 117 OFFCURVE",
"299 117 CURVE SMOOTH",
"263 117 OFFCURVE",
"235 88 OFFCURVE",
"235 52 CURVE SMOOTH",
"235 17 OFFCURVE",
"263 -12 OFFCURVE",
"299 -12 CURVE SMOOTH"
);
}
);
width = 699;
},
{
background = {
paths = (
{
closed = 1;
nodes = (
"669 -12 OFFCURVE",
"712 32 OFFCURVE",
"712 86 CURVE SMOOTH",
"712 140 OFFCURVE",
"669 184 OFFCURVE",
"615 184 CURVE SMOOTH",
"561 184 OFFCURVE",
"517 140 OFFCURVE",
"517 86 CURVE SMOOTH",
"517 32 OFFCURVE",
"561 -12 OFFCURVE",
"615 -12 CURVE SMOOTH"
);
},
{
closed = 1;
nodes = (
"142 -12 OFFCURVE",
"186 32 OFFCURVE",
"186 86 CURVE SMOOTH",
"186 140 OFFCURVE",
"142 184 OFFCURVE",
"89 184 CURVE SMOOTH",
"35 184 OFFCURVE",
"-9 140 OFFCURVE",
"-9 86 CURVE SMOOTH",
"-9 32 OFFCURVE",
"35 -12 OFFCURVE",
"89 -12 CURVE SMOOTH"
);
},
{
closed = 1;
nodes = (
"405 -12 OFFCURVE",
"449 32 OFFCURVE",
"449 86 CURVE SMOOTH",
"449 140 OFFCURVE",
"405 184 OFFCURVE",
"351 184 CURVE SMOOTH",
"297 184 OFFCURVE",
"255 140 OFFCURVE",
"255 86 CURVE SMOOTH",
"255 32 OFFCURVE",
"297 -12 OFFCURVE",
"351 -12 CURVE SMOOTH"
);
}
);
};
layerId = "30D4BC2E-225F-4273-AE59-0FC741A5E71E";
paths = (
{
closed = 1;
nodes = (
"669 -12 OFFCURVE",
"712 32 OFFCURVE",
"712 86 CURVE SMOOTH",
"712 140 OFFCURVE",
"669 184 OFFCURVE",
"615 184 CURVE SMOOTH",
"561 184 OFFCURVE",
"517 140 OFFCURVE",
"517 86 CURVE SMOOTH",
"517 32 OFFCURVE",
"561 -12 OFFCURVE",
"615 -12 CURVE SMOOTH"
);
},
{
closed = 1;
nodes = (
"142 -12 OFFCURVE",
"186 32 OFFCURVE",
"186 86 CURVE SMOOTH",
"186 140 OFFCURVE",
"142 184 OFFCURVE",
"89 184 CURVE SMOOTH",
"35 184 OFFCURVE",
"-9 140 OFFCURVE",
"-9 86 CURVE SMOOTH",
"-9 32 OFFCURVE",
"35 -12 OFFCURVE",
"89 -12 CURVE SMOOTH"
);
},
{
closed = 1;
nodes = (
"405 -12 OFFCURVE",
"449 32 OFFCURVE",
"449 86 CURVE SMOOTH",
"449 140 OFFCURVE",
"405 184 OFFCURVE",
"351 184 CURVE SMOOTH",
"297 184 OFFCURVE",
"255 140 OFFCURVE",
"255 86 CURVE SMOOTH",
"255 32 OFFCURVE",
"297 -12 OFFCURVE",
"351 -12 CURVE SMOOTH"
);
}
);
width = 807;
}
);
leftKerningGroup = period;
rightKerningGroup = period_2;
unicode = 2026;
},
{
color = (255,153,254,255);
glyphname = perthousand;
lastChange = "2021-04-29 22:51:26 +0000";
layers = (
{
background = {
paths = (
{
closed = 1;
nodes = (
"322 0 LINE",
"790 668 LINE",
"702 668 LINE",
"234 0 LINE"
);
},
{
closed = 1;
nodes = (
"368 316 OFFCURVE",
"449 398 OFFCURVE",
"449 498 CURVE SMOOTH",
"449 598 OFFCURVE",
"368 680 OFFCURVE",
"268 680 CURVE SMOOTH",
"167 680 OFFCURVE",
"86 598 OFFCURVE",
"86 498 CURVE SMOOTH",
"86 398 OFFCURVE",
"167 316 OFFCURVE",
"268 316 CURVE SMOOTH"
);
},
{
closed = 1;
nodes = (
"209 391 OFFCURVE",
"160 439 OFFCURVE",
"160 498 CURVE SMOOTH",
"160 557 OFFCURVE",
"209 605 OFFCURVE",
"268 605 CURVE SMOOTH",
"327 605 OFFCURVE",
"375 557 OFFCURVE",
"375 498 CURVE SMOOTH",
"375 439 OFFCURVE",
"327 391 OFFCURVE",
"268 391 CURVE SMOOTH"
);
},
{
closed = 1;
nodes = (
"856 -12 OFFCURVE",
"937 69 OFFCURVE",
"937 169 CURVE SMOOTH",
"937 270 OFFCURVE",
"856 351 OFFCURVE",
"756 351 CURVE SMOOTH",
"655 351 OFFCURVE",
"574 270 OFFCURVE",
"574 169 CURVE SMOOTH",
"574 69 OFFCURVE",
"655 -12 OFFCURVE",
"756 -12 CURVE SMOOTH"
);
},
{
closed = 1;
nodes = (
"696 62 OFFCURVE",
"648 110 OFFCURVE",
"648 169 CURVE SMOOTH",
"648 229 OFFCURVE",
"696 277 OFFCURVE",
"756 277 CURVE SMOOTH",
"815 277 OFFCURVE",
"863 229 OFFCURVE",
"863 169 CURVE SMOOTH",
"863 110 OFFCURVE",
"815 62 OFFCURVE",
"756 62 CURVE SMOOTH"
);
},
{
closed = 1;
nodes = (
"1257 -12 OFFCURVE",
"1338 69 OFFCURVE",
"1338 169 CURVE SMOOTH",
"1338 270 OFFCURVE",
"1257 351 OFFCURVE",
"1157 351 CURVE SMOOTH",
"1056 351 OFFCURVE",
"975 270 OFFCURVE",
"975 169 CURVE SMOOTH",
"975 69 OFFCURVE",
"1056 -12 OFFCURVE",
"1157 -12 CURVE SMOOTH"
);
},
{
closed = 1;
nodes = (
"1097 62 OFFCURVE",
"1049 110 OFFCURVE",
"1049 169 CURVE SMOOTH",
"1049 229 OFFCURVE",
"1097 277 OFFCURVE",
"1157 277 CURVE SMOOTH",
"1216 277 OFFCURVE",
"1264 229 OFFCURVE",
"1264 169 CURVE SMOOTH",
"1264 110 OFFCURVE",
"1216 62 OFFCURVE",
"1157 62 CURVE SMOOTH"
);
}
);
};
layerId = "678C5AFE-F8DA-443A-BB17-9B03ED7099AB";
paths = (
{
closed = 1;
nodes = (
"322 0 LINE",
"790 668 LINE",
"702 668 LINE",
"234 0 LINE"
);
},
{
closed = 1;
nodes = (
"368 316 OFFCURVE",
"449 398 OFFCURVE",
"449 498 CURVE SMOOTH",
"449 598 OFFCURVE",
"368 680 OFFCURVE",
"268 680 CURVE SMOOTH",
"167 680 OFFCURVE",
"86 598 OFFCURVE",
"86 498 CURVE SMOOTH",
"86 398 OFFCURVE",
"167 316 OFFCURVE",
"268 316 CURVE SMOOTH"
);
},
{
closed = 1;
nodes = (
"209 391 OFFCURVE",
"160 439 OFFCURVE",
"160 498 CURVE SMOOTH",
"160 557 OFFCURVE",
"209 605 OFFCURVE",
"268 605 CURVE SMOOTH",
"327 605 OFFCURVE",
"375 557 OFFCURVE",
"375 498 CURVE SMOOTH",
"375 439 OFFCURVE",
"327 391 OFFCURVE",
"268 391 CURVE SMOOTH"
);
},
{
closed = 1;
nodes = (
"856 -12 OFFCURVE",
"937 69 OFFCURVE",
"937 169 CURVE SMOOTH",
"937 270 OFFCURVE",
"856 351 OFFCURVE",
"756 351 CURVE SMOOTH",
"655 351 OFFCURVE",
"574 270 OFFCURVE",
"574 169 CURVE SMOOTH",
"574 69 OFFCURVE",
"655 -12 OFFCURVE",
"756 -12 CURVE SMOOTH"
);
},
{
closed = 1;
nodes = (
"696 62 OFFCURVE",
"648 110 OFFCURVE",
"648 169 CURVE SMOOTH",
"648 229 OFFCURVE",
"696 277 OFFCURVE",
"756 277 CURVE SMOOTH",
"815 277 OFFCURVE",
"863 229 OFFCURVE",
"863 169 CURVE SMOOTH",
"863 110 OFFCURVE",
"815 62 OFFCURVE",
"756 62 CURVE SMOOTH"
);
},
{
closed = 1;
nodes = (
"1257 -12 OFFCURVE",
"1338 69 OFFCURVE",
"1338 169 CURVE SMOOTH",
"1338 270 OFFCURVE",
"1257 351 OFFCURVE",
"1157 351 CURVE SMOOTH",
"1056 351 OFFCURVE",
"975 270 OFFCURVE",
"975 169 CURVE SMOOTH",
"975 69 OFFCURVE",
"1056 -12 OFFCURVE",
"1157 -12 CURVE SMOOTH"
);
},
{
closed = 1;
nodes = (
"1097 62 OFFCURVE",
"1049 110 OFFCURVE",
"1049 169 CURVE SMOOTH",
"1049 229 OFFCURVE",
"1097 277 OFFCURVE",
"1157 277 CURVE SMOOTH",
"1216 277 OFFCURVE",
"1264 229 OFFCURVE",
"1264 169 CURVE SMOOTH",
"1264 110 OFFCURVE",
"1216 62 OFFCURVE",
"1157 62 CURVE SMOOTH"
);
}
);
width = 1406;
},
{
background = {
paths = (
{
closed = 1;
nodes = (
"352 0 LINE",
"820 668 LINE",
"693 668 LINE",
"226 0 LINE"
);
},
{
closed = 1;
nodes = (
"343 286 OFFCURVE",
"440 374 OFFCURVE",
"452 483 CURVE SMOOTH",
"463 592 OFFCURVE",
"384 680 OFFCURVE",
"275 680 CURVE SMOOTH",
"166 680 OFFCURVE",
"69 592 OFFCURVE",
"57 483 CURVE SMOOTH",
"45 374 OFFCURVE",
"125 286 OFFCURVE",
"234 286 CURVE SMOOTH"
);
},
{
closed = 1;
nodes = (
"203 405 OFFCURVE",
"171 439 OFFCURVE",
"176 483 CURVE SMOOTH",
"180 526 OFFCURVE",
"219 561 OFFCURVE",
"263 561 CURVE SMOOTH",
"306 561 OFFCURVE",
"338 526 OFFCURVE",
"333 483 CURVE SMOOTH",
"328 439 OFFCURVE",
"290 405 OFFCURVE",
"246 405 CURVE SMOOTH"
);
},
{
closed = 1;
nodes = (
"878 -12 OFFCURVE",
"976 76 OFFCURVE",
"987 185 CURVE SMOOTH",
"998 294 OFFCURVE",
"920 382 OFFCURVE",
"811 382 CURVE SMOOTH",
"702 382 OFFCURVE",
"604 294 OFFCURVE",
"593 185 CURVE SMOOTH",
"582 76 OFFCURVE",
"660 -12 OFFCURVE",
"769 -12 CURVE SMOOTH"
);
},
{
closed = 1;
nodes = (
"738 107 OFFCURVE",
"707 141 OFFCURVE",
"711 185 CURVE SMOOTH",
"715 228 OFFCURVE",
"755 263 OFFCURVE",
"798 263 CURVE SMOOTH",
"842 263 OFFCURVE",
"873 228 OFFCURVE",
"869 185 CURVE SMOOTH",
"864 141 OFFCURVE",
"825 107 OFFCURVE",
"782 107 CURVE SMOOTH"
);
},
{
closed = 1;
nodes = (
"1307 -12 OFFCURVE",
"1405 76 OFFCURVE",
"1416 185 CURVE SMOOTH",
"1427 294 OFFCURVE",
"1349 382 OFFCURVE",
"1240 382 CURVE SMOOTH",
"1131 382 OFFCURVE",
"1033 294 OFFCURVE",
"1022 185 CURVE SMOOTH",
"1011 76 OFFCURVE",
"1089 -12 OFFCURVE",
"1198 -12 CURVE SMOOTH"
);
},
{
closed = 1;
nodes = (
"1167 107 OFFCURVE",
"1136 141 OFFCURVE",
"1140 185 CURVE SMOOTH",
"1144 228 OFFCURVE",
"1184 263 OFFCURVE",
"1227 263 CURVE SMOOTH",
"1271 263 OFFCURVE",
"1302 228 OFFCURVE",
"1298 185 CURVE SMOOTH",
"1293 141 OFFCURVE",
"1254 107 OFFCURVE",
"1211 107 CURVE SMOOTH"
);
}
);
};
layerId = "30D4BC2E-225F-4273-AE59-0FC741A5E71E";
paths = (
{
closed = 1;
nodes = (
"352 0 LINE",
"820 668 LINE",
"693 668 LINE",
"226 0 LINE"
);
},
{
closed = 1;
nodes = (
"350 286 OFFCURVE",
"453 385 OFFCURVE",
"453 503 CURVE SMOOTH",
"453 603 OFFCURVE",
"377 680 OFFCURVE",
"275 680 CURVE SMOOTH",
"159 680 OFFCURVE",
"56 580 OFFCURVE",
"56 461 CURVE SMOOTH",
"56 363 OFFCURVE",
"132 286 OFFCURVE",
"234 286 CURVE SMOOTH"
);
},
{
closed = 1;
nodes = (
"206 405 OFFCURVE",
"175 434 OFFCURVE",
"175 474 CURVE SMOOTH",
"175 521 OFFCURVE",
"216 561 OFFCURVE",
"263 561 CURVE SMOOTH",
"303 561 OFFCURVE",
"334 531 OFFCURVE",
"334 492 CURVE SMOOTH",
"334 444 OFFCURVE",
"293 405 OFFCURVE",
"246 405 CURVE SMOOTH"
);
},
{
closed = 1;
nodes = (
"885 -12 OFFCURVE",
"988 87 OFFCURVE",
"988 205 CURVE SMOOTH",
"988 305 OFFCURVE",
"913 382 OFFCURVE",
"811 382 CURVE SMOOTH",
"695 382 OFFCURVE",
"592 283 OFFCURVE",
"592 165 CURVE SMOOTH",
"592 65 OFFCURVE",
"667 -12 OFFCURVE",
"769 -12 CURVE SMOOTH"
);
},
{
closed = 1;
nodes = (
"741 107 OFFCURVE",
"711 137 OFFCURVE",
"711 177 CURVE SMOOTH",
"711 224 OFFCURVE",
"753 263 OFFCURVE",
"798 263 CURVE SMOOTH",
"839 263 OFFCURVE",
"869 232 OFFCURVE",
"869 192 CURVE SMOOTH",
"869 145 OFFCURVE",
"827 107 OFFCURVE",
"782 107 CURVE SMOOTH"
);
},
{
closed = 1;
nodes = (
"1314 -12 OFFCURVE",
"1417 87 OFFCURVE",
"1417 205 CURVE SMOOTH",
"1417 305 OFFCURVE",
"1342 382 OFFCURVE",
"1240 382 CURVE SMOOTH",
"1124 382 OFFCURVE",
"1021 283 OFFCURVE",
"1021 165 CURVE SMOOTH",
"1021 65 OFFCURVE",
"1096 -12 OFFCURVE",
"1198 -12 CURVE SMOOTH"
);
},
{
closed = 1;
nodes = (
"1170 107 OFFCURVE",
"1140 137 OFFCURVE",
"1140 177 CURVE SMOOTH",
"1140 224 OFFCURVE",
"1182 263 OFFCURVE",
"1227 263 CURVE SMOOTH",
"1268 263 OFFCURVE",
"1298 232 OFFCURVE",
"1298 192 CURVE SMOOTH",
"1298 145 OFFCURVE",
"1256 107 OFFCURVE",
"1211 107 CURVE SMOOTH"
);
}
);
width = 1472;
}
);
leftKerningGroup = percent;
leftMetricsKey = o;
rightMetricsKey = o;
unicode = 2030;
},
{
color = (255,153,254,255);
glyphname = guilsinglleft;
lastChange = "2021-04-29 22:51:26 +0000";
layers = (
{
background = {
paths = (
{
closed = 1;
nodes = (
"237 40 LINE",
"136 247 LINE",
"129 227 LINE",
"321 461 LINE",
"217 461 LINE",
"45 250 LINE",
"148 40 LINE"
);
}
);
};
layerId = "678C5AFE-F8DA-443A-BB17-9B03ED7099AB";
paths = (
{
closed = 1;
nodes = (
"237 40 LINE",
"136 247 LINE",
"129 227 LINE",
"321 461 LINE",
"217 461 LINE",
"45 250 LINE",
"148 40 LINE"
);
}
);
width = 355;
},
{
background = {
paths = (
{
closed = 1;
nodes = (
"291 40 LINE",
"177 273 LINE",
"166 217 LINE",
"388 460 LINE",
"217 460 LINE",
"24 250 LINE",
"127 40 LINE"
);
}
);
};
layerId = "30D4BC2E-225F-4273-AE59-0FC741A5E71E";
paths = (
{
closed = 1;
nodes = (
"291 40 LINE",
"177 273 LINE",
"166 217 LINE",
"388 460 LINE",
"217 460 LINE",
"24 250 LINE",
"127 40 LINE"
);
}
);
width = 401;
}
);
leftKerningGroup = guilsinglleft;
rightKerningGroup = guilsinglleft_2;
unicode = 2039;
},
{
color = (255,153,254,255);
glyphname = guilsinglright;
lastChange = "2021-04-29 22:51:26 +0000";
layers = (
{
background = {
paths = (
{
closed = 1;
nodes = (
"113 40 LINE",
"285 251 LINE",
"182 461 LINE",
"93 461 LINE",
"194 254 LINE",
"201 274 LINE",
"9 40 LINE"
);
}
);
};
layerId = "678C5AFE-F8DA-443A-BB17-9B03ED7099AB";
paths = (
{
closed = 1;
nodes = (
"113 40 LINE",
"285 251 LINE",
"182 461 LINE",
"93 461 LINE",
"194 254 LINE",
"201 274 LINE",
"9 40 LINE"
);
}
);
width = 347;
},
{
background = {
paths = (
{
closed = 1;
nodes = (
"151 40 LINE",
"344 250 LINE",
"241 460 LINE",
"77 460 LINE",
"191 227 LINE",
"202 283 LINE",
"-20 40 LINE"
);
}
);
};
layerId = "30D4BC2E-225F-4273-AE59-0FC741A5E71E";
paths = (
{
closed = 1;
nodes = (
"151 40 LINE",
"344 250 LINE",
"241 460 LINE",
"77 460 LINE",
"191 227 LINE",
"202 283 LINE",
"-20 40 LINE"
);
}
);
width = 402;
}
);
leftKerningGroup = guilsinglright;
rightKerningGroup = guilsinglright_2;
unicode = 203A;
},
{
color = (255,153,254,255);
glyphname = fraction;
lastChange = "2021-04-29 22:51:26 +0000";
layers = (
{
background = {
paths = (
{
closed = 1;
nodes = (
"41 0 LINE",
"509 668 LINE",
"421 668 LINE",
"-47 0 LINE"
);
}
);
};
layerId = "678C5AFE-F8DA-443A-BB17-9B03ED7099AB";
paths = (
{
closed = 1;
nodes = (
"41 0 LINE",
"509 668 LINE",
"421 668 LINE",
"-47 0 LINE"
);
}
);
width = 444;
},
{
background = {
paths = (
{
closed = 1;
nodes = (
"72 0 LINE",
"539 668 LINE",
"413 668 LINE",
"-55 0 LINE"
);
}
);
};
layerId = "30D4BC2E-225F-4273-AE59-0FC741A5E71E";
paths = (
{
closed = 1;
nodes = (
"72 0 LINE",
"539 668 LINE",
"413 668 LINE",
"-55 0 LINE"
);
}
);
width = 482;
}
);
unicode = 2044;
},
{
color = (255,153,254,255);
glyphname = ordfeminine;
lastChange = "2021-04-29 22:51:26 +0000";
layers = (
{
background = {
paths = (
{
closed = 1;
nodes = (
"192 396 OFFCURVE",
"229 405 OFFCURVE",
"252 441 CURVE",
"255 403 LINE",
"314 403 LINE",
"314 461 OFFCURVE",
"325 516 OFFCURVE",
"338 572 CURVE SMOOTH",
"341 584 OFFCURVE",
"342 595 OFFCURVE",
"342 605 CURVE SMOOTH",
"342 662 OFFCURVE",
"300 691 OFFCURVE",
"231 691 CURVE",
"171 691 OFFCURVE",
"129 667 OFFCURVE",
"108 624 CURVE",
"165 606 LINE",
"177 631 OFFCURVE",
"198 643 OFFCURVE",
"221 643 CURVE SMOOTH",
"264 643 OFFCURVE",
"275 624 OFFCURVE",
"275 601 CURVE SMOOTH",
"275 594 OFFCURVE",
"274 585 OFFCURVE",
"272 577 CURVE",
"168 565 OFFCURVE",
"72 548 OFFCURVE",
"72 468 CURVE SMOOTH",
"72 425 OFFCURVE",
"107 396 OFFCURVE",
"159 396 CURVE SMOOTH"
);
},
{
closed = 1;
nodes = (
"157 447 OFFCURVE",
"145 458 OFFCURVE",
"145 476 CURVE SMOOTH",
"145 504 OFFCURVE",
"166 518 OFFCURVE",
"239 526 CURVE SMOOTH",
"262 529 LINE",
"259 518 LINE SMOOTH",
"248 479 OFFCURVE",
"234 447 OFFCURVE",
"179 447 CURVE SMOOTH"
);
}
);
};
layerId = "678C5AFE-F8DA-443A-BB17-9B03ED7099AB";
paths = (
{
closed = 1;
nodes = (
"192 396 OFFCURVE",
"229 405 OFFCURVE",
"252 441 CURVE",
"255 403 LINE",
"314 403 LINE",
"314 461 OFFCURVE",
"325 516 OFFCURVE",
"338 572 CURVE SMOOTH",
"341 584 OFFCURVE",
"342 595 OFFCURVE",
"342 605 CURVE SMOOTH",
"342 662 OFFCURVE",
"300 691 OFFCURVE",
"231 691 CURVE",
"171 691 OFFCURVE",
"129 667 OFFCURVE",
"108 624 CURVE",
"165 606 LINE",
"177 631 OFFCURVE",
"198 643 OFFCURVE",
"221 643 CURVE SMOOTH",
"264 643 OFFCURVE",
"275 624 OFFCURVE",
"275 601 CURVE SMOOTH",
"275 594 OFFCURVE",
"274 585 OFFCURVE",
"272 577 CURVE",
"168 565 OFFCURVE",
"72 548 OFFCURVE",
"72 468 CURVE SMOOTH",
"72 425 OFFCURVE",
"107 396 OFFCURVE",
"159 396 CURVE SMOOTH"
);
},
{
closed = 1;
nodes = (
"157 447 OFFCURVE",
"145 458 OFFCURVE",
"145 476 CURVE SMOOTH",
"145 504 OFFCURVE",
"166 518 OFFCURVE",
"239 526 CURVE SMOOTH",
"262 529 LINE",
"259 518 LINE SMOOTH",
"248 479 OFFCURVE",
"234 447 OFFCURVE",
"179 447 CURVE SMOOTH"
);
}
);
width = 363;
},
{
background = {
paths = (
{
closed = 1;
nodes = (
"222 396 OFFCURVE",
"251 413 OFFCURVE",
"270 435 CURVE",
"272 403 LINE",
"358 403 LINE",
"363 453 OFFCURVE",
"370 497 OFFCURVE",
"382 549 CURVE",
"410 661 OFFCURVE",
"341 692 OFFCURVE",
"266 692 CURVE SMOOTH",
"196 692 OFFCURVE",
"155 672 OFFCURVE",
"127 631 CURVE",
"207 599 LINE",
"215 618 OFFCURVE",
"236 625 OFFCURVE",
"254 625 CURVE SMOOTH",
"281 625 OFFCURVE",
"297 614 OFFCURVE",
"293 594 CURVE",
"289 582 LINE",
"187 576 OFFCURVE",
"84 562 OFFCURVE",
"86 474 CURVE SMOOTH",
"87 431 OFFCURVE",
"118 396 OFFCURVE",
"174 396 CURVE SMOOTH"
);
},
{
closed = 1;
nodes = (
"193 506 OFFCURVE",
"206 518 OFFCURVE",
"243 523 CURVE",
"252 525 OFFCURVE",
"282 528 OFFCURVE",
"282 528 CURVE",
"277 510 LINE",
"266 456 OFFCURVE",
"191 449 OFFCURVE",
"193 491 CURVE"
);
}
);
};
layerId = "30D4BC2E-225F-4273-AE59-0FC741A5E71E";
paths = (
{
closed = 1;
nodes = (
"222 396 OFFCURVE",
"251 413 OFFCURVE",
"270 435 CURVE",
"272 403 LINE",
"358 403 LINE",
"363 453 OFFCURVE",
"370 497 OFFCURVE",
"382 549 CURVE SMOOTH",
"386 566 OFFCURVE",
"388 582 OFFCURVE",
"388 596 CURVE SMOOTH",
"388 670 OFFCURVE",
"329 692 OFFCURVE",
"266 692 CURVE SMOOTH",
"196 692 OFFCURVE",
"155 672 OFFCURVE",
"127 631 CURVE",
"207 599 LINE",
"215 618 OFFCURVE",
"236 625 OFFCURVE",
"254 625 CURVE SMOOTH",
"281 625 OFFCURVE",
"294 614 OFFCURVE",
"294 601 CURVE SMOOTH",
"294 594 OFFCURVE",
"291 586 OFFCURVE",
"289 582 CURVE",
"188 576 OFFCURVE",
"86 562 OFFCURVE",
"86 477 CURVE SMOOTH",
"86 432 OFFCURVE",
"117 396 OFFCURVE",
"174 396 CURVE SMOOTH"
);
},
{
closed = 1;
nodes = (
"206 464 OFFCURVE",
"192 473 OFFCURVE",
"193 491 CURVE SMOOTH",
"193 511 OFFCURVE",
"215 520 OFFCURVE",
"256 525 CURVE SMOOTH",
"282 528 LINE",
"277 510 LINE SMOOTH",
"268 478 OFFCURVE",
"244 464 OFFCURVE",
"222 464 CURVE SMOOTH"
);
}
);
width = 395;
}
);
unicode = 00AA;
},
